<?xml version="1.0" encoding="UTF-8"?><svg id="blue" xmlns="http://www.w3.org/2000/svg" viewBox="0 0 800 800"><defs></defs><circle class="cls-1" fill="#103AD9" cx="400" cy="400" r="390"></circle><path class="cls-2" fill="#FFFFFF" d="M399.791,477.372c-20.695.946-37.589,18.162-38.181,38.87-.305,10.682,3.605,20.422,10.146,27.77h-.053l21.643,26.437c4.305,5.258,12.346,5.258,16.65,0l21.638-26.436h-.049c6.302-7.08,10.165-16.381,10.165-26.606,0-22.758-18.97-41.085-41.959-40.034Z"></path><path class="cls-2" fill="#FFFFFF" d="M650.595,254.576l-37.58,19.568c-20.677-13.456-45.34-21.302-71.849-21.302-72.871,0-131.944,59.073-131.944,131.944s59.073,131.943,131.944,131.943c27.101,0,52.287-8.182,73.242-22.195l35.693,20.275c10.267,5.832,23.008-1.583,23.008-13.39v-233.183c0-11.559-12.261-18.999-22.514-13.66ZM541.166,450.495c-36.233,0-65.711-29.478-65.711-65.709s29.478-65.71,65.711-65.71,65.71,29.476,65.71,65.71-29.476,65.709-65.71,65.709Z"></path><path class="cls-2" fill="#FFFFFF" d="M258.598,252.928c-27.101-.014-52.291,8.156-73.253,22.158l-35.682-20.293c-10.264-5.838-23.009,1.571-23.015,13.379l-.117,233.183c0,.152.025.295.029.445v82.423c0,7.391,5.992,13.383,13.383,13.383h39.468c7.391,0,13.383-5.992,13.383-13.383v-84.988c19.339,11.148,41.747,17.567,65.673,17.579,72.871.037,131.974-59.007,132.01-131.877.036-72.87-59.007-131.973-131.878-132.008ZM258.499,450.58c-36.233-.018-65.695-29.509-65.677-65.743.018-36.231,29.509-65.694,65.742-65.676,36.233.018,65.696,29.51,65.678,65.741-.018,36.234-29.511,65.695-65.744,65.677Z"></path></svg>