<?xml version="1.0" encoding="UTF-8"?>
<svg id="Vehicles" xmlns="http://www.w3.org/2000/svg" version="1.1" viewBox="0 0 150 150">
  <!-- Generator: Adobe Illustrator 30.3.0, SVG Export Plug-In . SVG Version: 2.1.3 Build 182)  -->
  <path d="M93.457,97.633h-31.5c-2.8,0-5,2.2-5,5h41.5c0-2.7-2.2-5-5-5Z" fill="#103ad9"/>
  <path d="M130.357,70.833l-16.4-5.3-10.6-14-.1-.2c-2.3-2.4-8.2-3.7-10.8-3.7h-40c-3.6,0-6.9,2-8.9,5.4l-7.8,12.6-11.8,5.2c-3.9,1.7-6.4,5.4-6.4,9.6v11.6c0,5.6,4.4,10.1,10,10.5,0-2.5-1.2-4.7-3-6.3-1.2-1-2-2.5-2-4.2v-11.5c0-2.2,1.3-4.2,3.4-5l12.5-5.6c.5-.2.8-.5,1.1-1l8.3-13.3c.7-1.1,2.1-3,4.6-3h40c2.1,0,6.1,1.2,7,2.1l10.9,14.4c.3.5.8.8,1.4,1l17,5.5c2.2.8,3.7,2.9,3.7,5.1v11.5c0,1.7-.8,3.1-2,4.2-1.9,1.6-3,3.9-3,6.3,5.6-.3,10-4.9,10-10.5v-11.5c0-4.4-2.8-8.3-7.1-9.9Z" fill="#103ad9"/>
  <circle cx="42.457" cy="99.533" r="12.5" fill="#4168ff"/>
  <circle cx="112.457" cy="99.533" r="12.5" fill="#4168ff"/>
  <path d="M64.257,70.033h-17.7c-.9,0-1.5-.9-1-1.7l8.2-12.7c.2-.3.6-.5,1-.5h9.6c.8,0,1.5.6,1.5,1.4v12.1c0,.8-.7,1.4-1.6,1.4Z" fill="#4168ff"/>
  <path d="M72.857,70.033h30.1c.8,0,1.3-1,.9-1.6l-9.1-12.9c-.2-.3-.5-.4-.9-.4h-21c-.6,0-1,.5-1,1v12.8c0,.6.5,1.1,1,1.1Z" fill="#4168ff"/>
  <path d="M80.157,75.133h-6.2c-.6,0-1.2-.5-1.2-1.2,0-.6.5-1.2,1.2-1.2h6.2c.6,0,1.2.5,1.2,1.2s-.5,1.2-1.2,1.2Z" fill="#c2d9ff"/>
  <metadata>
    <sfw xmlns="http://ns.adobe.com/SaveForWeb/1.0/">
      <slices/>
      <sliceSourceBounds x="-10388" y="-212.73" width="8288.51" height="4955.11" bottomLeftOrigin="true"/>
    </sfw>
  </metadata>
</svg>