<?xml version="1.0" encoding="UTF-8"?>
<svg id="Building" xmlns="http://www.w3.org/2000/svg" version="1.1" viewBox="0 0 150 150">
  <!-- Generator: Adobe Illustrator 30.3.0, SVG Export Plug-In . SVG Version: 2.1.3 Build 182)  -->
  <path d="M99.299,29.316h-54c-5.8,0-10.5,4.7-10.5,10.5v49.1c0,2.8,2.2,5,5,5v-54.1c0-3,2.5-5.5,5.5-5.5h54c3,0,5.5,2.5,5.5,5.5v74c0,3-2.5,5.5-5.5,5.5h-54c-3,0-5.5-2.5-5.5-5.5v-9.9c-2.8,0-5,2.2-5,5v4.9c0,5.8,4.7,10.5,10.5,10.5h54c5.8,0,10.5-4.7,10.5-10.5V39.816c0-5.8-4.7-10.5-10.5-10.5Z" fill="#103ad9"/>
  <path d="M57.199,59.316h-7.2c-1.5,0-2.6-1.2-2.6-2.6v-12.3c0-1.5,1.2-2.6,2.6-2.6h7.2c1.5,0,2.6,1.2,2.6,2.6v12.2c0,1.5-1.2,2.7-2.6,2.7Z" fill="#4168ff"/>
  <path d="M94.699,59.316h-7.2c-1.5,0-2.6-1.2-2.6-2.6v-12.3c0-1.5,1.2-2.6,2.6-2.6h7.2c1.5,0,2.6,1.2,2.6,2.6v12.2c0,1.5-1.2,2.7-2.6,2.7Z" fill="#4168ff"/>
  <path d="M57.199,89.316h-7.2c-1.5,0-2.6-1.2-2.6-2.6v-12.3c0-1.5,1.2-2.6,2.6-2.6h7.2c1.5,0,2.6,1.2,2.6,2.6v12.2c0,1.5-1.2,2.7-2.6,2.7Z" fill="#4168ff"/>
  <path d="M94.699,89.316h-7.2c-1.5,0-2.6-1.2-2.6-2.6v-12.3c0-1.5,1.2-2.6,2.6-2.6h7.2c1.5,0,2.6,1.2,2.6,2.6v12.2c0,1.5-1.2,2.7-2.6,2.7Z" fill="#4168ff"/>
  <path d="M84.799,119.316h-25v-12.5c0-6.9,5.6-12.5,12.5-12.5s12.5,5.6,12.5,12.5v12.5Z" fill="#4168ff"/>
  <metadata>
    <sfw xmlns="http://ns.adobe.com/SaveForWeb/1.0/">
      <slices/>
      <sliceSourceBounds x="-10388" y="-212.73" width="8288.51" height="4955.11" bottomLeftOrigin="true"/>
    </sfw>
  </metadata>
</svg>