<?xml version="1.0" encoding="UTF-8"?>
<svg id="Vehicles" xmlns="http://www.w3.org/2000/svg" version="1.1" viewBox="0 0 150 150">
  <!-- Generator: Adobe Illustrator 30.3.0, SVG Export Plug-In . SVG Version: 2.1.3 Build 182)  -->
  <rect x="70.391" y="90.039" width="13.3" height="27.4" fill="#4168ff"/>
  <polygon points="65.291 67.439 31.491 79.939 31.491 87.439 64.591 87.439 65.291 67.439" fill="#4168ff"/>
  <polygon points="87.791 67.439 88.391 87.439 119.591 87.439 119.591 79.939 87.791 67.439" fill="#4168ff"/>
  <path d="M76.491,32.639c-24.9,0-45,20.1-45,44.9s20.1,44.9,45,44.9,45-20.1,45-44.9-20.1-44.9-45-44.9ZM76.491,42.639c19.3,0,35,15.7,35,34.9s-15.7,34.9-35,34.9-35-15.7-35-34.9,15.7-34.9,35-34.9Z" fill="#4168ff"/>
  <path d="M105.191,46.139c14.6,13.1,18.6,35,8.5,52.6-11.6,20.3-37.6,27.3-57.9,15.7-20.3-11.6-27.4-37.6-15.8-57.9,10.6-18.5,33.2-26,52.5-18.3,1.3-2.3.2-5.3-2.4-6.1-20.6-6-43.4,2.6-54.4,21.9-13,22.7-5,51.7,17.7,64.7,22.7,13,51.8,5.1,64.8-17.5,10.5-18.4,7.3-41-6.5-55.9-2-1.9-5.2-1.5-6.5.8Z" fill="#103ad9"/>
  <circle cx="76.491" cy="77.539" r="7.2" fill="#c2d9ff"/>
  <path d="M76.491,61.339c-9,0-16.2,7.3-16.2,16.2,0,4.4,1.8,8.5,4.7,11.4l1.8-1.8c.9-.9,1.1-2.4.3-3.5-1.2-1.8-1.8-3.9-1.8-6.1,0-6.2,5-11.2,11.2-11.2s11.2,5,11.2,11.2-5,11.2-11.2,11.2c-.7,0-1.4-.1-2-.2-.3-.1-.6-.1-.9-.1-1.2,0-2.4.5-3.2,1.3l-1.5,2c2.4,1.3,4.7,1.9,7.6,1.9,9,0,16.2-7.3,16.2-16.2.1-8.8-7.2-16.1-16.2-16.1Z" fill="#4168ff"/>
  <metadata>
    <sfw xmlns="http://ns.adobe.com/SaveForWeb/1.0/">
      <slices/>
      <sliceSourceBounds x="-10388" y="-212.73" width="8288.51" height="4955.11" bottomLeftOrigin="true"/>
    </sfw>
  </metadata>
</svg>