<?xml version="1.0" encoding="UTF-8"?>
<svg id="Travel" xmlns="http://www.w3.org/2000/svg" version="1.1" viewBox="0 0 150 150">
  <!-- Generator: Adobe Illustrator 30.3.0, SVG Export Plug-In . SVG Version: 2.1.3 Build 182)  -->
  <path d="M54.105,60.082v-16c0-.8.7-1.5,1.5-1.5h5.9v-5h-5.9c-3.6,0-6.5,2.9-6.5,6.5v11.6c0,2.4,1.9,4.3,4.3,4.3h.7v.1Z" fill="#103ad9"/>
  <path d="M74.105,112.682c0,5.5-4.5,9.9-9.9,9.9h-.1c-5.5,0-9.9-4.5-9.9-9.9s4.5-9.9,9.9-9.9h10v9.9ZM104.105,64.082v-20c0-3.6-2.9-6.5-6.5-6.5h-6v5h6c.8,0,1.5.7,1.5,1.5v20c0,11.6-9.4,21-21,21h-3c-11.2,0-20.4-8.8-21-19.9-2.9,0-4.9,2.7-4.2,5.5,2.9,10.9,12.6,18.9,24.2,19.4v7.7h-10.1c-8.2,0-14.9,6.7-14.9,14.9s6.7,14.9,14.9,14.9h.1c8.2,0,14.9-6.7,14.9-14.9v-9.9h19.605v-5h-19.505v-7.7c13.9-.5,25-12,25-26Z" fill="#103ad9"/>
  <path d="M61.405,40.082v-3.1c0-1.2,1.2-1.9,2.3-1.4,1.6.8,2.8,2.5,2.8,4.5,0,1.9-1.1,3.6-2.8,4.5-1,.5-2.3-.3-2.3-1.4v-3.1Z" fill="#4168ff"/>
  <path d="M91.605,40.082v3.1c0,1.2-1.2,1.9-2.3,1.4-1.6-.8-2.8-2.5-2.8-4.5,0-1.9,1.1-3.6,2.8-4.5,1-.5,2.3.3,2.3,1.4v3.1Z" fill="#4168ff"/>
  <path d="M109.595,92.37c-4.369-2.7-10.1-1.347-12.8,3.022-2.7,4.369-1.347,10.1,3.022,12.8,4.369,2.7,10.1,1.347,12.8-3.022,2.7-4.369,1.347-10.1-3.022-12.8ZM104.705,105.182c-2.596,0-4.7-2.104-4.7-4.7s2.104-4.7,4.7-4.7,4.7,2.104,4.7,4.7-2.104,4.7-4.7,4.7Z" fill="#4168ff"/>
  <rect x="71.605" y="82.582" width="10" height="10" rx="4" ry="4" fill="#4168ff"/>
  <metadata>
    <sfw xmlns="http://ns.adobe.com/SaveForWeb/1.0/">
      <slices/>
      <sliceSourceBounds x="49.1" y="22.42" width="64.9" height="92.16" bottomLeftOrigin="true"/>
    </sfw>
  </metadata>
</svg>