<?xml version="1.0" encoding="UTF-8"?>
<svg id="Insurance__x26__Compare" xmlns="http://www.w3.org/2000/svg" version="1.1" viewBox="0 0 150 150">
  <!-- Generator: Adobe Illustrator 30.3.0, SVG Export Plug-In . SVG Version: 2.1.3 Build 182)  -->
  <path d="M99.016,51.15l-26.2-7.5-26.2,7.5c-9.6,48.5,26.2,59.7,26.2,59.7,0,0,35.9-11.2,26.2-59.7ZM85.216,77.35l-4.8,5.5-6.3,7.1c-.8,1-2.3,1-3.1,0l-6-7.2-4.5-5.4c-4.4-5.2-.9-13.3,5.9-13.5h.3c1.9,0,3.7.5,5.2,1.5l1,.6,1.1-.6c1.4-.9,3.2-1.5,5.1-1.5h.3c6.8.3,10.2,8.4,5.8,13.5Z" fill="#4168ff"/>
  <path d="M71.016,89.95l-6-7.2-4.5-5.4c-4.4-5.2-.9-13.3,5.9-13.5h.3c1.9,0,3.7.5,5.2,1.5l.5.3v-21.9l-25.8,7.4c-9.1,45.6,22,58.2,25.8,59.6v-20.066c-.523-.04-1.035-.277-1.4-.734Z" fill="#3058d8"/>
  <path d="M89.016,109.65c-4.6,4-9.9,7.2-16.2,9.7-19.4-7.7-30.8-22.8-33.9-44.7-2-13.9.2-26.5,1-30.6l32.9-9.4,32.9,9.4c.8,4.1,3,16.6,1,30.6-1,7.3-3,13.9-5.9,19.7-1.2,2.5-.7,5.6,1.3,7.6,4.9-7.6,8.1-16.6,9.6-26.8,2.5-17.9-1.3-33.1-1.5-33.7-.2-.9-.9-1.5-1.7-1.8l-32.9-9.4c-1.8-.5-3.8-.5-5.6,0l-32.9,9.4c-.9.2-1.5.9-1.7,1.8-.2.6-3.9,15.9-1.5,33.7,3.3,24,16.5,41,38,49.2l.9.3.9-.3c8.8-3.4,16.3-8.2,22.2-14.5-1.9-1.8-4.9-1.9-6.9-.2Z" fill="#103ad9"/>
  <metadata>
    <sfw xmlns="http://ns.adobe.com/SaveForWeb/1.0/">
      <slices/>
      <sliceSourceBounds x="33.11" y="25.35" width="79.46" height="94.77" bottomLeftOrigin="true"/>
    </sfw>
  </metadata>
</svg>