<?xml version="1.0" encoding="UTF-8"?>
<svg id="Travel" xmlns="http://www.w3.org/2000/svg" version="1.1" viewBox="0 0 150 150">
  <!-- Generator: Adobe Illustrator 30.3.0, SVG Export Plug-In . SVG Version: 2.1.3 Build 182)  -->
  <path d="M38.708,38.962h27.5v-3.5c0-.8-.7-1.5-1.5-1.5h-24.5c-.8,0-1.5.7-1.5,1.5v3.5ZM71.208,43.962h-37.5v-8.5c0-3.6,2.9-6.5,6.5-6.5h24.5c3.6,0,6.5,2.9,6.5,6.5v8.5Z" fill="#103ad9"/>
  <path d="M73.208,38.862H29.208c-4.4,0-8,3.6-8,8v59.1c0,4.4,3.6,8,8,8h15.1c-.4-.9-.6-1.9-.6-3v-17h-13.521c-1.5,0-2.679-1.1-2.679-2.5s1.179-2.5,2.679-2.5h13.521v-7.5h-13.521c-1.5,0-2.679-1.1-2.679-2.5s1.179-2.5,2.679-2.5h13.521v-7h-13.521c-1.5,0-2.679-1.1-2.679-2.5s1.179-2.5,2.679-2.5h13.93c1.057-3.184,4.065-5.5,7.592-5.5h29.5v-12.1c0-4.4-3.6-8-8-8Z" fill="#4168ff"/>
  <path d="M70.008,69.762v-10.8h-5v10.8c0,1.4,1.1,2.5,2.5,2.5,1.3,0,2.5-1.1,2.5-2.5Z" fill="#103ad9"/>
  <path d="M65.008,100.962v18h5v-18c0-1.4-1.1-2.5-2.5-2.5s-2.5,1.1-2.5,2.5Z" fill="#103ad9"/>
  <path d="M115.008,84.762v-25.8h-5v25.8c0,1.4,1.1,2.5,2.5,2.5,1.3,0,2.5-1.1,2.5-2.5Z" fill="#103ad9"/>
  <path d="M110.008,110.462v8.5h5v-8.5c0-1.4-1.1-2.5-2.5-2.5s-2.5,1.1-2.5,2.5Z" fill="#103ad9"/>
  <path d="M77.508,56.462h27.5v-3.5c0-.8-.7-1.5-1.5-1.5h-24.5c-.8,0-1.5.7-1.5,1.5v3.5ZM110.008,61.462h-37.5v-8.5c0-3.6,2.9-6.5,6.5-6.5h24.5c3.6,0,6.5,2.9,6.5,6.5v8.5Z" fill="#103ad9"/>
  <path d="M35.008,121.462c-1.4,0-2.5-1.1-2.5-2.5v-5h5v5c0,1.4-1.2,2.5-2.5,2.5Z" fill="#103ad9"/>
  <path d="M127.008,56.462H53.008c-5.8,0-10.5,4.7-10.5,10.5v44c0,5.8,4.7,10.5,10.5,10.5h33.1c0-2.8-2.2-5-5-5h-28.1c-3,0-5.5-2.5-5.5-5.5v-44c0-3,2.5-5.5,5.5-5.5h74c3,0,5.5,2.5,5.5,5.5v44c0,3-2.5,5.5-5.5,5.5h-25.9c-2.8,0-5,2.2-5,5h30.9c5.8,0,10.5-4.7,10.5-10.5v-44c0-5.8-4.8-10.5-10.5-10.5Z" fill="#103ad9"/>
  <path d="M123.908,100.562l-23.5,6.9c-2.8.8-5.7-.8-6.5-3.6-.8-2.8.8-5.7,3.6-6.5l23.5-6.9c2.8-.8,5.7.8,6.5,3.6.8,2.7-.8,5.6-3.6,6.5Z" fill="#c2d9ff"/>
  <circle cx="67.908" cy="85.462" r="10.5" fill="#c2d9ff"/>
  <metadata>
    <sfw xmlns="http://ns.adobe.com/SaveForWeb/1.0/">
      <slices/>
      <sliceSourceBounds x="21.21" y="28.54" width="116.3" height="92.5" bottomLeftOrigin="true"/>
    </sfw>
  </metadata>
</svg>