<?xml version="1.0" encoding="UTF-8"?>
<svg id="Auto_CL" xmlns="http://www.w3.org/2000/svg" version="1.1" viewBox="0 0 200 100">
  <!-- Generator: Adobe Illustrator 30.3.0, SVG Export Plug-In . SVG Version: 2.1.3 Build 182)  -->
  <path d="M52.6,35.468c-2.465,1.671-5.032,3.026-7.772,4.373-4.595,2.259-10.565,6.434-12.51,11.068-1.127,2.686.33,5.628,2.956,6.441,2.668.826,5.934-1.024,5.983-4.015.058-3.48,1.365-6.355,4.179-8.516,3.858-2.963,8.087-5.336,12.24-7.76.421-.246.845-.532,1.271-.745,5.663-2.831,15.676-10.596,10.776-15.763-1.285-1.355-3.352-1.893-5.324-1.084-1.686.692-2.91,2.529-2.848,4.643.113,3.827-3.336,7.078-6.142,9.498-4.017-2.891-4.594-7.951-3.448-12.832.625-2.664-.301-5.307-2.356-6.828-2.178-1.612-4.995-1.718-7.261-.319-2.153,1.329-3.352,3.838-2.952,6.486.922,6.107,8.113,12.054,13.207,15.353ZM131.71,18.626c-2.043.378-3.072,2.304-2.661,4.083.406,1.757,2.152,2.873,3.924,2.533,1.804-.347,3.052-2.127,2.675-4.011-.336-1.678-1.945-2.974-3.938-2.605ZM97.65,36.504c2.219-2.316,2.855-5.305,2.412-8.338-.46-3.147-2.282-5.747-5.317-6.855-1.467-.548-3.007-.945-4.644-.949l-13.16-.039v34.295s12.825-.021,12.825-.021c1.991-.003,3.894-.304,5.712-1.036,2.443-.931,4.239-2.719,5.129-5.19,1.289-4.246.746-9.127-2.957-11.867ZM135.46,54.682l-.002-26.84h-6.315s0,26.877,0,26.877l6.316-.038ZM111.628,46.854c-2.399-2.576-2.701-6.304-1.021-9.247,1.186-2.078,3.282-3.274,5.37-3.459,2.431-.215,4.413.771,6.12,2.532l4.204-4.451c-3.062-3.172-7.213-4.664-11.68-3.986-3.748.569-7.374,2.901-9.436,6.52-2.16,3.792-2.406,8.302-.69,12.316s5.305,6.86,9.185,7.702c4.646,1.009,9.066-.274,12.401-3.61l-4.377-4.267c-2.845,2.911-7.26,2.972-10.075-.05ZM70.905,47.142c-.923-4.037-6.364-8.182-10.094-10.087-.654-.334-1.349-.102-1.486.53-.106.487.032,1.013.662,1.212,3.271,1.031,4.314,4.63,3.497,8.233-.375,1.655.171,3.228,1.493,4.178,1.231.884,2.959.964,4.289.095,1.266-.826,2.042-2.395,1.639-4.16ZM55.798,51.287c3.257-1.248,5.728-4.042,4.993-7.467-.431-2.009-2.298-3.235-4.335-2.888-2.002.341-3.747,1.208-5.43,2.293-2.95,1.903-7.333,4.734-6.083,7.84.885,2.2,7.406,1.543,10.855.222ZM106.604,61.688c9.584,2.46,19.359,2.195,28.817-.15-.013-.412-.104-.592-.269-1.008-10.095,2.739-20.496,2.371-30.584-.318-8.559-2.281-17.455-2.08-25.918.03-.375.093-.583.241-.613.461-.019.138.045.331.142.775,4.573-1.448,9.326-1.899,14.257-1.875,4.884.024,9.322.841,14.167,2.085ZM84.672,74.74l-3.564-1.646c-.827-.382-1.26-1.262-1.126-2.109.123-.781.819-1.385,1.704-1.558,1.348-.263,2.539.077,3.402,1.119.249.217,1.184-.056,1.281-.386-1.054-2.676-5.981-2.698-7.391-.384-1.042,1.709-.237,3.823,1.512,4.639l3.632,1.695c.834.389,1.36,1.237,1.48,1.958.137.825.01,1.771-.706,2.32-1.738,1.332-4.407.72-5.357-1.253-.552.012-1.08.162-1.377.553,1.538,2.896,5.555,3.556,7.918,1.432,1.033-.928,1.163-2.345.88-3.663-.222-1.035-1.015-2.128-2.288-2.716ZM90.928,77.638l6.819-.025c.136-1.556.002-3.138-.921-4.363-1.048-1.392-2.79-1.747-4.452-1.225-3.318,1.043-3.916,6.607-1.377,9.165,1.522,1.533,3.934,1.474,5.713.132.31-.233-.412-1.195-.909-.882-.815.512-1.675.772-2.688.492-1.27-.351-2.038-1.775-2.185-3.293ZM102.759,85.151c-.125.533.237.935.446,1.043.721.373,4.679-.444,4.677-3.902l-.007-10.256c-.581-.072-.98-.067-1.204.038-.141.066-.264.321-.311.715-.985-.935-2.282-1.221-3.716-.805-1.021.296-2.021,1.127-2.503,2.384-1.23,3.208-.167,7.278,2.808,7.873,1.355.271,2.499-.007,3.435-1.083.131.812.27,1.866-.266,2.676-.702,1.062-2.185,1.211-3.359,1.317ZM123.436,82.015l.081-6.466c.011-.871.68-1.667,1.223-2.007.728-.456,1.465-.373,2.353-.076.215-.198.413-1.131.091-1.335-1.254-.795-2.792-.043-3.581,1.118-.273-.433-.194-.765-.141-1.214l-1.42.002v10.023c.416.074.976.122,1.394-.045ZM136.769,80.009c.762-1.677.76-3.499.299-5.148-.565-2.018-2.282-3.177-4.284-3.066-1.827.101-3.349,1.369-3.796,3.34-.741,3.269.3,6.732,3.355,7.146,1.838.249,3.599-.454,4.425-2.272ZM145.209,81.665c.946-.621,1.149-1.693.99-2.686-.129-.799-.723-1.627-1.643-2.045l-3.033-1.378c-.556-.252-.822-.769-.779-1.313.034-.43.354-.824.85-1.016,1.242-.48,2.367-.056,3.341.776.24.205,1.049-.532.866-.766-1.087-1.396-2.934-1.707-4.515-1.226-1.119.341-1.817,1.217-1.86,2.233-.044,1.046.453,1.953,1.446,2.434l3.274,1.584c.611.296.856.985.779,1.586-.071.552-.573.991-1.24,1.157-1.275.317-2.419-.287-3.281-1.247-.419.191-.648.423-.99.819,1.306,1.677,3.801,2.398,5.796,1.088ZM118.71,72.069l-1.387-.023-.01,6.517c-.002,1.585-1.066,2.57-2.541,2.526-1.294-.038-2.223-1.049-2.222-2.532l.002-6.495c-.519-.08-.89-.084-1.446.006l.094,6.916c.027,2.017,1.427,3.377,3.462,3.358.981-.009,1.861-.197,2.47-.973.142.454.283.695.481.732.3.056.679.032,1.104-.026l-.007-10.006Z" fill="#fdfdfd"/>
  <path d="M97.65,36.504c3.703,2.74,4.246,7.621,2.957,11.867-.89,2.471-2.686,4.259-5.129,5.19-1.818.732-3.721,1.032-5.712,1.036l-12.823.021V20.322s13.158.039,13.158.039c1.638.005,3.178.401,4.644.949,3.035,1.108,4.857,3.708,5.317,6.855.443,3.032-.193,6.022-2.412,8.338ZM93.497,29.885c.065-1.934-1.313-3.367-3.2-3.385l-7.203-.07v7.456s6.951-.044,6.951-.044c2.165-.014,3.668-1.694,3.453-3.956ZM92.214,48.073c1.681-.639,2.554-2.162,2.302-3.878.31-2.125-1.129-4.078-3.323-4.106l-8.099-.105v8.592s5.853,0,5.853,0c1.09-.023,2.176-.107,3.267-.503Z" fill="#010101"/>
  <path d="M111.628,46.854c2.815,3.023,7.23,2.962,10.075.05l4.377,4.267c-3.335,3.336-7.755,4.619-12.401,3.61-3.879-.842-7.463-3.674-9.185-7.702s-1.47-8.524.69-12.316c2.062-3.619,5.689-5.951,9.436-6.52,4.467-.678,8.618.814,11.68,3.986l-4.204,4.451c-1.708-1.761-3.689-2.747-6.12-2.532-2.088.184-4.184,1.38-5.37,3.459-1.679,2.943-1.378,6.671,1.021,9.247Z" fill="#020202"/>
  <path d="M55.41,33.608c2.042,1.469,3.792,1.29,3.538,2.707-.427.213-.85.499-1.271.745-1.863.155-3.553-.605-5.076-1.591-5.095-3.299-12.286-9.246-13.207-15.353-.4-2.648.799-5.157,2.952-6.486,2.266-1.399,5.083-1.293,7.261.319,2.055,1.521,2.981,4.163,2.356,6.828-1.145,4.881-.569,9.941,3.448,12.832Z" fill="#0369b6"/>
  <path d="M57.676,37.06c-4.153,2.425-8.382,4.797-12.24,7.76-2.814,2.161-4.121,5.036-4.179,8.516-.05,2.991-3.316,4.841-5.983,4.015-2.626-.813-4.083-3.755-2.956-6.441,1.944-4.634,7.915-8.809,12.51-11.068,2.74-1.347,5.307-2.703,7.772-4.373,1.523.987,3.213,1.746,5.076,1.591Z" fill="#f6032d"/>
  <polygon points="135.46 54.682 129.144 54.72 129.144 27.843 135.458 27.843 135.46 54.682"/>
  <path d="M58.948,36.315c.253-1.417-1.497-1.237-3.538-2.707,2.806-2.419,6.256-5.67,6.142-9.498-.063-2.114,1.162-3.951,2.848-4.643,1.972-.81,4.039-.272,5.324,1.084,4.9,5.167-5.113,12.932-10.776,15.763Z" fill="#f6022d"/>
  <path d="M55.798,51.287c-3.45,1.322-9.97,1.979-10.855-.222-1.25-3.106,3.133-5.937,6.083-7.84,1.683-1.086,3.428-1.952,5.43-2.293,2.037-.347,3.904.879,4.335,2.888.735,3.425-1.736,6.219-4.993,7.467Z" fill="#fdd604"/>
  <path d="M70.905,47.142c.403,1.764-.372,3.334-1.639,4.16-1.331.868-3.058.789-4.289-.095-1.322-.949-1.868-2.522-1.493-4.178.817-3.602-.226-7.202-3.497-8.233-.63-.199-.767-.724-.662-1.212.137-.632.832-.864,1.486-.53,3.73,1.905,9.171,6.05,10.094,10.087Z" fill="#068f36"/>
  <path d="M106.604,61.688c-4.845-1.243-9.283-2.061-14.167-2.085-4.931-.024-9.684.427-14.257,1.875-.098-.444-.161-.637-.142-.775.03-.22.238-.368.613-.461,8.463-2.11,17.359-2.312,25.918-.03,10.088,2.689,20.489,3.057,30.584.318.165.416.256.596.269,1.008-9.459,2.345-19.234,2.61-28.817.15Z" fill="#0a0a0a"/>
  <path d="M102.759,85.151c1.174-.107,2.657-.255,3.359-1.317.535-.81.397-1.863.266-2.676-.937,1.076-2.08,1.354-3.435,1.083-2.975-.595-4.038-4.665-2.808-7.873.482-1.258,1.483-2.089,2.503-2.384,1.435-.416,2.731-.13,3.716.805.046-.394.17-.649.311-.715.224-.105.623-.11,1.204-.038l.007,10.256c.002,3.458-3.956,4.275-4.677,3.902-.209-.108-.571-.511-.446-1.043ZM106.413,79.2c.067-1.654.2-3.125-.049-4.58-.189-1.106-1.81-1.674-2.684-1.557-1.131.153-2.011.877-2.325,2.044-.798,2.962.287,5.977,2.68,5.967.86-.004,2.331-.729,2.377-1.874Z" fill="#060606"/>
  <path d="M84.672,74.74c1.273.588,2.066,1.681,2.288,2.716.283,1.318.153,2.735-.88,3.663-2.363,2.124-6.38,1.464-7.918-1.432.297-.391.825-.541,1.377-.553.95,1.973,3.619,2.585,5.357,1.253.716-.549.843-1.495.706-2.32-.12-.721-.646-1.569-1.48-1.958l-3.632-1.695c-1.749-.816-2.554-2.93-1.512-4.639,1.411-2.314,6.337-2.292,7.391.384-.097.33-1.032.603-1.281.386-.863-1.041-2.054-1.381-3.402-1.119-.885.172-1.582.777-1.704,1.558-.133.848.3,1.728,1.126,2.109l3.564,1.646Z" fill="#0a0a0a"/>
  <path d="M90.928,77.638c.147,1.518.914,2.943,2.185,3.293,1.013.28,1.873.02,2.688-.492.497-.312,1.219.649.909.882-1.779,1.342-4.191,1.401-5.713-.132-2.54-2.558-1.942-8.122,1.377-9.165,1.662-.522,3.404-.167,4.452,1.225.923,1.225,1.057,2.807.921,4.363l-6.819.025ZM96.393,76.319c-.039-1.585-.52-2.432-1.486-3.036-1.029-.441-2.118-.257-2.952.45-.701.595-1.158,1.693-.995,2.66l5.433-.074Z" fill="#080808"/>
  <path d="M136.769,80.009c-.826,1.818-2.587,2.522-4.425,2.272-3.055-.414-4.097-3.877-3.355-7.146.447-1.971,1.969-3.238,3.796-3.34,2.002-.111,3.719,1.048,4.284,3.066.461,1.649.463,3.471-.299,5.148ZM135.663,75.112c-.347-1.239-1.296-2.02-2.482-2.074-1.099-.05-2.223.597-2.631,1.792-.482,1.413-.486,3.025-.002,4.428.424,1.228,1.495,1.887,2.657,1.826,2.488-.131,3.204-3.303,2.458-5.972Z" fill="#0a0a0a"/>
  <path d="M131.71,18.626c1.993-.369,3.601.927,3.938,2.605.377,1.883-.871,3.664-2.675,4.011-1.772.341-3.518-.775-3.924-2.533-.411-1.779.618-3.705,2.661-4.083Z" fill="#040404"/>
  <path d="M118.71,72.069l.007,10.006c-.425.057-.804.081-1.104.026-.199-.037-.339-.278-.481-.732-.609.776-1.489.964-2.47.973-2.035.019-3.435-1.341-3.462-3.358l-.094-6.916c.557-.09.927-.086,1.446-.006l-.002,6.495c0,1.483.928,2.495,2.222,2.532,1.475.043,2.539-.942,2.541-2.526l.01-6.517,1.387.023Z" fill="#080808"/>
  <path d="M145.209,81.665c-1.994,1.31-4.49.589-5.796-1.088.341-.395.57-.627.99-.819.862.96,2.006,1.564,3.281,1.247.667-.166,1.17-.605,1.24-1.157.077-.6-.168-1.29-.779-1.586l-3.274-1.584c-.993-.481-1.49-1.388-1.446-2.434.043-1.016.74-1.892,1.86-2.233,1.581-.481,3.428-.17,4.515,1.226.183.235-.626.971-.866.766-.975-.833-2.1-1.256-3.341-.776-.496.192-.816.586-.85,1.016-.043.544.224,1.06.779,1.313l3.033,1.378c.92.418,1.514,1.245,1.643,2.045.16.993-.044,2.065-.99,2.686Z" fill="#0a0a0a"/>
  <path d="M123.436,82.015c-.418.166-.978.118-1.393.045v-10.023s1.419-.002,1.419-.002c-.053.449-.132.781.141,1.214.789-1.162,2.326-1.913,3.581-1.118.322.204.124,1.137-.091,1.335-.888-.297-1.625-.38-2.353.076-.542.34-1.212,1.135-1.223,2.007l-.081,6.466Z" fill="#0a0a0a"/>
  <metadata>
    <sfw xmlns="http://ns.adobe.com/SaveForWeb/1.0/">
      <slices/>
      <sliceSourceBounds x="-1166.61" y="-1335.63" width="3345.68" height="1186.38" bottomLeftOrigin="true"/>
    </sfw>
  </metadata>
</svg>