<?xml version="1.0" encoding="UTF-8"?>
<svg id="Auto_CL" xmlns="http://www.w3.org/2000/svg" version="1.1" viewBox="0 0 200 100">
  <!-- Generator: Adobe Illustrator 30.3.0, SVG Export Plug-In . SVG Version: 2.1.3 Build 182)  -->
  <g id="LOGO_x5F_SURA">
    <path id="path20" d="M132.338,29.953c-.061.156,0,1.117.102,1.62.16.801.597,1.616,1.123,2.095.719.659,1.473,1.042,8.237,4.193,5.946,2.771,7.84,3.66,9.285,4.363.624.302,1.48.716,1.901.917.421.2,1.181.567,1.693.812.998.482,1.13.52,1.15.34.007-.051-.014-.105-.051-.139-.034-.027-1.87-1.182-4.083-2.557-9.061-5.647-11.457-7.127-14.542-8.981-1.324-.798-2.878-1.735-3.455-2.085-.933-.564-1.059-.632-1.191-.632-.105,0-.156.017-.17.054Z" fill="#006fff" fill-opacity=".991"/>
    <path id="path22" d="M131.449,36.439c-.051.204.16,1.199.356,1.691.17.421.441.808.865,1.226.557.553,1.069.879,1.785,1.148.176.065,2.141.594,4.361,1.178,9.798,2.567,15.835,4.163,18.255,4.825,1.201.329,1.354.35,1.371.197.007-.048-.01-.102-.034-.122-.088-.075-6.221-2.431-19.813-7.616-2.976-1.137-5.732-2.19-6.126-2.339-.801-.309-.984-.343-1.022-.187Z" fill="#006fff"/>
    <path id="path24" d="M48.492,39.24c-2.437.109-4.392.829-5.712,2.098-.93.896-1.476,1.959-1.67,3.246-.068.452-.068,1.609,0,2.088.18,1.26.652,2.204,1.558,3.11.859.859,1.924,1.474,3.438,1.983.333.109,1.738.499,3.122.862,1.385.367,2.613.699,2.732.744.882.333,1.432.781,1.751,1.43.214.431.288.795.268,1.294-.02.482-.078.716-.265,1.1-.356.723-1.157,1.229-2.236,1.409-.594.098-1.32.119-5.447.139-2.257.014-4.134.031-4.164.037-.058.017-.061.139-.061,1.952v1.932h4.269c4.28,0,5.24-.02,5.997-.119,3.713-.486,6.082-2.553,6.435-5.62.051-.441.02-1.738-.051-2.224-.204-1.368-.591-2.231-1.374-3.046-.716-.747-1.578-1.26-2.854-1.694-.272-.095-1.802-.53-3.404-.968-1.605-.438-3.048-.845-3.207-.903-.611-.214-1.195-.56-1.453-.856-.431-.492-.635-1.178-.56-1.871.119-1.049.675-1.715,1.683-2.017.607-.18.597-.18,3.886-.207,3.289-.027,3.227-.024,3.903-.207,1.32-.36,2.145-1.182,2.444-2.448.075-.319.136-.801.136-1.09v-.194l-4.3.007c-2.369,0-4.554.017-4.863.031Z" fill="#006fff"/>
    <path id="path26" d="M62.848,48.095c0,7.698.007,8.947.051,9.283.166,1.28.672,2.306,1.578,3.216,1.313,1.321,3.166,2.081,5.634,2.312.591.054,2.067.044,2.664-.02,3.343-.353,5.817-1.752,6.896-3.898.18-.363.353-.866.458-1.348l.078-.357v-7.249c0-6.805-.003-7.273-.061-7.633-.119-.754-.316-1.348-.584-1.759-.183-.278-.672-.754-.933-.907-.57-.329-1.476-.533-2.399-.533h-.214v8.282c0,9.086.014,8.553-.204,9.141-.55,1.504-2.27,2.373-4.544,2.295-.937-.031-1.66-.19-2.335-.516-.455-.217-.635-.336-.923-.608-.417-.401-.713-.944-.876-1.616-.044-.194-.054-1.005-.081-6.723-.017-4.353-.041-6.638-.064-6.91-.095-1.005-.414-1.755-.984-2.326-.587-.591-1.3-.883-2.393-.985-.204-.017-.462-.034-.567-.034h-.197v8.893Z" fill="#006fff"/>
    <path id="path28" d="M93.324,39.24c-1.799.129-3.421.696-4.656,1.63-.38.289-1.011.927-1.307,1.321-.879,1.182-1.381,2.53-1.629,4.38-.051.384-.058,1.148-.068,8.258l-.014,7.837h4.212l.01-7.769c.014-8.519-.003-7.827.21-8.614.407-1.504,1.466-2.553,2.956-2.934.614-.156.859-.177,2.355-.207,1.49-.027,1.727-.048,2.308-.2,1.341-.353,2.094-1.216,2.304-2.635.017-.132.044-.431.058-.672l.024-.431-3.187.003c-1.751.003-3.363.02-3.577.034Z" fill="#006fff"/>
    <path id="path30" d="M110.106,39.226c-.709.037-1.789.227-2.477.435-4.113,1.243-6.889,4.733-7.548,9.494-.139,1.019-.193,2.241-.139,3.273.061,1.226.173,2.041.424,3.056.516,2.102,1.395,3.721,2.746,5.059,1.463,1.45,3.166,2.238,5.399,2.502.553.065,1.999.054,2.528-.02,1.089-.149,1.972-.411,2.813-.832,1.042-.526,2.016-1.355,2.644-2.258.136-.19.143-.194.173-.119.017.044.058.204.088.353.176.808.58,1.457,1.157,1.854.546.377,1.358.57,2.569.621l.431.02v-23.463l-5.301.007c-2.919.003-5.396.01-5.508.017ZM116.36,43.114c.054.054.058,10.183.003,10.682-.214,1.976-1.113,3.599-2.508,4.53-2.135,1.419-5.427,1.192-7.229-.506-1.055-.991-1.741-2.587-1.992-4.628-.085-.699-.085-2.621,0-3.328.292-2.353.964-3.969,2.145-5.144.998-.995,2.26-1.528,3.801-1.609.261-.017,1.66-.031,3.105-.031,2.009-.007,2.644.003,2.674.034Z" fill="#006fff"/>
    <path id="path32" d="M133.326,43.505c-.051.048-.02.326.058.526.411,1.1,1.293,2.075,2.311,2.553.292.139.696.275.899.306.085.01,4.263.289,9.282.615,5.023.329,10.283.672,11.688.764,1.408.095,2.583.163,2.61.153s.041-.058.034-.126c-.01-.095-.027-.112-.132-.136-.068-.014-2.413-.428-5.209-.924-15.289-2.706-21.255-3.755-21.381-3.755-.075,0-.149.01-.16.024Z" fill="#006fff"/>
    <path id="path34" d="M147.946,49.634c-4.293.014-8.104.037-8.467.054l-.662.024-.01.126c-.034.39.743,1.399,1.432,1.861.492.329.974.496,1.531.53.329.02-.445.126,12.292-1.667,5.352-.754,5.104-.716,5.142-.771.014-.024.024-.075.02-.112-.01-.068-.037-.068-1.741-.071-.95,0-5.243.01-9.536.027Z" fill="#006fff"/>
    <path id="path36" d="M157.567,51.277c-.421.119-3.014.791-6.143,1.589-2.545.649-4.707,1.209-6.849,1.786-.492.129-.899.238-.906.238-.044,0-.119.122-.119.194,0,.126.55,1.002.781,1.246.292.309.377.343.882.343.36,0,.462-.014.662-.081.764-.261,10.772-4.485,11.888-5.019.309-.146.316-.153.305-.258-.01-.095-.024-.109-.112-.115-.054-.003-.231.031-.39.078Z" fill="#006fff"/>
    <path id="path38" d="M155.345,54.15c-2.118,1.294-5.722,3.457-6.957,4.17-1.68.971-2.257,1.324-2.284,1.385-.024.065.112,1.29.166,1.477.017.071.088.19.156.265.115.129.126.132.339.132.275,0,.485-.095.882-.394.37-.278,1.826-1.484,5.858-4.845,2.566-2.139,3.248-2.723,3.248-2.784,0-.092-.061-.16-.132-.156-.031,0-.604.34-1.276.75Z" fill="#006fff" fill-opacity=".89"/>
    <path id="path40" d="M152.694,59.155c-.227.173-.859.706-3.407,2.883-1.205,1.029-2.325,1.983-2.488,2.122-.367.309-.445.458-.614,1.137-.064.265-.204.727-.309,1.032-.214.625-.224.727-.064.744.092.01.139-.027.424-.323.696-.73,4.432-4.832,6-6.591.703-.791.767-.873.767-.985,0-.177-.095-.183-.309-.02Z" fill="#006fff"/>
    <path id="path42" d="M143.382,63.365c-1.612.55-4.436,1.175-7.958,1.759-2.667.445-4.076.604-6.821.767-2.108.126-1.951.105-1.951.282,0,.095.034.149.214.319.533.513,1.3.859,2.25,1.015.448.075,1.744.085,2.355.02,1.398-.153,2.987-.479,4.955-1.025,1.782-.492,3.682-1.175,5.42-1.946.631-.282,1.812-.866,2.175-1.076.166-.095.18-.115.17-.214-.007-.088-.027-.109-.095-.112-.048-.003-.367.092-.713.211Z" fill="#006fff"/>
    <path id="path44" d="M144.111,64.757c-.288.2-.889.553-1.476.866-2.756,1.474-7.171,2.896-11.196,3.616-.363.065-.679.132-.706.153-.024.02-.044.081-.044.132,0,.126.163.261.529.441,1.293.642,3.76.441,6.071-.492,2.647-1.073,5.108-2.54,6.496-3.871.506-.486.682-.706.682-.852,0-.105-.01-.115-.092-.112-.054,0-.17.054-.265.119Z" fill="#006fff"/>
    <path id="path46" d="M143.701,67.321c-.129.146-.896.767-1.259,1.022-1.12.788-2.549,1.514-3.998,2.034-.536.194-.543.197-.553.302-.017.149.031.19.346.295.255.085.319.092.869.092.665.003.916-.037,1.527-.238.421-.139,1.1-.458,1.388-.655.614-.418,1.086-.954,1.497-1.705.241-.435.475-.981.475-1.1,0-.112-.007-.119-.112-.119-.075,0-.139.027-.18.071Z" fill="#006fff"/>
  </g>
  <metadata>
    <sfw xmlns="http://ns.adobe.com/SaveForWeb/1.0/">
      <slices/>
      <sliceSourceBounds x="-1166.61" y="-1335.63" width="3345.68" height="1186.38" bottomLeftOrigin="true"/>
    </sfw>
  </metadata>
</svg>