<?xml version="1.0" encoding="UTF-8"?>
<svg id="Auto_CL" xmlns="http://www.w3.org/2000/svg" version="1.1" viewBox="0 0 200 100">
  <!-- Generator: Adobe Illustrator 30.3.0, SVG Export Plug-In . SVG Version: 2.1.3 Build 182)  -->
  <path d="M32.44,68.374c3.639-4.539,7.146-8.913,10.618-13.245.432-.183.824-.109,1.205-.11,5.232-.005,10.465-.011,15.697.006.788.003,1.515-.111,2.238-.445,1.112-.515,2.254-.967,3.391-1.427.338-.137.615-.306.785-.646,1.425-2.852,2.857-5.7,4.342-8.661-4.236-2.513-8.446-5.011-12.64-7.5-.407-1.534-.801-3.02-1.19-4.483-2.623-1.153-5.181-2.298-7.758-3.395-.585-.249-.969-.604-1.284-1.148-1.352-2.337-2.74-4.654-4.124-6.973-.177-.297-.292-.643-.607-.87-3.5,3.481-7,6.962-10.596,10.538v-10.54c.207-.244.51-.135.773-.132,3.261.047,6.524.024,9.784.04,2.694.013,5.395-.031,8.092-.037,8.159-.017,14.544,3.512,19.306,9.994,3.843,5.23,5.334,11.175,4.514,17.61-1.458,11.44-10.385,19.614-20.486,21.108-1.289.191-2.581.305-3.88.308-5.829.013-11.659.008-17.488.009-.139,0-.279,0-.693,0Z" fill="#e50024"/>
  <path d="M133.655,63.224c0-12.926,0-25.841,0-38.705.164-.222.353-.181.519-.181,4.81.003,9.621-.024,14.431.022,9.418.091,17.586,7.439,18.794,16.935,1.274,10.019-5.139,19.303-14.984,21.586-1.3.301-2.626.477-3.964.481-4.74.013-9.481.01-14.221.009-.168,0-.352.048-.576-.146ZM142.155,32.974c0,7.239,0,14.48,0,21.812,1.873,0,3.691.008,5.51-.004.701-.005,1.412.011,2.1-.098,6.217-.986,10.374-7.057,8.949-13.201-1.027-4.427-3.842-7.295-8.261-8.322-2.699-.627-5.498-.361-8.297-.186Z" fill="#e50024"/>
  <path d="M88.868,24.381c8.151,0,16.253,0,24.422,0v8.428c-1.302.106-2.622.034-3.938.047-1.335.012-2.669.003-4.004.003-1.3,0-2.599,0-3.899,0-1.327,0-2.655,0-4.047,0v6.673c4.711,0,9.434,0,14.223,0v8.59c-4.735,0-9.457,0-14.277,0,0,5.121,0,10.125,0,15.191-2.861,0-5.621,0-8.387,0-.222-.734-.323-36.279-.093-38.93Z" fill="#e50024"/>
  <path d="M127.442,63.33h-8.318c0-12.983,0-25.924,0-38.941,2.749,0,5.503,0,8.266,0,.185.699.25,37.362.052,38.941Z" fill="#e50024"/>
  <path d="M115.983,80.573v-5.165c.979.016,1.908-.111,2.828.183,1.162.371,1.754,1.18,1.748,2.427-.006,1.215-.635,2.079-1.793,2.399-.882.244-1.785.247-2.783.156ZM117.159,79.585c.916-.007,1.719-.048,2.087-.875.26-.585.257-1.251-.221-1.768-.523-.566-1.181-.619-1.867-.395v3.037Z" fill="#e50024"/>
  <path d="M80.451,80.67c-1.559-.002-2.701-1.166-2.679-2.731.022-1.518,1.149-2.61,2.689-2.603,1.534.006,2.666,1.106,2.694,2.616.028,1.538-1.149,2.72-2.704,2.718ZM80.506,79.616c.872-.029,1.528-.774,1.492-1.695-.036-.927-.735-1.571-1.647-1.52-.821.046-1.478.778-1.461,1.625.018.892.756,1.619,1.617,1.59Z" fill="#e50024"/>
  <path d="M60.678,80.172c-1.614.801-3.128.598-4.021-.479-.766-.923-.785-2.347-.044-3.314.832-1.087,2.301-1.343,3.795-.66.117.153.089.333.087.505-.001.171-.024.342-.039.546-.47-.141-.869-.357-1.328-.38-1.14-.059-1.883.571-1.884,1.623,0,1.013.678,1.637,1.775,1.623.132-.002.264-.052.344-.069.205-.233.119-.445.132-.622-.216-.276-.559-.095-.761-.229-.149-.28-.108-.517-.039-.8.595-.201,1.211-.083,1.864-.071.197.379.1.768.117,1.138.017.383.004.767.004,1.192Z" fill="#e50024"/>
  <path d="M96.277,75.443c.706,0,1.416-.078,2.103.015,1.832.247,2.748,1.729,2.199,3.425-.291.898-.941,1.361-1.81,1.569-.823.197-1.659.204-2.489.132-.245-.875-.238-4.384-.003-5.141ZM97.269,79.611c.904-.052,1.722-.047,2.12-.874.265-.549.263-1.183-.131-1.702-.513-.676-1.224-.669-1.99-.527v3.103Z" fill="#e50024"/>
  <path d="M74.059,78.462c.454.713.865,1.358,1.317,2.069-.458.124-.822.094-1.168.034-.694-.582-.837-1.61-1.746-2.12-.288.754-.035,1.432-.211,2.051-.317.173-.615.145-.986.025v-5.038c.775-.156,1.574-.129,2.361-.017.654.093,1.218.403,1.37,1.122.143.675-.062,1.245-.652,1.647-.086.059-.164.13-.285.226ZM72.366,77.613c.406.132.739.097,1.07-.017.254-.088.404-.255.406-.53.003-.319-.159-.532-.466-.589-.33-.061-.67-.103-.997.021-.103.382-.086.717-.013,1.116Z" fill="#e50024"/>
  <path d="M153.156,77.831c-.677-.84-.712-1.449-.12-2.018.655-.63,2.059-.63,2.711-.001.596.575.561,1.172-.164,2.072.155.13.351.24.472.406.483.664.361,1.451-.279,1.952-.734.575-2.016.576-2.758.003-.601-.463-.759-1.243-.354-1.873.13-.203.327-.362.494-.541ZM154.365,78.335c-.435.011-.731.304-.717.709.013.391.342.668.775.654.439-.015.736-.31.716-.712-.019-.402-.33-.662-.775-.651ZM155.093,76.913c-.597-.881-.841-.876-1.361-.027.532.791.689.8,1.361.027Z" fill="#e50024"/>
  <path d="M142.251,77.917c.127.098.283.19.402.316.352.371.368.839.243,1.284-.206.733-.805,1.038-1.496,1.128-.841.109-1.622-.048-2.122-.825-.353-.547-.227-1.137.325-1.798.045-.053.085-.11.126-.166-.6-.914-.593-1.611.023-2.119.674-.557,2.021-.518,2.632.076.564.548.539,1.162-.133,2.105ZM141.015,78.337c-.424.004-.754.312-.746.695.008.377.352.671.776.662.421-.008.766-.324.751-.688-.015-.365-.374-.673-.78-.669ZM141.664,76.916c.016-.381-.206-.572-.545-.636-.362-.068-.716.206-.736.55-.022.385.225.567.55.64.347.078.708-.215.732-.554Z" fill="#e50024"/>
  <path d="M149.622,77.962c.035.531-.053,1.051-.24,1.54-.272.713-.798,1.127-1.581,1.166-.784.038-1.448-.341-1.727-1.099-.384-1.046-.373-2.128.009-3.173.269-.734.878-1.066,1.643-1.068.777-.001,1.334.392,1.63,1.099.202.483.294,1.003.265,1.535ZM148.469,77.999c-.039-.354-.048-.741-.134-1.11-.065-.279-.27-.486-.598-.49-.316-.004-.529.151-.625.449-.241.75-.24,1.503-.015,2.257.088.293.267.496.583.508.373.014.585-.233.663-.552.081-.334.084-.687.125-1.062Z" fill="#e50024"/>
  <path d="M126.184,77.466c.144.302.08.539.064.787-.519.23-1.064.002-1.626.187-.117.341-.089.701-.006,1.137h1.86c.271.346.216.637.087.988-1.029.079-2.063.083-3.151-.007v-5.105c1.056-.099,2.059-.064,3.039-.024.214.297.159.567.075.896-.577.231-1.223-.005-1.837.156-.212.232-.153.496-.063.81.474.225,1.024-.007,1.558.176Z" fill="#e50024"/>
  <path d="M103.589,75.426h3.005c.21.308.161.605.012.976h-1.63c-.413.29-.213.572-.252.822.523.324,1.079.045,1.597.238.231.213.087.498.117.769-.533.292-1.131-.023-1.648.221-.14.349-.115.686-.012,1.059.624.231,1.308-.029,1.944.163.168.275.118.54.015.874h-3.148c0-1.689,0-3.352,0-5.122Z" fill="#e50024"/>
  <path d="M110.722,76.571c-.133.437.09.617.423.735.362.128.732.241,1.077.405.667.318.991.858.912,1.497-.085.692-.465,1.162-1.139,1.357-.772.223-1.516.116-2.23-.225-.206-.341-.143-.679-.066-1.058.55.079,1.031.421,1.601.363.464-.047.73-.218.596-.766-.388-.428-1.001-.411-1.489-.664-.802-.415-1.109-1.108-.805-1.904.207-.541.621-.831,1.176-.923.706-.118,1.391-.061,2.021.299.157.31.125.617.054.996-.711-.041-1.425-.66-2.132-.112Z" fill="#e50024"/>
  <path d="M64.764,75.474c0,.751-.008,1.447.003,2.142.006.349.016.703.079,1.044.134.729.464.993,1.129.962.635-.029.99-.353,1.041-1.079.051-.732.014-1.47.029-2.206.006-.274-.062-.557.084-.86.274-.158.575-.037.839-.059.069.108.136.164.137.22.005,1.015.044,2.032-.011,3.045-.068,1.265-.842,1.954-2.117,1.986-1.348.034-2.17-.64-2.299-1.919-.046-.451-.027-.91-.03-1.365-.004-.624-.001-1.248-.001-1.847.365-.206.667-.145,1.115-.065Z" fill="#e50024"/>
  <path d="M89.113,75.665c.096.376.112.68-.007,1.012-.685-.076-1.358-.632-2.041-.116-.121.442.079.635.423.752.364.125.731.247,1.082.404.606.273.902.751.871,1.424-.032.686-.385,1.168-1.075,1.401-.77.26-1.516.134-2.248-.184-.211-.334-.144-.673-.071-1.059.77.1,1.603.803,2.28-.087-.115-.474-.403-.579-.715-.678-.333-.105-.668-.221-.977-.381-.628-.325-.896-.824-.813-1.453.087-.659.465-1.079,1.093-1.279.605-.192,1.22-.126,2.2.242Z" fill="#e50024"/>
  <path d="M50.221,75.429h2.987c.197.311.158.602.011.991h-1.77c-.225.352-.21.607-.043.884.485.203,1.033-.018,1.521.153.206.267.176.525.066.818-.499.19-1.037.002-1.578.136-.24.329-.124.698-.096,1.106.674.193,1.348.001,1.984.131.189.316.178.606-.026.921h-3.057c0-1.708,0-3.371,0-5.14Z" fill="#e50024"/>
  <path d="M47.005,75.693c.075.364.145.669-.067.954-.664-.059-1.306-.594-1.971-.119-.174.429.012.638.351.766.391.148.794.271,1.174.443.604.275.904.77.849,1.43-.053.638-.359,1.119-.999,1.345-.842.297-1.638.175-2.405-.188-.121-.386-.126-.724.003-1.073.536.164,1.035.448,1.617.389.302-.03.554-.115.603-.461.042-.299-.16-.457-.39-.554-.385-.162-.798-.262-1.176-.438-.671-.314-.98-.867-.892-1.501.097-.695.574-1.169,1.314-1.305.599-.11,1.179-.024,1.988.31Z" fill="#e50024"/>
  <path d="M133.418,76.112c.67-.283,1.313-.545,2.061-.721v5.124c-.347.141-.65.123-1.007.028-.167-1.161.01-2.349-.096-3.476-.331-.358-.624.112-.921-.048-.154-.259-.091-.534-.037-.907Z" fill="#e50024"/>
  <metadata>
    <sfw xmlns="http://ns.adobe.com/SaveForWeb/1.0/">
      <slices/>
      <sliceSourceBounds x="-1166.61" y="-1335.63" width="3345.68" height="1186.38" bottomLeftOrigin="true"/>
    </sfw>
  </metadata>
</svg>