<?xml version="1.0" encoding="UTF-8"?>
<svg id="Auto_CL" xmlns="http://www.w3.org/2000/svg" version="1.1" viewBox="0 0 200 100">
  <!-- Generator: Adobe Illustrator 30.3.0, SVG Export Plug-In . SVG Version: 2.1.3 Build 182)  -->
  <path d="M79.797,42.296c-4.472,0-8.11,3.543-8.11,7.902s3.638,7.977,8.11,7.977,8.085-3.581,8.085-7.977-3.626-7.902-8.085-7.902h0ZM84.162,50.198c0,2.602-1.914,4.642-4.364,4.642s-4.39-2.04-4.39-4.642,1.926-4.567,4.39-4.567,4.364,2.009,4.364,4.567ZM124.667,42.296c-4.472,0-8.11,3.543-8.11,7.902s3.638,7.977,8.11,7.977,8.085-3.581,8.085-7.977-3.626-7.902-8.085-7.902h0ZM129.032,50.198c0,2.602-1.914,4.642-4.364,4.642s-4.39-2.04-4.39-4.642,1.926-4.567,4.39-4.567,4.364,2.009,4.364,4.567ZM170.946,42.296c-4.472,0-8.11,3.543-8.11,7.902s3.638,7.977,8.11,7.977,8.085-3.581,8.085-7.977-3.625-7.902-8.085-7.902h0ZM175.311,50.198c0,2.602-1.914,4.642-4.364,4.642s-4.39-2.04-4.39-4.642,1.926-4.567,4.39-4.567,4.364,2.009,4.364,4.567ZM70.525,53.855c.088.051.139.145.139.253v2.88c0,.139-.082.259-.202.316-.221.101-.657.284-1.017.398-1.023.316-2.16.474-3.392.474-4.522,0-7.927-3.505-7.927-7.952s3.562-7.927,8.11-7.927c1.693,0,3,.284,4.238.928.12.063.196.196.183.335l-.221,2.823c-.006.101-.069.189-.158.24-.088.044-.196.044-.284-.006-1.093-.651-2.274-.979-3.505-.979-2.691,0-4.642,1.876-4.642,4.592s1.92,4.617,4.674,4.617c1.086,0,2.015-.208,3.095-.695.133-.063.423-.202.638-.309.095-.044.196-.038.284.013h-.013ZM155.44,53.855c.088.051.139.145.139.253v2.88c0,.139-.082.259-.202.316-.221.101-.657.284-1.017.398-1.023.316-2.16.474-3.392.474-4.522,0-7.927-3.505-7.927-7.952s3.562-7.927,8.11-7.927c1.693,0,3,.284,4.238.928.12.063.196.196.183.335l-.221,2.823c-.006.101-.069.189-.158.24-.088.044-.196.044-.284-.006-1.093-.651-2.274-.979-3.505-.979-2.691,0-4.642,1.876-4.642,4.592s1.92,4.617,4.674,4.617c1.086,0,2.015-.208,3.095-.695.133-.063.423-.202.638-.309.095-.044.196-.038.284.013h-.013ZM97.584,42.296c3.632,0,5.798,2.552,5.798,6.828v8.432c0,.133-.107.24-.24.24h-3.158c-.133,0-.24-.107-.24-.24v-8.072c0-2.413-1.162-3.853-3.108-3.853-2.122,0-3.385,1.465-3.385,3.929v7.996c0,.133-.107.24-.24.24h-3.158c-.133,0-.24-.107-.24-.24v-14.628c0-.133.107-.24.24-.24h3.032c.133,0,.24.107.24.24v1.225c1.086-1.2,2.665-1.857,4.466-1.857h-.006ZM114.334,50.621h0c.815.853,1.213,1.806,1.213,2.912,0,1.402-.594,2.59-1.718,3.417-1.086.802-2.602,1.225-4.39,1.225-1.307,0-3.543-.594-3.979-.714-.107-.025-.177-.126-.177-.234v-2.71c0-.076.038-.145.095-.196s.139-.057.215-.038c.587.171,2.59.733,3.619.733,2.343,0,2.646-.752,2.646-1.409,0-.872-1.105-1.446-2.388-2.11-1.819-.935-4.08-2.116-4.08-4.743s2.324-4.466,5.647-4.466c1.566,0,2.773.221,3.79.701.088.044.145.139.139.24l-.202,2.571c-.006.076-.051.145-.114.183-.063.038-.145.051-.215.019-.903-.36-2.021-.562-3.139-.562-1.44,0-2.236.455-2.236,1.181s1.055,1.295,2.268,1.945c1.011.543,2.16,1.162,3.007,2.04h0v.013ZM157.954,42.681h3.158c.133,0,.24.107.24.24v14.628c0,.133-.107.24-.24.24h-3.158c-.133,0-.24-.107-.24-.24v-14.628c0-.133.107-.24.24-.24ZM142.637,42.397c.069,0,.133.025.177.076.044.051.069.12.063.183l-.24,3.082c0,.063-.038.126-.088.171s-.114.063-.183.051c-.278-.032-.543-.051-.777-.051-1.623,0-3.36.935-3.36,3.569v8.072c0,.133-.107.24-.24.24h-3.158c-.133,0-.24-.107-.24-.24v-14.628c0-.133.107-.24.24-.24h3.032c.133,0,.24.107.24.24v1.295c1.08-1.162,2.64-1.787,4.529-1.813h0l.006-.006ZM48.134,34.792c.253-.013.455.202.436.448l-2.343,29.326c-.025.284-.322.461-.581.347-1.333-.587-2.691-1.112-3.986-1.478-.189-.057-.322-.234-.303-.436l1.775-22.069c.019-.253-.189-.467-.442-.448-4.68.335-8.855,1.743-12.329,3.866-.133.082-.297,0-.316-.152l-.114-.998c-.025-.208.044-.417.196-.568,3.998-4.017,10.58-7.428,18.008-7.845h0v.006ZM26.324,50.109c-.025-.227.057-.448.227-.6,3.322-2.937,7.984-5.35,12.917-6.278.272-.051.518.171.493.442l-.253,3.127c-.013.133-.12.24-.253.253-5.066.486-9.329,2.16-12.677,4.364-.133.082-.303,0-.322-.152l-.133-1.162h0v.006ZM39.437,50.191l-.316,3.897c-.013.145-.133.259-.284.253-5.122-.114-10.599,1.358-14.761,3.802-.133.076-.297,0-.309-.152l-.158-1.371c-.025-.234.063-.467.246-.613,3.973-3.272,9.929-5.925,15.14-6.272.253-.019.467.196.448.448l-.006.006ZM38.824,57.764l-.373,4.642c-.013.158-.152.272-.309.253-5.552-.688-11.641.164-16.687,2.533-.126.063-.278-.019-.297-.164l-.183-1.566c-.032-.253.082-.499.284-.644,4.598-3.272,10.156-5.552,17.155-5.501.24,0,.43.208.411.448h0Z" fill="#003058"/>
  <metadata>
    <sfw xmlns="http://ns.adobe.com/SaveForWeb/1.0/">
      <slices/>
      <sliceSourceBounds x="-1166.61" y="-1335.63" width="3345.68" height="1186.38" bottomLeftOrigin="true"/>
    </sfw>
  </metadata>
</svg>