<?xml version="1.0" encoding="UTF-8"?>
<svg id="contenedores" xmlns="http://www.w3.org/2000/svg" viewBox="0 0 2007.101 531.308">
  <defs>
    
  </defs>
  <path class="cls-1" fill="#103AD9" d="M522.181,42.353h962.738c123.325,0,223.301,99.975,223.301,223.301h0c0,123.326-99.975,223.301-223.301,223.301h-962.738c-123.326,0-223.301-99.975-223.301-223.301h0c0-123.326,99.975-223.301,223.301-223.301Z"></path>
  <g>
    <path class="cls-2" fill="#FFFFFF" d="M724.332,221.973c-36.741,0-66.524,29.851-66.524,66.672s29.783,66.671,66.524,66.671,66.522-29.85,66.522-66.671-29.783-66.672-66.522-66.672ZM724.332,321.849c-18.268,0-33.13-14.895-33.13-33.204s14.862-33.204,33.13-33.204,33.13,14.895,33.13,33.204-14.862,33.204-33.13,33.204Z"></path>
    <path class="cls-2" fill="#FFFFFF" d="M1388.042,221.974h-11.038c-36.738,0-66.521,29.85-66.521,66.671,0,.081.003.163.003.246h-.003v59.664c0,3.735,3.02,6.763,6.747,6.763h19.898c3.727,0,6.747-3.028,6.747-6.763v-59.909c0-18.31,14.861-33.204,33.129-33.204h11.038c3.727,0,6.747-3.028,6.747-6.763v-19.943c0-3.735-3.02-6.762-6.747-6.762Z"></path>
    <path class="cls-2" fill="#FFFFFF" d="M556.323,208.544c25.71-3.668,48.77,10.05,59.205,31.114,1.134,2.289,3.532,3.672,6.082,3.672h21.524c4.613,0,7.968-4.572,6.412-8.925-12.664-35.438-46.764-60.648-86.648-59.905-46.517.866-85.427,38.079-88.314,84.619-3.26,52.552,38.302,96.19,90.031,96.19,39.143,0,72.448-24.993,84.93-59.921,1.556-4.352-1.798-8.926-6.412-8.926h-21.538c-2.542,0-4.932,1.38-6.063,3.662-9.296,18.775-28.624,31.717-50.918,31.717-33.471,0-60.273-29.155-56.454-63.458,2.827-25.393,22.923-46.239,48.163-49.838h.001Z"></path>
    <path class="cls-2" fill="#FFFFFF" d="M1287.709,222.786l-18.947,9.888c-10.426-6.8-22.86-10.764-36.225-10.764-36.741,0-66.525,29.851-66.525,66.672s29.784,66.671,66.525,66.671c13.664,0,26.362-4.134,36.927-11.215l17.995,10.245c5.177,2.948,11.6-.799,11.6-6.766v-117.828c0-5.842-6.182-9.6-11.35-6.902ZM1232.536,321.785c-18.268,0-33.13-14.895-33.13-33.203s14.862-33.204,33.13-33.204,33.13,14.894,33.13,33.204-14.862,33.203-33.13,33.203Z"></path>
    <path class="cls-2" fill="#FFFFFF" d="M1090.071,221.943c-13.665-.007-26.364,4.121-36.933,11.196l-17.99-10.254c-5.175-2.95-11.602.794-11.604,6.76l-.059,117.829c0,.076.012.148.015.224v41.671c0,3.734,3.021,6.763,6.748,6.763h19.898c3.727,0,6.748-3.028,6.748-6.763v-42.966c9.75,5.633,21.047,8.876,33.11,8.883,36.741.018,66.539-29.816,66.557-66.639.019-36.822-29.75-66.688-66.49-66.706ZM1090.02,321.817c-18.268-.009-33.122-14.911-33.113-33.219.01-18.308,14.879-33.196,33.147-33.187,18.268.01,33.122,14.912,33.113,33.22-.009,18.308-14.878,33.196-33.147,33.186Z"></path>
    <path class="cls-2" fill="#FFFFFF" d="M1520.201,222.786l-18.947,9.888c-10.428-6.8-22.855-10.764-36.219-10.764-36.744,0-66.529,29.851-66.529,66.672s29.785,66.671,66.529,66.671c13.655,0,26.361-4.134,36.923-11.215l17.998,10.245c5.169,2.948,11.6-.799,11.6-6.766v-117.828c0-5.842-6.185-9.6-11.355-6.902ZM1465.035,321.785c-18.277,0-33.138-14.895-33.138-33.203s14.861-33.204,33.138-33.204,33.127,14.894,33.127,33.204-14.861,33.203-33.127,33.203Z"></path>
    <path class="cls-2" fill="#FFFFFF" d="M951.746,221.808c-17.764-.304-33.84,7.33-45.198,19.531-10.941-11.768-26.428-19.237-43.636-19.531-34.19-.585-62.171,28.191-62.171,62.461v64.274c0,3.73,3.017,6.754,6.739,6.754h19.917c3.721,0,6.739-3.023,6.739-6.754v-65.493c0-15.783,13.2-28.534,29.116-27.747,14.891.737,26.324,13.612,26.324,28.553v64.687c0,.466.047.921.137,1.36.134.66.365,1.285.677,1.859.414.765.972,1.441,1.639,1.992.333.276.692.519,1.074.727.955.52,2.05.815,3.212.815h19.917c3.721,0,6.739-3.023,6.739-6.753v-65.494c0-15.783,13.2-28.533,29.117-27.746,14.89.736,26.323,13.611,26.323,28.552v64.687c0,3.73,3.017,6.754,6.739,6.754h19.917c3.721,0,6.739-3.023,6.739-6.754v-65.493c0-33.42-26.845-60.675-60.059-61.241h-.002Z"></path>
  </g>
</svg>