<?xml version="1.0" encoding="UTF-8"?>
<svg id="Auto_CL" xmlns="http://www.w3.org/2000/svg" xmlns:xlink="http://www.w3.org/1999/xlink" version="1.1" viewBox="0 0 200 100">
  <!-- Generator: Adobe Illustrator 30.3.0, SVG Export Plug-In . SVG Version: 2.1.3 Build 182)  -->
  <defs>
    <linearGradient id="linear-gradient" x1="40.226" y1="32.825" x2="40.226" y2="67.385" gradientUnits="userSpaceOnUse">
      <stop offset="0" stop-color="#16754c"/>
      <stop offset=".6" stop-color="#8ac9ad"/>
      <stop offset="1" stop-color="#009362"/>
    </linearGradient>
    <linearGradient id="linear-gradient1" x1="40.174" y1="25.499" x2="40.174" y2="64.333" gradientUnits="userSpaceOnUse">
      <stop offset="0" stop-color="#009362"/>
      <stop offset=".3" stop-color="#8ac9ad"/>
      <stop offset=".55" stop-color="#009362"/>
      <stop offset=".835" stop-color="#16754c"/>
      <stop offset=".89" stop-color="#117d54"/>
      <stop offset=".979" stop-color="#03966b"/>
      <stop offset="1" stop-color="#009d72"/>
    </linearGradient>
    <linearGradient id="linear-gradient2" x1="44.846" y1="44.015" x2="44.846" y2="37.208" gradientUnits="userSpaceOnUse">
      <stop offset="0" stop-color="#00a77e"/>
      <stop offset="1" stop-color="#009362"/>
    </linearGradient>
    <linearGradient id="linear-gradient3" x1="43.472" y1="44.062" x2="43.472" y2="41.684" xlink:href="#linear-gradient2"/>
    <linearGradient id="linear-gradient4" x1="52.198" y1="43.013" x2="52.198" y2="39.442" xlink:href="#linear-gradient2"/>
    <linearGradient id="linear-gradient5" x1="47.4" y1="55.898" x2="47.4" y2="42.129" xlink:href="#linear-gradient2"/>
    <linearGradient id="linear-gradient6" x1="28.89" y1="56.992" x2="28.89" y2="45.481" xlink:href="#linear-gradient2"/>
    <linearGradient id="linear-gradient7" x1="32.323" y1="57.732" x2="32.323" y2="53.277" xlink:href="#linear-gradient2"/>
    <linearGradient id="linear-gradient8" x1="29.283" y1="61.946" x2="29.283" y2="50.048" xlink:href="#linear-gradient2"/>
    <linearGradient id="linear-gradient9" x1="32.975" y1="60.208" x2="32.975" y2="58.161" xlink:href="#linear-gradient2"/>
    <linearGradient id="linear-gradient10" x1="31.017" y1="48.203" x2="31.017" y2="44.702" xlink:href="#linear-gradient2"/>
    <linearGradient id="linear-gradient11" x1="37.073" y1="47.267" x2="37.073" y2="42.559" xlink:href="#linear-gradient2"/>
    <linearGradient id="linear-gradient12" x1="38.992" y1="48.253" x2="38.992" y2="46.339" xlink:href="#linear-gradient2"/>
    <linearGradient id="linear-gradient13" x1="32.025" y1="56.688" x2="32.025" y2="44.683" xlink:href="#linear-gradient2"/>
    <linearGradient id="linear-gradient14" x1="34.897" y1="52.143" x2="34.897" y2="50.167" xlink:href="#linear-gradient2"/>
    <linearGradient id="linear-gradient15" x1="37.281" y1="60.977" x2="37.281" y2="56.563" xlink:href="#linear-gradient2"/>
    <linearGradient id="linear-gradient16" x1="42.191" y1="59.921" x2="42.191" y2="47.539" xlink:href="#linear-gradient2"/>
    <linearGradient id="linear-gradient17" x1="38.788" y1="62.334" x2="38.788" y2="53.87" xlink:href="#linear-gradient2"/>
  </defs>
  <g>
    <path d="M23.857,33.63v32.739h32.738v-32.739H23.857ZM31.55,61.497c-.866-.854-1.4-1.603-1.916-2.71-.961-.448-1.657-.854-2.517-1.38.613-.278,1.142-.458,1.889-.665-.233-1.313-.165-2.491.016-4.141.337,1.556.637,2.674,1.3,3.833.814-.154,1.509-.261,2.453-.402-.513.763-.828,1.356-1.104,2.118.921.86,1.757,1.362,2.918,1.792-1.22-.037-2.139-.202-3.213-.515-.083.764-.03,1.342.173,2.07ZM34.841,51.315c-.476-1.148-1.165-3.447-1.165-3.447-1.32.706-4.356,3.563-4.356,3.563,1.669-3.344,3.364-4.865,3.364-4.865-.584-.591-2.112-.885-3.23-.935.579-.237,2.07-.513,3.213-.567,1.146-.032,1.838.032,1.838.032,1.022-.806,2.573-1.486,3.107-1.565-.362.469-.781,1.345-.895,1.752,2.993.405,5.394,1.941,5.394,1.941-2.617-.464-3.995-.406-4.973-.319-.97.092-1.169.206-1.169.206-.706,1.547-1.129,4.203-1.129,4.203ZM41.212,60.829c-.36.072-.849.106-1.372.085-1.001.592-2.346,1.026-3.37,1.269.61-.388,1.142-.794,1.771-1.362-.629-.133-1.212-.319-1.816-.629.983,0,1.786-.106,2.793-.388.585-.656,1.04-1.218,1.568-1.934.023.502.047.878.089,1.324.966-.457,1.686-.891,2.522-1.475-.785.795-1.469,1.456-2.412,2.187.076.395.133.62.227.923ZM51.488,40.907c.336.898-.467,5.831-1.128,7.138-.024-2.064-.204-4.671-.977-5.803-2.02,1.187-2.639,1.287-4.836,2.603,1.279-1.389,1.724-1.979,2.515-3.141-2.025.107-4.968.351-7.07.816,1.83-.977,5.456-2.063,7.371-2.322-.444-.612-4.036-2.559-4.93-2.934,2.844.221,6.322,1.284,8.006,2.315.664-.207,1.353-.217,2.587-.327-.314.54-.327.853-1.538,1.655Z" fill="url(#linear-gradient)"/>
    <path d="M55.9,35.494c.014-.699-.516-1.287-1.149-1.287h-28.336c-.634,0-1.05.536-1.148,1.287,0,0-.818,4.297-.818,13.423s.818,15.104.818,15.104c.075.722.513,1.286,1.148,1.286h28.336c.633,0,1.136-.502,1.149-1.286,0,0-.316-6.997-.316-13.831s.316-14.696.316-14.696ZM31.55,61.497c-.866-.854-1.4-1.603-1.916-2.71-.961-.448-1.657-.854-2.517-1.38.613-.278,1.142-.458,1.889-.665-.233-1.313-.165-2.491.016-4.141.337,1.556.637,2.674,1.3,3.833.814-.154,1.509-.261,2.453-.402-.513.763-.828,1.356-1.104,2.118.921.86,1.757,1.362,2.918,1.792-1.22-.037-2.139-.202-3.213-.515-.083.764-.03,1.342.173,2.07ZM34.841,51.315c-.476-1.148-1.165-3.447-1.165-3.447-1.32.706-4.356,3.563-4.356,3.563,1.669-3.344,3.364-4.865,3.364-4.865-.584-.591-2.112-.885-3.23-.935.579-.237,2.07-.513,3.213-.567,1.146-.032,1.838.032,1.838.032,1.022-.806,2.573-1.486,3.107-1.565-.362.469-.781,1.345-.895,1.752,2.993.405,5.394,1.941,5.394,1.941-2.617-.464-3.995-.406-4.973-.319-.97.092-1.169.206-1.169.206-.706,1.547-1.129,4.203-1.129,4.203ZM41.212,60.829c-.36.072-.849.106-1.372.085-1.001.592-2.346,1.026-3.37,1.269.61-.388,1.142-.794,1.771-1.362-.629-.133-1.212-.319-1.816-.629.983,0,1.786-.106,2.793-.388.585-.656,1.04-1.218,1.568-1.934.023.502.047.878.089,1.324.966-.457,1.686-.891,2.522-1.475-.785.795-1.469,1.456-2.412,2.187.076.395.133.62.227.923ZM51.488,40.907c.336.898-.467,5.831-1.128,7.138-.024-2.064-.204-4.671-.977-5.803-2.02,1.187-2.639,1.287-4.836,2.603,1.279-1.389,1.724-1.979,2.515-3.141-2.025.107-4.968.351-7.07.816,1.83-.977,5.456-2.063,7.371-2.322-.444-.612-4.036-2.559-4.93-2.934,2.844.221,6.322,1.284,8.006,2.315.664-.207,1.353-.217,2.587-.327-.314.54-.327.853-1.538,1.655Z" fill="url(#linear-gradient1)"/>
    <g>
      <g>
        <path d="M47.363,40.197c-.444-.612-4.036-2.559-4.93-2.934l-.104.227c.82.344,3.902,2.004,4.748,2.755.093-.015.2-.037.286-.049Z" fill="url(#linear-gradient2)"/>
        <path d="M47.063,41.703c-2.025.107-4.968.351-7.07.816l-.111.226c2.089-.46,4.996-.702,7.025-.813.052-.076.102-.148.157-.229Z" fill="url(#linear-gradient3)"/>
        <path d="M51.488,40.907c.013.034.021.084.03.129,1.21-.874,1.389-1.565,1.389-1.565,0,0-.002,0-.003,0-.222.419-.38.748-1.417,1.435Z" fill="url(#linear-gradient4)"/>
        <path d="M49.383,42.242c-2.02,1.187-2.639,1.287-4.836,2.603.35-.38.634-.697.883-.986-.253.282-.537.591-.883.969l-.107.244c2.197-1.318,2.814-1.414,4.839-2.6.766,1.132.949,3.737.978,5.803.034-.067.068-.15.103-.236-.024-2.063-.205-4.666-.977-5.797Z" fill="url(#linear-gradient5)"/>
      </g>
      <g>
        <path d="M29.007,56.742c-.233-1.313-.165-2.491.016-4.141l-.104.23c-.17,1.565-.235,2.709-.039,3.948.044-.013.082-.025.128-.037Z" fill="url(#linear-gradient6)"/>
        <path d="M32.667,56.264l.109-.231c-.395.588-.672,1.076-.905,1.617.211-.455.458-.887.796-1.386Z" fill="url(#linear-gradient7)"/>
        <path d="M27.118,57.407l-.103.226c.854.526,1.549.929,2.515,1.38.516,1.11,1.05,1.858,1.915,2.713l.106-.228c-.866-.854-1.4-1.603-1.916-2.71-.961-.448-1.657-.854-2.517-1.38Z" fill="url(#linear-gradient8)"/>
        <path d="M31.377,59.428c-.01.089-.011.168-.017.252,1.034.296,1.939.455,3.127.491l.103-.228c-1.22-.037-2.139-.202-3.213-.515Z" fill="url(#linear-gradient9)"/>
      </g>
      <g>
        <path d="M32.684,46.566c-.584-.591-2.112-.885-3.23-.935l-.103.226c1.079.046,2.536.33,3.16.88.102-.102.173-.171.173-.171Z" fill="url(#linear-gradient10)"/>
        <path d="M36.717,45.284c.019.003.036.007.055.01.266-.728.552-1.292.656-1.486-.309.484-.616,1.137-.711,1.476Z" fill="url(#linear-gradient11)"/>
        <path d="M37.139,46.907c-.97.092-1.169.206-1.169.206-.033.073-.065.151-.098.228.04-.02.286-.126,1.162-.21.976-.087,2.353-.14,4.97.32l.107-.226c-2.617-.464-3.995-.406-4.973-.319Z" fill="url(#linear-gradient12)"/>
        <path d="M29.34,51.412c-.044.085-.088.158-.132.246,0,0,3.04-2.854,4.358-3.56,0,0,.689,2.297,1.169,3.447l.106-.23c-.476-1.148-1.165-3.447-1.165-3.447-1.271.68-4.125,3.346-4.336,3.544Z" fill="url(#linear-gradient13)"/>
        <path d="M34.841,51.315c.028-.155.067-.376.112-.624-.073.38-.112.624-.112.624Z" fill="url(#linear-gradient14)"/>
      </g>
      <g>
        <path d="M38.241,60.821c-.629-.133-1.212-.319-1.816-.629l-.104.228c.561.288,1.114.466,1.697.595.074-.065.146-.125.223-.194Z" fill="url(#linear-gradient15)"/>
        <path d="M40.985,59.906c.009.045.017.082.025.123.871-.689,1.53-1.328,2.279-2.08l.109-.23c-.785.795-1.469,1.456-2.412,2.187Z" fill="url(#linear-gradient16)"/>
        <path d="M36.471,62.182l-.106.226c1.022-.242,2.369-.677,3.372-1.269.522.024,1.01-.011,1.368-.082,0,0,.107-.234.107-.228-.36.072-.849.106-1.372.085-1.001.592-2.346,1.026-3.37,1.269Z" fill="url(#linear-gradient17)"/>
      </g>
    </g>
  </g>
  <g>
    <g>
      <path d="M64.788,38.151c.084,1.141.143,4,.143,5.049,0,.956-.01,4.175-.158,5.567l-.015.112h5.026c2.453.001,5.074-.777,5.074-2.971,0-1.376-.994-2.394-2.852-2.95,1.363-.365,2.291-1.314,2.291-2.405,0-1.785-2.055-2.467-3.974-2.507-.005,0-5.545-.003-5.545-.003l.009.106ZM68.67,39.254c2.098.005,2.878.44,2.878,1.588,0,.307-.094.575-.282.8-.4.482-1.2.73-2.194.68h-.048l-.579,1.523h.586c1.156-.036,2.161.328,2.674.962.241.291.359.622.359.978,0,1.207-1.051,1.821-3.119,1.821-.347,0-.91-.003-1.269-.025-.074-1.585-.078-3.744-.078-4.382,0-.757.032-2.442.083-3.88.231-.04.628-.073.988-.066Z" fill="#1d1d1b"/>
      <path d="M86.441,38.044h-2.435l.103,2.722c.044,1.36.087,2.746.178,4.089h0c-.166-.408-.302-.634-1.031-1.713-.023-.038-2.556-3.962-3.437-5.07l-.024-.028h-2.844l.008.104c.08,1.138.141,3.994.141,5.048,0,.957-.011,4.179-.158,5.57l-.012.113h2.523l-.006-.109c-.148-2.651-.148-5.319-.148-7.895v-.009c.085.311.206.592.604,1.184.041.068,4.377,6.409,4.597,6.786l.023.044h2.029l-.013-.113c-.15-1.393-.16-4.612-.16-5.57,0-1.054.061-3.911.142-5.048l.008-.104h-.089Z" fill="#1d1d1b"/>
      <path d="M89.377,38.146c.083,1.145.143,3.998.143,5.05,0,.957-.011,4.177-.16,5.566l-.01.111h3.009l-.013-.111c-.103-.991-.141-2.894-.154-4.363.124.005.552.028.552.028l.424.02c3.964,0,5.891-1.064,5.891-3.262,0-2.512-2.701-3.095-4.965-3.14l-4.723-.004.006.106ZM93.063,39.345c1.406-.025,2.399.268,2.873.853.214.269.324.599.324.987,0,1.568-1.751,1.898-3.221,1.898l-.596-.021s-.147-.021-.239-.035c-.008-.359-.013-.83-.013-1.37,0-.69.009-1.486.034-2.237.185-.039.513-.066.837-.074Z" fill="#1d1d1b"/>
      <path d="M104.803,38.146c.085,1.145.145,3.998.145,5.05,0,.957-.011,4.177-.161,5.566l-.011.111h3.011l-.015-.111c-.102-.991-.14-2.894-.154-4.363.126.005.55.028.55.028l.425.02c3.962,0,5.894-1.064,5.894-3.262,0-2.512-2.703-3.095-4.968-3.14l-4.719-.004.003.106ZM108.49,39.345c1.406-.025,2.402.268,2.877.853.212.269.323.599.323.987,0,1.568-1.75,1.898-3.224,1.898l-.596-.021s-.145-.021-.235-.035c-.012-.359-.019-.833-.019-1.375,0-.692.011-1.481.039-2.232.185-.039.512-.066.835-.074Z" fill="#1d1d1b"/>
      <path d="M118.516,38.048h-.052l-.019.059c-.56,1.54-4.158,9.418-4.72,10.627l-.07.148h2.58l.018-.061c.225-.739.514-1.578.853-2.486.096-.001,2.131-.032,2.131-.032l1.758.02s.31.011.386.011c.465,1.167.809,2.053.962,2.489l.02.059h2.988l-4.816-10.833h-2.018ZM119.249,41.24c.24.505.857,1.96,1.552,3.671-.105,0-.23.006-.23.006l-1.322.018s-1.369-.023-1.584-.029c.56-1.375,1.108-2.615,1.584-3.665Z" fill="#1d1d1b"/>
      <path d="M126.542,38.148c.078,1.138.143,3.996.143,5.048,0,.957-.011,4.177-.163,5.566l-.011.117h3.01l-.011-.113c-.149-1.396-.159-4.612-.159-5.57,0-.753.032-2.442.086-3.783.248-.033.582-.06.811-.066,1.407-.027,2.402.271,2.875.854.216.265.328.596.328.983,0,1.247-1.176,1.88-2.267,1.942-.359.016-.637-.033-.639-.033l-.206-.035.133.192c1.055,1.566,2.656,4.287,3.331,5.584l.024.047h3.224l-.097-.159c-.111-.177-2.223-3.28-3.12-4.609,0,0-.031-.044-.058-.079,1.64-.497,2.447-1.429,2.447-2.849,0-2.51-2.704-3.09-4.97-3.137l-4.721-.003.011.104Z" fill="#1d1d1b"/>
      <path d="M141.325,38.036h-2.886l.011.103c.082,1.147.142,4.005.142,5.053,0,.956-.011,4.171-.161,5.566l-.008.111h3.006l-.013-.111c-.147-1.395-.159-4.61-.159-5.566,0-1.05.062-3.907.142-5.053l.008-.103h-.083Z" fill="#1d1d1b"/>
      <path d="M144.139,38.151c.083,1.141.141,4,.141,5.049,0,.956-.01,4.175-.158,5.567l-.011.112h5.023c2.454.001,5.075-.777,5.075-2.971,0-1.376-.993-2.394-2.855-2.95,1.365-.365,2.294-1.314,2.294-2.405,0-1.785-2.05-2.467-3.974-2.507l-5.542-.003.007.106ZM148.021,39.254h0c2.096.005,2.879.44,2.879,1.588,0,.307-.099.575-.283.8-.396.482-1.197.73-2.192.68h-.052l-.575,1.523h.586c1.159-.036,2.154.328,2.672.962.24.291.358.622.358.978,0,1.207-1.048,1.821-3.113,1.821-.354,0-.919-.003-1.276-.025-.073-1.585-.076-3.744-.076-4.382,0-.759.032-2.446.087-3.88.226-.04.623-.073.985-.066Z" fill="#1d1d1b"/>
      <path d="M161.608,38.036h-2.025l-.021.059c-.592,1.637-4.406,9.945-4.722,10.629l-.069.146h2.584l.016-.063c.223-.739.515-1.576.853-2.486.09-.003,2.13-.032,2.13-.032l1.761.025s.306.004.385.007c.467,1.169.808,2.047.957,2.49l.021.058h2.989l-4.812-10.833h-.048ZM160.366,41.228c.241.508.853,1.958,1.555,3.665-.107.003-.228.011-.228.011l-1.328.021s-1.363-.03-1.58-.032c.555-1.378,1.108-2.61,1.582-3.665Z" fill="#1d1d1b"/>
      <path d="M167.305,40.848c0,1.905,1.916,2.673,3.601,3.362,1.314.528,2.666,1.081,2.666,1.985,0,.278-.065.499-.21.667-.309.373-.956.531-1.972.483-.99-.05-2.129-.372-3.386-.956l-.527-.242.004.419v1.947l.341.073.209.044c.634.152,1.833.438,3.048.438,3.171,0,5.066-1.26,5.066-3.363,0-1.951-1.955-2.734-3.68-3.421-1.276-.51-2.591-1.035-2.591-1.869,0-.244,0-.968,1.63-.968,1.221,0,2.415.496,3.059.765l.62.255-.004-.41v-1.968l-.616-.109c-.61-.119-1.633-.317-2.696-.317-2.728,0-4.561,1.28-4.561,3.186Z" fill="#1d1d1b"/>
    </g>
    <g>
      <path d="M72.321,54.541c-.523-.309-1.166-.563-1.997-.563-2.439,0-3.283,1.929-3.283,3.578,0,2.291,1.407,3.444,3.297,3.444,1.179,0,2.064-.55,2.855-1.246l.013,1.984c-.804.321-1.796.603-3.283.603-3.404,0-5.535-2.118-5.535-4.812,0-2.842,2.252-4.892,5.964-4.892.871,0,1.715.135,2.533.336l-.563,1.568Z" fill="#1d1d1b"/>
      <path d="M80.541,52.799c.362.966,3.444,7.827,4.168,9.381h-2.586c-.147-.427-.456-1.205-.858-2.211-.536-.013-1.085-.027-1.849-.027-.71,0-1.246.014-1.863.027-.295.791-.536,1.514-.751,2.211h-2.252c.536-1.165,3.685-8.001,4.181-9.381h1.81ZM80.769,58.737l-1.34-3.176c-.429.911-.898,1.982-1.394,3.176.402.013.951.027,1.394.027.429,0,.885-.014,1.34-.027Z" fill="#1d1d1b"/>
      <path d="M90.437,52.799c1.971,0,4.316.55,4.316,2.721,0,1.22-.711,2.037-2.118,2.466.2.402,2.466,3.846,2.841,4.194h-2.801c-.617-1.165-2.011-3.525-3.03-5.053.175.041.429.069.724.069.818,0,1.97-.591,1.97-1.676,0-1.353-1.634-1.596-2.452-1.596-.415,0-.817.028-1.019.055-.054,1.166-.08,2.626-.08,3.283,0,.832,0,3.605.147,4.918h-2.613c.134-1.298.161-2.975.161-4.918,0-1.635-.014-3.591-.134-4.464h4.087Z" fill="#1d1d1b"/>
      <path d="M100.855,52.799c3.953,0,5.468,2.078,5.468,4.678,0,2.68-1.474,4.703-5.615,4.703h-3.485c.134-1.259.134-2.987.134-4.905,0-.911,0-3.257-.134-4.476h3.632ZM99.756,53.979c-.054.616-.067,2.211-.067,3.296,0,1.368,0,2.44.053,3.713.134.013.349.039.67.039,2.265,0,3.445-.711,3.445-3.592,0-2.748-1.206-3.525-3.498-3.471l-.603.014Z" fill="#1d1d1b"/>
      <path d="M111.14,52.799c-.08,1.086-.135,3.551-.135,4.476,0,.819.014,3.606.135,4.905h-2.6c.134-1.298.147-4.086.147-4.905,0-.911-.054-3.391-.121-4.476h2.574Z" fill="#1d1d1b"/>
      <path d="M121.087,52.799v1.355c-.738-.041-2.574-.094-3.191-.094-.455,0-.964,0-1.488.039-.039.577-.053,1.301-.053,1.93,0,.309,0,.591.013.818l3.27-.054v1.461l-3.27-.134c.014,1.194.027,3.042.148,4.06h-2.627c.161-1.298.161-4.086.161-4.905,0-.911-.067-3.391-.148-4.476h7.185Z" fill="#1d1d1b"/>
    </g>
  </g>
  <metadata>
    <sfw xmlns="http://ns.adobe.com/SaveForWeb/1.0/">
      <slices/>
      <sliceSourceBounds x="-1166.61" y="-1335.63" width="3345.68" height="1186.38" bottomLeftOrigin="true"/>
    </sfw>
  </metadata>
</svg>