<?xml version="1.0" encoding="UTF-8"?>
<svg id="Auto_CL" xmlns="http://www.w3.org/2000/svg" version="1.1" viewBox="0 0 200 100">
  <!-- Generator: Adobe Illustrator 30.3.0, SVG Export Plug-In . SVG Version: 2.1.3 Build 182)  -->
  <path d="M20.637,54.505c-.654-1.109-1.04-2.57-.629-3.823.298-.906,1.005-1.576,1.92-1.847,1.061-.314,2.504-.034,3.57.252,1.876.503,4.823,1.729,6.611,2.582l6.083,2.901c-1.061-1.041-2.053-1.898-2.826-3.063-.651-.89-1.138-1.832-1.509-2.873-.376-1.133-.577-2.272-.497-3.466.163-2.424,1.726-4.496,4.011-5.32,1.287-.464,2.665-.505,3.973-.115,2.699.805,4.478,3.314,4.368,6.126-.117,2.973-1.946,5.744-4.028,7.761-2.051,1.987-4.481,3.507-7.167,4.486-1.865.68-4.243,1.153-6.222.977-2.357-.21-4.559-1.213-6.271-2.834-.557-.528-1.004-1.092-1.388-1.743Z" fill="#ff012e"/>
  <path d="M82.256,49.923l-.005,8.843-4.067.003-.003-7.157c-.046-1.804-.96-2.876-2.743-3.16-1.742-.277-4.246-.1-5.415,1.48l-.007,8.835h-4.066s-.002-13.538-.002-13.538l3.837-.004.034,1.84c1.301-1.499,3.095-2.115,5.029-2.184,2.401-.062,4.582.561,6.1,2.558,2.04-2.257,4.984-2.793,7.826-2.478,2.388.314,4.382,1.588,5.221,3.903.294.812.47,1.626.472,2.512l.012,7.389-3.952.002c-.059,0-.094-.011-.105-.04-.011-.032-.006-.063-.006-.125l-.008-7.015c0-.472-.088-.895-.241-1.316-.38-1.054-1.311-1.608-2.383-1.799-1.74-.309-4.312-.16-5.53,1.447Z" fill="#ff012e"/>
  <path d="M124.198,58.571c-1.123-.385-1.891-.882-2.786-1.622l-.005,6.298-4.067.006v-18.019s3.849-.001,3.849-.001l.005,1.759c.01.046.048.068.074.025,2.24-1.982,5.716-2.534,8.569-1.863,2.747.646,4.946,2.584,5.502,5.407.202,1.027.19,2.031-.037,3.05-.579,2.598-2.588,4.439-5.12,5.14-1.973.546-4.051.482-5.983-.18ZM130.33,54.519c.982-.867,1.271-2.185.975-3.428-.18-.756-.622-1.386-1.252-1.834-1.168-.83-2.772-.979-4.173-.882-1.648.114-3.341.614-4.472,1.85l.003,3.563c1.327,1.401,3.3,1.85,5.173,1.856,1.307.004,2.747-.244,3.745-1.125Z" fill="#ff012e"/>
  <path d="M110.782,56.932c-2.338,2.073-5.953,2.626-8.902,1.841-2.471-.658-4.476-2.405-5.136-4.91-.303-1.149-.32-2.314-.062-3.475.637-2.862,2.963-4.736,5.774-5.302,2.782-.56,6.096.021,8.257,1.928.035.029.073.033.084-.016l.003-1.766,3.84-.003v13.538s-3.836.003-3.836.003l-.021-1.836ZM108.264,55.213c.884-.295,1.661-.749,2.312-1.428l.005-3.558c-.518-.563-1.143-.969-1.852-1.267-1.48-.624-3.532-.777-5.097-.43-1.408.312-2.631,1.135-2.966,2.603-.127.557-.129,1.112-.013,1.672.277,1.332,1.285,2.159,2.544,2.547,1.5.462,3.578.359,5.067-.138Z" fill="#ff012e"/>
  <path d="M177.45,57.061c.045.081.035.127-.025.169-.465.323-.943.578-1.474.794-2.444.993-5.478,1.272-8.079.985-1.511-.167-3.036-.593-4.306-1.434-1.314-.87-2.203-2.167-2.555-3.713-.269-1.184-.283-2.38-.042-3.574.605-3.006,2.941-4.648,5.835-5.181,2.928-.54,6.421-.237,8.654,1.942,1.17,1.141,1.774,2.681,1.75,4.321-.008.557-.067,1.072-.149,1.619-.012.082-.048.099-.151.099h-12.238c.159,1.709,1.66,2.418,3.215,2.632,2.576.355,5.703.049,8.078-1.076.05-.024.101-.034.137,0,.021.02.036.065.063.113l1.287,2.304ZM173.675,50.47c-.133-.936-.665-1.608-1.409-2.018-1.285-.718-3.393-.671-4.81-.442-1.391.224-2.597.92-2.789,2.466l9.008-.007Z" fill="#ff012e"/>
  <path d="M51.015,59.055c-2.719.318-5.347-.621-7.769-1.751-.843-.393-1.634-.786-2.485-1.248l4.397-2.747,3.11-1.806c1.399-.813,3.582-1.859,5.116-2.343,1.048-.331,2.543-.629,3.607-.36,1.096.277,1.907,1.13,2.13,2.244.254,1.269-.192,2.657-.884,3.721-1.56,2.399-4.403,3.961-7.222,4.291Z" fill="#ff012e"/>
  <path d="M147.597,45.228l.006,3.254-6.036.007-.003,10.279-3.951.004c-.084,0-.111-.022-.111-.115l.004-13.489c0-.722.107-1.364.311-2.031.384-1.251,1.237-2.241,2.408-2.824,1.507-.75,3.283-.884,4.958-.834,1.296.039,2.545.196,3.783.539.039.011.067.072.063.114l-.249,2.642c-.005.049-.008.082-.024.095-.022.018-.062.034-.113.027-1.461-.214-3.286-.461-4.724-.307-1.02.109-2.028.469-2.268,1.585-.074.343-.103.676-.078,1.052l6.023.004Z" fill="#ff012e"/>
  <path d="M153.691,58.768l-4.071-.009v-13.529s3.842-.002,3.842-.002l.036,1.809c1.582-1.954,4.196-2.381,6.507-2.063.158.022.297.068.446.11.06.015.088.058.081.128l-.32,3.401c-1.526-.326-3.779-.452-5.205.184-.55.254-.998.617-1.315,1.15v8.821Z" fill="#ff012e"/>
  <metadata>
    <sfw xmlns="http://ns.adobe.com/SaveForWeb/1.0/">
      <slices/>
      <sliceSourceBounds x="-1166.61" y="-1335.63" width="3345.68" height="1186.38" bottomLeftOrigin="true"/>
    </sfw>
  </metadata>
</svg>