<?xml version="1.0" encoding="UTF-8"?>
<svg id="Auto_CL" xmlns="http://www.w3.org/2000/svg" version="1.1" viewBox="0 0 200 100">
  <!-- Generator: Adobe Illustrator 30.3.0, SVG Export Plug-In . SVG Version: 2.1.3 Build 182)  -->
  <path d="M81.485,41.966c-5.524-7.002-5.568-18.384,2.356-25.553,7.976-7.217,20.153-6.349,27.081,1.682,7.103,8.234,5.861,20.615-2.616,27.283-8.308,6.535-19.638,4.764-25.663-2.059.002-.099.095-.102.154-.13.791-.373,1.62-.614,2.48-.77.843-.153,1.69-.259,2.543-.309.736-.043,1.474-.053,2.211.022.484.049.971.068,1.454.12.629.068,1.258.149,1.885.235.671.092,1.34.196,2.011.293.466.068.933.136,1.4.198.701.092,1.403.171,2.103.268.793.109,1.591.099,2.386.071,1.275-.046,2.465-.405,3.561-1.062,1.242-.745,2.214-1.757,2.951-2.997.696-1.171,1.233-2.412,1.585-3.73.011-.04.001-.086.001-.14-.23-.129-.494-.146-.763-.229-.098.183-.187.349-.276.516-.693,1.296-1.613,2.397-2.824,3.238-.908.63-1.915,1.036-3.006,1.219-1.362.229-2.731.205-4.102.107-.132-.01-.266-.01-.398-.017-.781-.039-1.561-.079-2.342-.119-1.045-.054-2.09-.118-3.136-.16-.486-.02-.974-.006-1.461.006-.279.007-.558.045-.837.062-.131.008-.263.001-.402.001-.034-.154.086-.24.159-.339.633-.853,1.273-1.701,1.909-2.551,2.864-3.827,5.727-7.654,8.591-11.48,1.538-2.055,3.079-4.108,4.618-6.162.086-.115.191-.22.223-.348-.023-.038-.027-.053-.037-.059-.012-.008-.028-.011-.042-.011-6.481,0-12.961,0-19.442,0-.027,0-.054.02-.112.042-.191.626-.346,1.282-.513,1.935-.168.656-.341,1.31-.508,1.967-.166.652-.365,1.296-.485,1.982.301.095.575.178.88.174.069-.12.136-.233.199-.348.362-.664.807-1.267,1.325-1.818.627-.667,1.394-1.079,2.273-1.292.573-.139,1.157-.215,1.743-.278,2.134-.23,4.274-.147,6.413-.161.043,0,.087.011.133.017.034.159-.087.245-.162.345-.605.8-1.217,1.595-1.825,2.393-1.348,1.773-2.694,3.548-4.043,5.321-1.93,2.536-3.862,5.07-5.792,7.605-1.17,1.538-2.339,3.077-3.509,4.615-.097.127-.202.248-.331.405Z" fill="#0172b9"/>
  <path d="M143.761,69.816c0-.134,0-.207,0-.279-.002-1.535.002-3.071-.011-4.606-.003-.352-.03-.71-.099-1.055-.111-.559-.361-1.059-.772-1.465-.062-.062-.144-.103-.187-.133.037-.166.119-.15.188-.15,1.801,0,3.602,0,5.403,0,.042,0,.085.011.164.021-.035.06-.051.116-.088.146-.631.506-.879,1.203-.962,1.972-.057.527-.085,1.057-.084,1.59.005,3.587-.003,7.175,0,10.762,0,.545.042,1.09.059,1.635.019.633.285,1.164.664,1.652.086.111.223.189.252.337-.037.029-.059.061-.08.061-1.828.002-3.656.002-5.471.002-.071-.106,0-.153.05-.199.555-.518.827-1.16.905-1.912.044-.427.066-.853.067-1.28.004-1.506.002-3.012.002-4.517v-.286c-.094-.014-.162-.033-.23-.033-2.554-.002-5.108-.001-7.662,0-.058,0-.116.012-.199.021-.013.101-.036.198-.037.295-.002,1.639-.007,3.277.003,4.916.002.382.029.769.093,1.145.106.621.368,1.179.798,1.65.039.042.073.088.106.128-.034.115-.12.081-.184.081-1.742.002-3.484.002-5.226.001-.058,0-.116-.007-.211-.013.033-.066.045-.125.08-.156.701-.605.931-1.41.97-2.293.016-.369.017-.738.017-1.107.001-3.351.002-6.702,0-10.054,0-.679-.002-1.358-.023-2.037-.009-.308-.042-.62-.108-.92-.103-.469-.347-.874-.663-1.234-.086-.099-.175-.195-.292-.326.082-.022.13-.047.178-.047,1.816-.002,3.632-.001,5.448,0,.028,0,.056.012.085.018.04.113-.059.155-.115.215-.432.464-.726.999-.853,1.622-.015.072-.028.145-.031.218-.026.53-.065,1.06-.07,1.59-.011,1.181-.004,2.362-.003,3.543,0,.145.008.29.013.446.078.014.133.032.188.032,2.625.001,5.251.001,7.928.001Z" fill="#0172b9"/>
  <path d="M85.847,62.144c.196-.008.295-.016.395-.016,1.417,0,2.834-.009,4.25.003.929.008,1.859.027,2.786.076.764.04,1.527.124,2.268.335,1.056.302,1.982.819,2.746,1.618,1.678,1.756,1.481,4.406-.005,5.974-.681.719-1.503,1.23-2.409,1.611-.336.141-.68.265-1.044.406.053.078.087.142.133.195,1.22,1.421,2.426,2.856,3.668,4.258.939,1.06,1.921,2.082,2.987,3.019.177.156.361.304.54.458.053.046.099.1.178.181-.088.025-.139.051-.189.051-.753.003-1.505.008-2.258,0-.339-.003-.677-.037-1.015-.048-.62-.019-1.187-.202-1.712-.525-.504-.311-.961-.683-1.384-1.097-.707-.693-1.344-1.449-1.978-2.207-1.051-1.256-2.097-2.515-3.147-3.771-.026-.031-.069-.046-.138-.09,0,.129,0,.229,0,.328.004,1.579.003,3.158.016,4.737.003.338.031.68.091,1.012.079.44.267.84.558,1.187.11.131.211.269.315.404-.046.034-.068.065-.09.065-1.842.002-3.683.002-5.52.002-.038-.112.045-.145.095-.19.61-.541.899-1.225.912-2.034.003-.192.009-.384.009-.575,0-4.117.002-8.235-.002-12.352,0-.441-.001-.882-.08-1.322-.094-.529-.345-.965-.681-1.366-.074-.088-.155-.171-.297-.326ZM90.551,70.938c.098.007.17.016.242.016.622-.003,1.23-.116,1.833-.254.522-.12,1.008-.327,1.466-.599.658-.391,1.139-.929,1.363-1.674.16-.533.17-1.081.091-1.623-.11-.749-.493-1.35-1.112-1.791-.339-.242-.716-.409-1.119-.514-.587-.153-1.188-.217-1.79-.26-.32-.023-.643-.023-.956.002-.06.359-.075,6.11-.018,6.697Z" fill="#0172b9"/>
  <path d="M77.181,62.172c1.836,0,3.65,0,5.465.002.021,0,.042.028.083.058-.037.045-.067.092-.107.128-.532.477-.797,1.085-.876,1.782-.065.572-.072,1.146-.071,1.723.004,2.672-.002,5.343-.02,8.015-.005.796-.095,1.588-.307,2.361-.401,1.463-1.276,2.572-2.539,3.389-.866.56-1.815.894-2.828,1.083-1.083.202-2.173.23-3.262.148-1.538-.115-2.988-.535-4.235-1.49-1.297-.993-2.112-2.281-2.338-3.918-.111-.805-.144-1.615-.146-2.426-.005-1.919,0-3.838-.002-5.757,0-.915-.005-1.83-.008-2.745,0-.281-.023-.557-.085-.833-.109-.487-.307-.92-.67-1.271-.059-.057-.102-.131-.162-.209.388-.061,5.316-.061,5.701,0-.062.092-.114.176-.172.256-.323.446-.579.923-.684,1.47-.014.072-.033.144-.037.217-.029.53-.076,1.06-.077,1.59-.005,2.539-.012,5.078.014,7.617.007.675.023,1.354.123,2.028.196,1.329.938,2.198,2.177,2.653.827.304,1.681.403,2.565.292.781-.098,1.483-.355,2.108-.834.614-.471.981-1.101,1.138-1.841.103-.488.158-.991.178-1.49.033-.825.027-1.653.028-2.479.003-2.214.004-4.428-.002-6.643-.001-.426.01-.853-.078-1.278-.118-.567-.353-1.059-.795-1.443-.022-.019-.044-.04-.062-.063-.008-.01-.006-.028-.017-.09Z" fill="#0172b9"/>
  <path d="M45.844,65.88c.035-.111.058-.227.105-.332.476-1.062.955-2.123,1.434-3.183.03-.066.071-.128.118-.21.112-.009.227-.026.342-.026,4.532-.001,9.063-.001,13.595,0,.084,0,.168.01.292.017-.11.282-.301.47-.44.688-.143.224-.3.438-.451.656-.151.218-.302.436-.453.655-.151.218-.301.437-.452.655-.151.218-.304.435-.457.653-.161.23-.322.459-.481.689-.151.218-.299.439-.449.657-.151.218-.304.436-.456.653-.152.218-.305.434-.456.653-.151.218-.299.439-.45.657-.151.218-.303.436-.455.654-.152.218-.303.436-.455.654-.152.218-.305.435-.456.653-.151.218-.298.439-.449.657-.151.219-.303.436-.455.653-.152.218-.305.435-.456.653-.151.218-.3.438-.451.656-.159.231-.319.461-.479.691-.152.218-.304.436-.455.653-.152.218-.303.436-.455.654-.152.218-.304.436-.454.654-.151.219-.299.439-.45.657-.151.218-.309.432-.455.654-.143.217-.317.416-.448.697.139.008.235.019.332.019.945.001,1.89.011,2.834-.002.752-.01,1.505-.024,2.254-.08,1.916-.143,3.749-.591,5.438-1.544.099-.056.213-.085.32-.126l.006.006c-.021.097-.026.202-.064.291-.379.879-.764,1.755-1.148,2.632-.159.363-.321.726-.467,1.058-.049.028-.062.036-.075.042-.013.006-.028.014-.042.014-5.091.002-10.182.003-15.273.004-.073,0-.147-.006-.22-.011-.012,0-.023-.013-.063-.038.182-.347.431-.652.652-.974.225-.328.458-.652.686-.978.236-.338.471-.678.707-1.017.228-.326.457-.652.686-.978.229-.326.459-.651.687-.977.228-.326.454-.654.681-.981.228-.327.457-.652.685-.978.237-.338.472-.677.709-1.015.228-.326.455-.653.684-.979.229-.326.459-.651.688-.976.229-.326.458-.651.686-.978.228-.326.454-.654.682-.98.228-.326.457-.652.685-.978.237-.338.475-.675.712-1.014.228-.326.455-.653.682-.981.225-.324.449-.649.662-.957-.05-.13-.134-.102-.2-.103-.753-.002-1.505-.012-2.258.002-.707.013-1.416.03-2.121.082-1.736.129-3.394.559-4.956,1.341-.064.032-.136.046-.205.069-.011-.012-.022-.024-.034-.036Z" fill="#0172b9"/>
  <path d="M127.857,62.313v3.367c-.051-.012-.099-.01-.131-.032-.818-.582-1.744-.91-2.705-1.162-.632-.166-1.282-.233-1.927-.227-1.067.009-2.108.199-3.085.666-1.466.701-2.488,1.81-3.095,3.31-.317.785-.479,1.601-.558,2.444-.107,1.136.031,2.237.383,3.311.46,1.405,1.288,2.544,2.536,3.357.687.447,1.438.741,2.248.878,1.478.25,2.904.067,4.288-.5.602-.247,1.178-.542,1.721-.9.108-.071.223-.13.343-.199.051.367.065,2.41.024,3.235-.092.039-.193.093-.301.127-.998.32-2.018.549-3.055.686-.996.131-2.001.162-3.004.092-1.12-.078-2.22-.277-3.276-.677-2.577-.976-4.37-2.736-5.308-5.337-.281-.778-.416-1.59-.488-2.418-.06-.682-.028-1.358.043-2.03.093-.881.316-1.736.66-2.557.81-1.935,2.151-3.398,3.948-4.456,1.193-.702,2.479-1.151,3.844-1.383.553-.094,1.106-.169,1.668-.18.398-.008.795-.047,1.192-.039,1.152.024,2.292.152,3.413.429.199.049.392.123.62.196Z" fill="#0172b9"/>
  <path d="M109.693,62.135c-.116.121-.163.175-.216.224-.603.552-.85,1.261-.884,2.055-.022.516-.021,1.033-.022,1.549-.002,3.823-.002,7.646,0,11.469,0,.368.015.733.082,1.1.113.617.386,1.138.812,1.589.036.038.062.086.123.173-.1.011-.152.021-.205.023-1.601.042-5.031.018-5.43-.037-.018-.108.071-.155.13-.213.567-.556.809-1.255.876-2.024.03-.338.039-.678.039-1.017.003-3.439.003-6.878,0-10.317,0-.752-.015-1.505-.034-2.257-.005-.205-.043-.409-.072-.613-.09-.628-.395-1.133-.878-1.537-.032-.027-.054-.066-.078-.095.006-.022.007-.039.015-.05.007-.01.022-.019.033-.019,1.872,0,3.743,0,5.707,0Z" fill="#0172b9"/>
  <path d="M153.285,59.427c-1.185-.006-2.064-.894-2.05-2.081.013-1.17.856-2.059,2.091-2.039,1.291.021,2.03.992,2.029,2.058,0,1.187-.882,2.067-2.069,2.062ZM153.29,59.097c.84.046,1.699-.566,1.713-1.735.012-.988-.712-1.726-1.677-1.737-1.005-.012-1.749.742-1.747,1.767.002.967.741,1.703,1.711,1.705Z" fill="#0172b9"/>
  <path d="M45.878,65.916c-.018.019-.05.057-.052.055-.054-.041-.026-.068.019-.091.011.012.022.024.034.036Z" fill="#0172b9"/>
  <path d="M61.991,76.269c.015-.021.029-.042.044-.063.042.053.025.073-.038.069l-.006-.006Z" fill="#0172b9"/>
  <path d="M153.915,57.386c.193.292.265.617.324.975h-.242c-.069-.206-.141-.413-.205-.621-.056-.18-.177-.264-.361-.265-.19-.001-.38,0-.578,0-.093.304.005.605-.072.896h-.18c-.073-.302-.079-1.706-.007-2.128.359-.028.725-.007,1.09-.011.362-.005.674.421.467.844-.05.103-.14.187-.235.311ZM152.82,56.453c-.01.284-.025.514.014.77.281,0,.541.012.8-.004.189-.012.309-.168.312-.359.005-.229-.125-.396-.361-.417-.243-.021-.49-.023-.765.01Z" fill="#0172b9"/>
  <metadata>
    <sfw xmlns="http://ns.adobe.com/SaveForWeb/1.0/">
      <slices/>
      <sliceSourceBounds x="-1166.61" y="-1335.63" width="3345.68" height="1186.38" bottomLeftOrigin="true"/>
    </sfw>
  </metadata>
</svg>