<?xml version="1.0" encoding="UTF-8"?>
<svg id="contenedores" xmlns="http://www.w3.org/2000/svg" viewBox="0 0 2007.101 531.308">
  <defs>
    
  </defs>
  <path class="cls-1" fill="#FFFFFF" d="M92.579,42.353h1821.943s-206.765,362.162-206.765,362.162c-29.81,52.212-85.323,84.439-145.447,84.439H443.541c-60.28,0-115.904-32.393-145.659-84.819L92.579,42.353Z"></path>
  <g>
    <path class="cls-2" fill="#103AD9" d="M724.341,221.972c-36.733,0-66.521,29.851-66.521,66.672s29.788,66.671,66.521,66.671,66.521-29.85,66.521-66.671-29.777-66.672-66.521-66.672ZM724.341,321.846c-18.266,0-33.126-14.895-33.126-33.203s14.861-33.204,33.126-33.204,33.127,14.895,33.127,33.204-14.861,33.203-33.127,33.203Z"></path>
    <path class="cls-2" fill="#103AD9" d="M1388.035,221.972h-11.042c-36.733,0-66.521,29.851-66.521,66.672v.246h0v59.664c0,3.735,3.026,6.763,6.744,6.763h19.907c3.718,0,6.744-3.028,6.744-6.763v-59.909c0-18.31,14.861-33.204,33.126-33.204h11.042c3.718,0,6.744-3.028,6.744-6.763v-19.943c0-3.735-3.026-6.763-6.744-6.763Z"></path>
    <path class="cls-2" fill="#103AD9" d="M556.307,208.56c25.713-3.668,48.78,10.049,59.208,31.114,1.139,2.289,3.528,3.672,6.085,3.672h21.526c4.611,0,7.961-4.573,6.409-8.925-12.661-35.439-46.759-60.65-86.652-59.906-46.513.868-85.424,38.081-88.315,84.62-3.26,52.55,38.307,96.19,90.035,96.19,39.144,0,72.45-24.993,84.932-59.921,1.552-4.353-1.798-8.926-6.409-8.926h-21.548c-2.534,0-4.924,1.379-6.051,3.662-9.301,18.775-28.627,31.717-50.924,31.717-33.473,0-60.269-29.156-56.45-63.459,2.825-25.393,22.922-46.238,48.155-49.838h0Z"></path>
    <path class="cls-2" fill="#103AD9" d="M1287.718,222.786l-18.947,9.888c-10.417-6.8-22.855-10.764-36.22-10.764-36.744,0-66.521,29.85-66.521,66.672s29.777,66.671,66.521,66.671c13.666,0,26.361-4.136,36.923-11.215l17.998,10.245c5.18,2.946,11.6-.799,11.6-6.766v-117.829c0-5.84-6.186-9.6-11.354-6.901ZM1232.551,321.784c-18.266,0-33.138-14.895-33.138-33.203s14.872-33.204,33.138-33.204,33.126,14.895,33.126,33.204-14.861,33.203-33.126,33.203Z"></path>
    <path class="cls-2" fill="#103AD9" d="M1090.063,221.951c-13.666-.008-26.372,4.121-36.934,11.196l-17.986-10.255c-5.181-2.949-11.6.794-11.612,6.76l-.056,117.829c0,.076.012.148.012.224v41.671c0,3.734,3.026,6.763,6.755,6.763h19.896c3.73,0,6.744-3.028,6.744-6.763v-42.966c9.758,5.633,21.046,8.876,33.116,8.883,36.733.018,66.533-29.816,66.555-66.639.022-36.821-29.755-66.688-66.487-66.704ZM1090.007,321.825c-18.267-.01-33.116-14.912-33.105-33.22,0-18.308,14.872-33.196,33.138-33.187,18.266.01,33.126,14.912,33.116,33.220-.012,18.31-14.883,33.196-33.149,33.187Z"></path>
    <path class="cls-2" fill="#103AD9" d="M1520.207,222.786l-18.947,9.888c-10.428-6.8-22.866-10.764-36.230-10.764-36.744,0-66.521,29.85-66.521,66.672s29.777,66.671,66.521,66.671c13.666,0,26.360-4.136,36.923-11.215l17.998,10.245c5.18,2.946,11.6-.799,11.6-6.766v-117.829c0-5.84-6.175-9.6-11.344-6.901ZM1465.029,321.784c-18.266,0-33.127-14.895-33.127-33.203s14.861-33.204,33.127-33.204,33.126,14.895,33.126,33.204-14.861,33.203-33.126,33.203Z"></path>
    <path class="cls-2" fill="#103AD9" d="M951.739,221.811c-17.764-.304-33.841,7.330-45.196,19.531-10.942-11.768-26.439-19.237-43.644-19.531-34.187-.585-62.167,28.191-62.167,62.461v64.274c0,3.730,3.014,6.754,6.732,6.754h19.918c3.729,0,6.744-3.023,6.744-6.754v-65.493c0-15.783,13.197-28.534,29.119-27.747,14.882.737,26.316,13.612,26.316,28.553v64.687c0,.466.056.921.145,1.361.134.659.357,1.284.670,1.858.413.766.971,1.441,1.641,1.992.335.276.692.519,1.072.727.960.520,2.055.815,3.216.815h19.918c3.718,0,6.732-3.023,6.732-6.753v-65.494c0-15.783,13.209-28.533,29.119-27.746,14.894.736,26.327,13.611,26.327,28.552v64.687c0,3.730,3.015,6.754,6.744,6.754h19.907c3.729,0,6.744-3.023,6.744-6.754v-65.493c0-33.420-26.841-60.674-60.057-61.241h0Z"></path>
  </g>
</svg>