<?xml version="1.0" encoding="UTF-8"?>
<svg id="Auto_CL" xmlns="http://www.w3.org/2000/svg" version="1.1" viewBox="0 0 200 100">
  <!-- Generator: Adobe Illustrator 30.3.0, SVG Export Plug-In . SVG Version: 2.1.3 Build 182)  -->
  <path d="M64.122,36.574c-.133-.074-.253-.042-.367-.042-3.33.003-6.66.008-9.99.014-1.05.002-2.101.004-3.151.018-.211.003-.311-.042-.355-.273-.352-1.853-.34-3.701.006-5.553.04-.215.13-.259.334-.258,7.503.005,15.006.006,22.509,0,.211,0,.291.066.342.263.409,1.591.134,3.079-.635,4.504-.601,1.113-1.401,2.088-2.138,3.105-3.295,4.548-6.599,9.089-9.908,13.627-.361.496-.771.956-1.158,1.433-.059.073-.113.152-.174.233.133.079.253.046.367.046,4.53.002,9.059.004,13.589-.003.25,0,.354.054.404.322.345,1.844.331,3.682-.015,5.523-.037.197-.114.253-.309.253-7.652-.005-15.303-.005-22.955.002-.23,0-.286-.11-.329-.285-.367-1.466-.186-2.866.49-4.212.497-.99,1.202-1.839,1.847-2.727,3.81-5.251,7.627-10.496,11.441-15.744.056-.076.101-.16.155-.246Z" fill="#fe8900"/>
  <path d="M88.835,50.651c-2.299,0-4.599.005-6.898-.006-.285-.001-.321.076-.27.339.184.957.479,1.862,1.138,2.607.771.873,1.785,1.252,2.905,1.397,2.578.333,4.899-.378,7.056-1.748.617-.392.623-.393,1.123.127,1.052,1.091,1.644,2.408,1.893,3.891.03.178-.028.284-.177.394-2.227,1.637-4.727,2.532-7.469,2.806-1.921.191-3.825.138-5.686-.396-4.023-1.156-6.547-3.781-7.448-7.871-.639-2.9-.451-5.766.855-8.474,1.636-3.393,4.371-5.381,8.065-6.026,2.376-.415,4.706-.194,6.922.802,2.644,1.189,4.308,3.227,5.05,6.018.521,1.961.42,3.946.179,5.933-.026.218-.153.21-.31.21-2.309-.002-4.619-.001-6.928-.001ZM85.929,42.668c-1.112.045-2.127.346-2.941,1.148-.724.713-1.104,1.601-1.299,2.583-.101.509-.081.422.358.422,2.415.002,4.831,0,7.246,0,.538,0,.548,0,.498-.55-.207-2.279-1.607-3.527-3.862-3.604Z" fill="#fe8900"/>
  <path d="M98.171,50.368c0-3.013.004-6.025-.007-9.038-.001-.279.091-.452.303-.618,1.422-1.113,3.018-1.886,4.728-2.432,2.632-.841,5.327-1.095,8.07-.775,1.712.199,3.335.689,4.771,1.679,1.92,1.323,2.965,3.194,3.363,5.459.124.705.166,1.415.166,2.13,0,4.222-.003,8.443.007,12.665,0,.281-.085.362-.352.399-2.054.286-4.106.284-6.16.002-.287-.039-.362-.134-.362-.423.011-3.924.007-7.849.008-11.773,0-.618-.071-1.228-.274-1.813-.409-1.176-1.246-1.895-2.452-2.14-1.633-.33-3.21-.113-4.718.602-.217.103-.294.232-.294.477.008,4.886.004,9.771.012,14.657,0,.268-.058.371-.34.41-2.045.282-4.086.289-6.131.003-.272-.038-.346-.126-.345-.402.012-3.022.007-6.045.007-9.067Z" fill="#fe8900"/>
  <path d="M134.279,49.463c0-1.918-.006-3.523.006-5.129.002-.253-.071-.308-.313-.305-1.03.014-2.061,0-3.092.011-.214.002-.307-.043-.34-.276-.239-1.679-.243-3.355.006-5.034.029-.193.093-.262.297-.26,1.021.011,2.041.006,3.062.004.435,0,.372.036.373-.387.002-1.635.01-3.27-.007-4.905-.003-.312.061-.438.397-.48,2.046-.258,4.087-.292,6.131.022.212.033.249.115.248.304-.006,1.714.002,3.429-.01,5.143-.002.251.069.31.314.309,2.299-.009,4.598,0,6.897-.013.303-.002.389.095.447.38.339,1.668.283,3.326-.037,4.988-.042.22-.164.201-.315.201-2.339-.001-4.678.001-7.016-.005-.204,0-.291.025-.29.266.012,2.438.008,4.876.011,7.314,0,.378.045.753.144,1.117.316,1.162,1.095,1.767,2.336,1.905,1.313.146,2.447-.243,3.438-1.076.203-.17.319-.143.498-.005,1.207.932,1.938,2.179,2.378,3.611.265.862.249.862-.49,1.378-2.09,1.459-4.428,2.004-6.946,1.907-1.589-.061-3.138-.309-4.57-1.035-2.154-1.094-3.266-2.904-3.494-5.272-.16-1.66-.024-3.328-.066-4.679Z" fill="#fe8900"/>
  <path d="M122.379,48.934c0-3.509.004-7.018-.008-10.526,0-.261.084-.33.318-.363,2.065-.289,4.128-.273,6.193.004.244.033.316.114.316.367-.008,7.017-.008,14.035-.002,21.052,0,.229-.05.325-.294.36-2.084.3-4.165.296-6.249-.003-.229-.033-.28-.116-.28-.335.007-3.519.005-7.037.005-10.556Z" fill="#fe8900"/>
  <path d="M121.698,31.192c.009-2.243,1.856-4.047,4.13-4.034,2.251.013,4.112,1.874,4.093,4.092-.02,2.253-1.906,4.095-4.175,4.081-2.217-.014-4.057-1.896-4.048-4.138Z" fill="#fe8900"/>
  <path d="M82.377,69.26c0-.525.004-1.051-.003-1.576-.002-.143.032-.245.161-.32,1.024-.591,2.077-.823,3.188-.252.127.066.202.014.297-.034.591-.299,1.213-.353,1.852-.211.755.168,1.22.689,1.248,1.46.031.861.01,1.724.018,2.586.001.138-.047.193-.183.207-.307.031-.612.028-.92.007-.179-.013-.23-.083-.227-.258.01-.674.006-1.348.003-2.022-.003-.748-.507-1.067-1.196-.764-.151.066-.22.144-.216.331.016.812.002,1.625.012,2.438.002.188-.05.256-.241.278-1.039.122-1.077.094-1.077-.923,0-.476.002-.951,0-1.427-.001-.289-.053-.563-.343-.706-.317-.157-.635-.101-.947.03-.136.057-.106.176-.106.28-.002.813-.008,1.625.004,2.438.003.213-.053.291-.272.312-1.045.101-1.052.101-1.052-.923,0-.317,0-.634,0-.951Z" fill="#050300"/>
  <path d="M64.912,69.107c0,.585-.009,1.17.005,1.754.005.199-.072.259-.252.271-.278.017-.553.01-.831-.003-.2-.01-.24-.097-.238-.277.008-.852-.003-1.705.008-2.557.003-.222-.043-.327-.29-.302-.216.022-.437.019-.653,0-.228-.019-.305.047-.3.291.016.842-.005,1.685.013,2.527.005.254-.085.316-.316.331-.993.067-.993.072-.993-.899,0-.674-.004-1.348.003-2.022.002-.159-.034-.256-.211-.223-.296.055-.39-.092-.373-.359.005-.089.013-.178.009-.267-.01-.215.078-.313.299-.274.195.034.267-.044.297-.248.138-.949.764-1.514,1.72-1.583.504-.036.985.035,1.446.253.194.092.247.206.159.397-.041.09-.067.187-.111.275-.172.344-.218.358-.579.218-.265-.103-.541-.119-.819-.07-.173.03-.317.117-.413.265-.083.127-.154.281-.096.42.061.147.229.068.347.07.595.007,1.189.002,1.784.004.439.002.384-.048.387.372.003.545,0,1.09,0,1.635Z" fill="#050300"/>
  <path d="M89.897,70.057c0-.782.009-1.565-.006-2.347-.004-.218.07-.343.253-.449.823-.476,1.697-.6,2.605-.34,1.132.324,1.707,1.532,1.342,2.752-.308,1.032-1.206,1.629-2.343,1.558q-.546-.034-.546.514c0,.228-.019.457.005.683.025.244-.085.298-.299.315-1.011.084-1.011.088-1.011-.904,0-.594,0-1.188,0-1.782ZM91.201,69.029c0,.257-.002.514,0,.771,0,.085-.015.17.088.229.511.292,1.357-.046,1.517-.624.116-.422.087-.837-.248-1.157-.331-.316-.744-.33-1.168-.234-.129.029-.2.093-.192.244.013.256.004.514.003.771Z" fill="#040200"/>
  <path d="M109.869,69.533c0,.367-.003.733.002,1.1.001.119-.015.204-.148.251-.904.321-1.827.458-2.774.254-.641-.138-1.007-.55-1.053-1.127-.051-.631.246-1.092.846-1.309.528-.191,1.07-.2,1.611-.082.229.05.236-.056.206-.216-.049-.269-.234-.407-.485-.459-.455-.096-.894-.025-1.29.21-.191.114-.308.065-.433-.07-.04-.043-.078-.09-.113-.138-.289-.404-.261-.552.173-.778.707-.367,1.454-.449,2.222-.252.796.204,1.216.761,1.236,1.605.008.337.001.674.001,1.011ZM108.569,69.833c-.047-.116.106-.327-.121-.388-.296-.079-.6-.119-.906-.028-.186.055-.321.154-.337.362-.017.214.09.355.276.447.213.105.44.102.667.081.422-.039.422-.041.422-.474Z" fill="#050300"/>
  <path d="M79.528,71.23c-1.364-.004-2.262-.88-2.264-2.209-.002-1.314.943-2.229,2.296-2.224,1.373.006,2.261.889,2.256,2.244-.004,1.305-.933,2.193-2.289,2.189ZM78.579,68.993c-.011.541.234.969.642,1.094.365.112.716.08.983-.218.37-.412.371-.901.201-1.392-.124-.359-.402-.552-.785-.579-.615-.043-1.026.391-1.041,1.095Z" fill="#040200"/>
  <path d="M98.479,69.531c0,.366-.002.733.001,1.099,0,.115-.005.204-.142.253-.913.325-1.844.462-2.8.25-.631-.14-.985-.553-1.035-1.142-.05-.588.248-1.059.812-1.275.534-.204,1.086-.221,1.636-.097.249.056.25-.054.218-.223-.05-.27-.24-.401-.49-.453-.444-.092-.878-.033-1.261.201-.217.133-.341.068-.478-.084-.033-.037-.066-.074-.094-.115-.285-.404-.256-.556.179-.778.767-.39,1.57-.468,2.388-.195.692.23,1.02.752,1.059,1.46.02.365.004.732.004,1.099h.003ZM97.172,69.859c-.049-.13.122-.354-.126-.418-.287-.073-.581-.111-.877-.029-.2.055-.341.16-.354.38-.013.213.101.354.287.441.224.104.46.088.698.072.276-.018.466-.104.372-.446Z" fill="#040200"/>
  <path d="M68.209,69.35c-.386,0-.773.011-1.158-.004-.22-.009-.221.076-.163.243.108.308.31.5.632.559.491.09.949-.006,1.362-.277.165-.109.265-.081.368.062.029.04.061.078.088.119.313.479.278.64-.237.88-.83.387-1.687.458-2.523.053-.943-.456-1.325-1.623-.95-2.751.327-.983,1.315-1.556,2.409-1.388,1.211.187,1.74,1.129,1.58,2.367-.018.142-.119.135-.219.135-.396,0-.792,0-1.188,0ZM67.602,68.606c.198,0,.396-.011.593.003.197.013.208-.082.176-.234-.064-.303-.297-.512-.621-.549-.366-.042-.688.145-.836.483-.085.193-.114.336.185.301.166-.019.336-.003.504-.004Z" fill="#050300"/>
  <path d="M58.744,68.858c0,.564-.005,1.129.003,1.693.002.16-.042.249-.197.314-.853.358-1.734.475-2.642.292-.755-.153-1.194-.667-1.215-1.436-.023-.861-.005-1.722-.013-2.583-.001-.147.041-.21.193-.225.307-.031.611-.03.918-.002.169.015.208.089.206.245-.007.693-.005,1.386-.003,2.079.002.757.663,1.137,1.339.779.135-.072.098-.181.098-.281.003-.851.007-1.703-.003-2.554-.002-.188.05-.26.239-.272.297-.019.591-.023.889.007.157.016.192.08.19.224-.007.574-.003,1.148-.003,1.722Z" fill="#030200"/>
  <path d="M99.185,69.256c0-.525.003-1.049-.002-1.574-.001-.127.02-.225.136-.301.919-.596,1.909-.761,2.949-.418.647.213.988.729,1.015,1.4.034.85.013,1.702.021,2.554.001.138-.05.191-.185.205-.307.032-.612.026-.919.006-.182-.012-.227-.088-.224-.261.009-.673.002-1.346.005-2.02.001-.31-.041-.608-.348-.763-.342-.173-.691-.113-1.032.032-.137.058-.103.177-.103.281-.002.812-.009,1.624.005,2.435.004.219-.063.286-.276.305-1.042.094-1.041.1-1.041-.929,0-.317,0-.634,0-.95Z" fill="#030100"/>
  <path d="M52.651,68.899c0,.188-.003.377,0,.565.009.556.424.843.895.553.342-.21.458-.035.601.186.074.115.124.247.177.374.054.128.016.219-.108.296-.715.443-1.464.474-2.215.136-.443-.2-.647-.599-.651-1.086-.005-.545-.008-1.09.002-1.635.003-.193-.034-.283-.257-.279-.503.008-.503-.005-.505-.512,0-.05,0-.099,0-.149.012-.412.013-.432.429-.406.282.017.347-.081.338-.345-.009-.226-.124-.576.066-.662.346-.156.757-.1,1.14-.027.092.018.086.096.087.164.001.159,0,.317,0,.476q0,.386.4.386c.277,0,.555.009.832-.003.162-.007.242.046.242.21,0,.039.013.078.018.117.081.681.016.755-.661.755-.208,0-.417.007-.624-.002-.153-.007-.215.047-.209.203.008.228.002.456.002.684Z" fill="#040200"/>
  <path d="M132.399,70.824c-.456.174-.922.226-1.399.1-.64-.168-1.067-.676-1.13-1.339-.179-1.883,1.489-3.185,3.353-2.618q.632.192.523.821c-.181,1.044-.36,2.088-.545,3.132-.283,1.601-1.791,2.37-3.245,1.654-.097-.048-.192-.105-.278-.17-.36-.272-.351-.428.028-.679.118-.078.198-.113.323.021.436.469.993.521,1.561.336.554-.181.819-.623.882-1.192.029-.081.005-.103-.072-.065ZM130.596,69.258c.006.402.123.798.559.991.476.211.946.152,1.388-.127.086-.054.103-.139.119-.228.118-.672.232-1.345.357-2.016.031-.166,0-.256-.178-.298-1.326-.314-2.209.418-2.244,1.678Z" fill="#070300"/>
  <path d="M75.656,71.244c-.886-.026-1.638-.29-2.051-1.154-.427-.894-.209-2.124.485-2.744.709-.633,1.974-.732,2.811-.228.155.093.209.186.121.358-.077.151-.161.294-.27.424-.171.204-.31.306-.61.122-.588-.36-1.279,0-1.394.681-.028.164-.028.336-.013.502.074.811.862,1.219,1.543.772.245-.161.366-.078.522.075.47.459.427.719-.164.991-.269.124-.68.209-.98.201Z" fill="#040200"/>
  <path d="M114.464,66.853c.119.007.237.013.356.023.409.036.407.036.475-.362.056-.332.109-.664.178-.994.079-.377.379-.186.579-.191.256-.006.12.192.101.304-.282,1.639-.574,3.276-.848,4.916-.041.247-.141.382-.376.462-.477.162-.962.242-1.461.186-1.103-.124-1.701-.888-1.602-2.027.122-1.398,1.193-2.353,2.599-2.318ZM113.89,70.558c.166.013.351-.024.535-.064.111-.024.193-.072.215-.207.138-.829.282-1.657.429-2.484.023-.131-.002-.201-.144-.232-.969-.212-1.985.09-2.274,1.241-.254,1.012.26,1.746,1.239,1.745Z" fill="#070300"/>
  <path d="M118.074,69.399c-.263-.008-.502-.014-.731-.083-.218-.066-.256.027-.235.219.045.407.179.757.593.917.499.192.971.13,1.403-.189.25-.184.395-.148.546.128.07.128.045.211-.056.31-.613.601-1.913.695-2.598.182-.228-.171-.388-.391-.491-.657-.343-.886-.046-2.184.649-2.831.579-.539,1.497-.702,2.186-.388.8.365.927,1.446.228,1.985-.448.346-.979.398-1.495.407ZM118.104,68.808c.177-.015.354-.026.529-.047.077-.01.154-.036.227-.066.298-.122.459-.376.423-.673-.037-.303-.25-.432-.516-.494-.673-.156-1.376.288-1.55.965-.033.13.008.18.125.211.25.066.505.089.763.104Z" fill="#070300"/>
  <path d="M127.544,69.398c-.314-.002-.572-.013-.821-.084-.196-.056-.248.015-.227.202.046.404.165.763.579.928.508.203.998.15,1.425-.194.176-.142.294-.163.445.004.194.214.194.334-.038.509-.694.522-1.456.583-2.247.276-.433-.168-.71-.518-.812-.963-.197-.858-.084-1.677.448-2.401.548-.746,1.57-1.028,2.389-.686.409.171.658.468.71.91.055.469-.095.859-.492,1.135-.426.296-.915.352-1.359.363ZM127.5,68.806c.167-.012.335-.019.501-.039.087-.011.174-.039.255-.073.296-.121.46-.381.42-.675-.041-.299-.253-.431-.52-.492-.678-.152-1.386.298-1.547.969-.032.132.016.178.129.209.25.067.504.088.762.101Z" fill="#070300"/>
  <path d="M70.261,68.212c0-.882.004-1.763-.004-2.645-.002-.172.039-.245.224-.259.338-.026.732-.118.991.046.285.181.102.597.105.906.017,1.516.001,3.031.014,4.547.002.252-.086.315-.316.332-1.014.074-1.014.08-1.014-.906,0-.674,0-1.347,0-2.021Z" fill="#040200"/>
  <path d="M145.756,68.841c-.033.784-.289,1.613-1.157,2.118-.817.474-1.982.285-2.437-.431-.574-.903-.398-1.83.082-2.705.411-.749,1.245-1.092,2.139-.957.881.133,1.391.809,1.374,1.975ZM145.027,68.857c.002-.777-.274-1.207-.808-1.343-.569-.144-1.13.124-1.421.704-.213.424-.298.879-.219,1.354.09.546.375.882.819.979.495.108.962-.081,1.267-.514.267-.379.34-.815.362-1.18Z" fill="#070300"/>
  <path d="M136.003,71.212c-.199.006-.396-.007-.591-.045-.717-.139-1.101-.65-.987-1.374.138-.88.304-1.755.462-2.631.039-.213.236-.271.58-.218.246.038.14.186.119.308-.123.712-.252,1.422-.371,2.135-.028.165-.039.335-.034.502.011.337.168.531.498.614.425.107.844.048,1.26-.067.163-.045.166-.174.188-.3.172-.974.345-1.948.519-2.922.018-.102,0-.231.152-.252.186-.026.376-.059.553.026.079.038.032.127.021.19-.203,1.17-.409,2.339-.613,3.509-.023.129-.089.197-.218.245-.498.186-1.01.279-1.539.282Z" fill="#070400"/>
  <path d="M123.337,71.213c-.483-.011-.941-.101-1.357-.369-.169-.109-.183-.229-.058-.361.121-.128.202-.397.457-.218.387.273.817.336,1.272.312.16-.009.313-.042.451-.129.415-.261.408-.79-.035-.996-.33-.153-.689-.243-1.03-.376-.882-.342-.759-1.402-.267-1.809.068-.057.137-.117.216-.156.75-.371,1.506-.355,2.262-.016.141.063.256.159.116.311-.12.131-.142.44-.446.291-.423-.207-.861-.289-1.324-.172-.246.062-.452.185-.47.465-.018.276.183.401.405.486.258.099.525.177.783.276.391.15.755.342.81.816.062.53-.109.977-.547,1.303-.367.273-.791.347-1.237.34Z" fill="#070300"/>
  <path d="M147.494,71.213c-.483-.006-.942-.097-1.359-.359-.157-.099-.218-.212-.083-.355.126-.133.205-.423.477-.228.414.297.877.344,1.36.295.373-.038.619-.268.653-.582.029-.274-.129-.475-.501-.611-.278-.102-.563-.185-.842-.287-.9-.329-.805-1.416-.242-1.861.566-.448,1.889-.505,2.487-.101.11.074.139.141.076.268-.155.313-.286.367-.603.24-.395-.157-.802-.217-1.22-.095-.222.065-.401.183-.428.437-.027.264.143.402.356.487.275.11.561.194.838.299.382.145.737.335.794.794.064.514-.084.962-.505,1.292-.369.289-.8.374-1.258.366Z" fill="#070300"/>
  <path d="M105.351,69.013c0,.614-.007,1.228.004,1.842.004.19-.057.263-.245.275-.327.021-.709.115-.962-.049-.274-.177-.098-.578-.104-.877-.019-1.01-.002-2.02-.012-3.03-.002-.191.058-.258.244-.271.347-.024.756-.127,1.011.072.197.153.052.558.06.85.012.396.003.792.003,1.188Z" fill="#050300"/>
  <path d="M141.014,66.854c.249-.006.493.019.737.075.16.037.178.116.133.257-.109.347-.203.41-.57.359-.078-.011-.158-.016-.237-.019-.907-.03-.97.015-1.127.882-.148.819-.285,1.639-.428,2.459-.018.102.003.232-.155.246-.187.016-.379.049-.557-.029-.076-.033-.029-.127-.018-.191.203-1.171.41-2.341.611-3.512.024-.137.105-.202.222-.25.445-.183.904-.293,1.388-.278Z" fill="#070400"/>
  <path d="M100.605,64.917c.266.001.498.112.732.22.381.176.47.158.719-.169.093-.122.199-.081.293-.059.725.169.747.298.373.875-.279.43-.793.573-1.288.406-.149-.051-.292-.121-.438-.183-.274-.117-.507-.1-.639.208-.067.157-.189.118-.301.094-.734-.158-.751-.27-.381-.894.193-.326.56-.497.93-.497Z" fill="#050300"/>
  <path d="M104.131,66.629c-.186-.053-.277-.193-.37-.335-.072-.111-.013-.179.057-.257.381-.43.765-.857,1.135-1.296.116-.138.215-.153.346-.045.091.075.19.144.27.23.396.424.376.588-.101.882-.387.239-.775.479-1.162.718-.058.036-.118.07-.174.103Z" fill="#070300"/>
  <path d="M67.602,68.606c-.168,0-.338-.016-.504.003-.299.035-.27-.108-.185-.301.148-.337.47-.525.836-.483.324.037.557.246.621.549.032.152.021.248-.176.234-.197-.014-.395-.003-.593-.003Z" fill="#fff"/>
  <path d="M132.399,70.824c.078-.038.101-.015.072.065-.024-.022-.048-.043-.072-.065Z" fill="#fe8900"/>
  <metadata>
    <sfw xmlns="http://ns.adobe.com/SaveForWeb/1.0/">
      <slices/>
      <sliceSourceBounds x="-1166.61" y="-1335.63" width="3345.68" height="1186.38" bottomLeftOrigin="true"/>
    </sfw>
  </metadata>
</svg>