<?xml version="1.0" encoding="UTF-8"?>
<svg id="white" xmlns="http://www.w3.org/2000/svg" viewBox="0 0 4474.916 604.007">
  <defs></defs>
  <g>
    <path class="cls-1" fill="#FFFFFF" d="M2271.811,192.532l-125.791,299.26h-54.644l44.008-101.22-81.415-198.04h57.577l52.444,141.928,53.178-141.928h54.644Z"></path>
    <path class="cls-1" fill="#FFFFFF" d="M2573.998,309.522h-148.529c1.221,14.67,6.355,26.164,15.403,34.474,9.042,8.315,20.171,12.47,33.373,12.47,19.071,0,32.64-8.189,40.708-24.572h55.378c-5.868,19.564-17.116,35.637-33.74,48.226-16.63,12.596-37.041,18.888-61.245,18.888-19.563,0-37.103-4.339-52.628-13.02-15.529-8.676-27.631-20.962-36.307-36.858-8.681-15.89-13.019-34.227-13.019-55.011,0-21.025,4.274-39.482,12.836-55.378,8.555-15.89,20.537-28.113,35.94-36.675,15.404-8.555,33.127-12.836,53.178-12.836,19.311,0,36.61,4.16,51.893,12.47,15.278,8.314,27.139,20.113,35.574,35.39,8.435,15.283,12.653,32.824,12.653,52.628,0,7.335-.493,13.937-1.467,19.804ZM2522.288,275.048c-.247-13.203-5.015-23.775-14.303-31.723-9.295-7.942-20.664-11.92-34.107-11.92-12.716,0-23.414,3.851-32.09,11.553-8.682,7.701-13.999,18.4-15.953,32.09h96.452Z"></path>
    <path class="cls-1" fill="#FFFFFF" d="M2664.212,124.317v271.389h-51.343V124.317h51.343Z"></path>
    <path class="cls-1" fill="#FFFFFF" d="M2718.304,159.708c-5.993-5.742-8.984-12.894-8.984-21.454s2.991-15.707,8.984-21.455c5.989-5.741,13.507-8.618,22.555-8.618s16.56,2.877,22.554,8.618c5.988,5.748,8.984,12.899,8.984,21.455s-2.997,15.712-8.984,21.454c-5.994,5.748-13.512,8.618-22.554,8.618s-16.566-2.871-22.555-8.618ZM2766.164,192.532v203.174h-51.343v-203.174h51.343Z"></path>
    <path class="cls-1" fill="#FFFFFF" d="M2936.331,198.216c11.489,5.993,20.537,13.753,27.138,23.288v-28.972h51.711v204.642c0,18.824-3.794,35.631-11.37,50.427-7.581,14.79-18.95,26.526-34.107,35.208-15.162,8.675-33.499,13.019-55.01,13.019-28.852,0-52.507-6.727-70.965-20.17-18.462-13.449-28.915-31.786-31.356-55.012h50.977c2.688,9.289,8.492,16.687,17.42,22.188,8.922,5.501,19.74,8.251,32.457,8.251,14.91,0,27.012-4.464,36.307-13.386,9.289-8.929,13.936-22.435,13.936-40.525v-31.54c-6.601,9.535-15.712,17.483-27.321,23.838-11.615,6.355-24.881,9.535-39.791,9.535-17.116,0-32.766-4.401-46.942-13.204-14.183-8.801-25.368-21.208-33.557-37.224-8.195-16.011-12.286-34.41-12.286-55.195,0-20.537,4.091-38.748,12.286-54.644,8.189-15.89,19.311-28.113,33.373-36.675,14.056-8.555,29.763-12.836,47.126-12.836,15.156,0,28.479,2.997,39.974,8.985ZM2956.135,262.029c-4.893-8.923-11.495-15.77-19.804-20.538-8.315-4.767-17.237-7.151-26.771-7.151s-18.337,2.326-26.405,6.968c-8.068,4.647-14.613,11.432-19.621,20.354-5.014,8.928-7.517,19.501-7.517,31.723s2.504,22.922,7.517,32.091c5.008,9.168,11.609,16.199,19.804,21.087,8.189,4.894,16.928,7.335,26.222,7.335,9.535,0,18.456-2.384,26.771-7.151,8.309-4.768,14.911-11.61,19.804-20.538,4.888-8.922,7.334-19.621,7.334-32.09s-2.447-23.162-7.334-32.09Z"></path>
    <path class="cls-1" fill="#FFFFFF" d="M3252.823,309.522h-148.529c1.221,14.67,6.355,26.164,15.403,34.474,9.042,8.315,20.171,12.47,33.373,12.47,19.071,0,32.64-8.189,40.708-24.572h55.378c-5.868,19.564-17.116,35.637-33.74,48.226-16.63,12.596-37.041,18.888-61.245,18.888-19.563,0-37.103-4.339-52.628-13.02-15.529-8.676-27.631-20.962-36.307-36.858-8.681-15.89-13.019-34.227-13.019-55.011,0-21.025,4.274-39.482,12.836-55.378,8.555-15.89,20.537-28.113,35.94-36.675,15.404-8.555,33.127-12.836,53.178-12.836,19.311,0,36.61,4.16,51.893,12.47,15.278,8.314,27.139,20.113,35.574,35.39,8.435,15.283,12.653,32.824,12.653,52.628,0,7.335-.493,13.937-1.467,19.804ZM3201.114,275.048c-.247-13.203-5.015-23.775-14.303-31.723-9.295-7.942-20.664-11.92-34.107-11.92-12.716,0-23.414,3.851-32.09,11.553-8.682,7.701-13.999,18.4-15.953,32.09h96.452Z"></path>
    <path class="cls-1" fill="#FFFFFF" d="M3418.896,395.706l-47.938,2.75-3.144-2.75,30.257-144.601c2.358-10.474-1.314-17.683-11.003-21.612l-7.073-3.536.786-3.93,73.085-21.612,3.536,3.536-8.251,42.438c13.36-13.882,26.977-24.952,40.866-33.204,13.881-8.251,26.848-12.377,38.9-12.377,8.381,0,15.325,2.554,20.826,7.662,5.5,5.109,8.251,13.035,8.251,23.773,0,2.358-.136,4.715-.394,7.073-.264,2.359-.527,4.851-.785,7.466,13.096-14.145,26.387-25.344,39.882-33.597,13.489-8.251,26.388-12.377,38.704-12.377,8.38,0,15.257,2.554,20.629,7.662,5.366,5.109,8.055,13.035,8.055,23.773,0,5.501-.528,11.199-1.571,17.093-1.05,5.894-2.358,11.985-3.93,18.272l-20.433,84.089c-1.05,4.194-1.964,7.73-2.75,10.61-.786,2.885-1.179,5.372-1.179,7.465,0,5.501,2.223,8.251,6.68,8.251,3.929,0,8.313-1.633,13.163-4.911,4.844-3.273,10.149-7.791,15.914-13.556l3.929,3.93c-3.671,5.765-8.515,11.591-14.538,17.485-6.029,5.894-13.035,10.806-21.022,14.735-7.994,3.929-16.964,5.894-26.917,5.894-8.644,0-15.324-2.032-20.039-6.09-4.715-4.059-7.073-9.756-7.073-17.093,0-5.501.651-11.199,1.964-17.093,1.308-5.894,2.88-11.985,4.715-18.272l16.11-66.407c1.572-6.809,2.947-13.096,4.126-18.86,1.179-5.759,1.769-10.474,1.769-14.146,0-9.167-4.194-13.753-12.574-13.753-12.052,0-27.247,9.038-45.581,27.113-.264.528-.461,1.117-.59,1.769-.135.656-.196,1.375-.196,2.16l-11.002,51.082c-2.886,13.888-5.636,27.77-8.251,41.652-2.622,13.888-5.372,27.899-8.252,42.044l-47.545,2.75-3.144-2.75,26.327-124.562c1.044-5.237,1.965-10.148,2.751-14.735.785-4.579,1.179-8.577,1.179-11.984,0-8.645-3.93-12.967-11.789-12.967-13.359,0-29.077,8.515-47.152,25.54l-12.18,55.011c-2.886,13.888-5.636,27.77-8.251,41.652-2.622,13.888-5.243,27.899-7.859,42.044Z"></path>
    <path class="cls-1" fill="#FFFFFF" d="M3763.498,401.6c-19.647,0-35.628-6.415-47.938-19.254-12.316-12.832-18.468-31.042-18.468-54.618,0-16.761,2.88-32.742,8.645-47.938,5.759-15.189,13.814-28.746,24.165-40.669,10.345-11.917,22.329-21.28,35.953-28.094,13.618-6.809,28.421-10.216,44.402-10.216,16.503,0,29.138,3.733,37.918,11.198,8.773,7.466,13.163,17.357,13.163,29.668,0,10.216-4.782,20.304-14.342,30.256-9.566,9.958-22.987,18.929-40.276,26.917-17.289,7.993-37.593,14.085-60.905,18.272.258,18.075,4.187,31.306,11.788,39.687,7.595,8.386,18.075,12.574,31.434,12.574,11.26,0,21.612-3.076,31.042-9.234,9.431-6.152,17.418-13.422,23.969-21.808l3.93,2.75c-5.243,10.216-11.985,19.911-20.236,29.078-8.251,9.172-17.75,16.699-28.488,22.593-10.744,5.895-22.661,8.841-35.757,8.841ZM3807.506,211.419c-6.029,0-12.512,2.621-19.449,7.859-6.945,5.243-13.496,12.378-19.648,21.415-6.158,9.038-11.266,19.389-15.324,31.042-4.065,11.659-6.484,24.036-7.269,37.133,28.813-7.859,49.313-18.204,61.494-31.043,12.181-12.832,18.272-27.37,18.272-43.616,0-7.859-1.707-13.618-5.108-17.289-3.407-3.665-7.73-5.501-12.967-5.501Z"></path>
    <path class="cls-1" fill="#FFFFFF" d="M3832.651,489.619l-1.179-5.895c6.287-2.621,11.923-5.5,16.896-8.644,4.98-3.144,9.167-7.994,12.574-14.539,4.451-7.859,8.577-18.535,12.378-32.024,3.794-13.495,7.663-30.981,11.591-52.457l23.183-123.775c2.358-11.003-1.836-18.99-12.574-23.969l-5.501-2.358.394-4.322,73.479-21.219,3.143,3.144-33.399,170.927c-7.601,38.766-20.432,67.321-38.507,85.661-7.337,8.117-16.246,14.796-26.719,20.039-10.481,5.238-22.398,8.381-35.758,9.431ZM3948.96,178.805c-7.337,0-13.753-2.419-19.254-7.269-5.501-4.844-8.251-11.328-8.251-19.45,0-9.167,3.204-16.7,9.627-22.594,6.416-5.894,13.685-8.841,21.808-8.841,7.859,0,14.343,2.493,19.45,7.466,5.108,4.979,7.663,11.395,7.663,19.254,0,8.909-3.144,16.374-9.431,22.397-6.286,6.029-13.495,9.038-21.611,9.038Z"></path>
    <path class="cls-1" fill="#FFFFFF" d="M4055.839,401.6c-13.624,0-26.069-2.689-37.329-8.055-11.266-5.366-20.175-13.489-26.719-24.362-6.551-10.868-9.824-24.688-9.824-41.455s2.813-32.742,8.449-47.938c5.629-15.189,13.556-28.746,23.772-40.669,10.216-11.917,22.134-21.28,35.758-28.094,13.617-6.809,28.42-10.216,44.401-10.216,13.882,0,26.259,2.689,37.132,8.055,10.868,5.372,19.512,13.427,25.934,24.165,6.415,10.745,9.627,24.497,9.627,41.258,0,16.504-2.817,32.418-8.448,47.742-5.636,15.325-13.495,28.949-23.576,40.866-10.087,11.923-21.876,21.354-35.364,28.292-13.495,6.938-28.095,10.413-43.812,10.413ZM4060.554,393.741c8.117,0,15.52-3.733,22.2-11.199,6.68-7.465,12.507-17.418,17.485-29.863,4.973-12.438,8.774-26.192,11.395-41.258,2.615-15.06,3.93-30.06,3.93-44.992,0-21.741-2.23-36.801-6.68-45.187-4.457-8.381-10.216-12.575-17.289-12.575-8.387,0-16.11,3.672-23.183,11.003-7.074,7.337-13.231,17.16-18.468,29.47-5.243,12.316-9.302,25.934-12.181,40.866-2.886,14.931-4.322,29.863-4.322,44.794,0,22.269,2.615,37.661,7.859,46.171,5.237,8.516,11.653,12.77,19.254,12.77Z"></path>
    <path class="cls-1" fill="#FFFFFF" d="M4186.685,398.456l-3.93-2.75,29.863-143.815c1.308-6.809.915-11.85-1.179-15.129-2.1-3.273-5.636-5.956-10.609-8.055l-5.894-2.75.786-3.93,68.37-21.612,3.929,3.536-10.609,64.835c5.501-12.574,11.917-23.969,19.254-34.185,7.331-10.216,15.06-18.4,23.183-24.558,8.117-6.152,16.239-9.234,24.362-9.234s14.668,2.16,19.647,6.483c4.973,4.322,7.466,10.02,7.466,17.093,0,7.337-2.161,13.36-6.484,18.075-4.322,4.715-10.155,7.073-17.485,7.073-5.765,0-11.266-1.504-16.503-4.519-5.243-3.008-10.352-7.398-15.325-13.163-9.172,6.815-17.031,15.656-23.576,26.523-6.551,10.874-12.574,22.73-18.075,35.561l-3.929,18.075c-2.886,13.888-5.636,27.77-8.251,41.652-2.622,13.888-5.243,27.899-7.859,42.044l-47.152,2.75Z"></path>
  </g>
  <g>
    <path class="cls-1" fill="#FFFFFF" d="M550.964,198.029c-62.831,0-113.764,50.935-113.764,113.763,0,62.829,50.934,113.763,113.764,113.763s113.762-50.934,113.762-113.763-50.934-113.763-113.762-113.763h0ZM550.964,368.448c-31.241,0-56.657-25.416-56.657-56.656s25.416-56.656,56.657-56.656,56.656,25.416,56.656,56.656c0,31.24-25.415,56.656-56.656,56.656Z"></path>
    <path class="cls-1" fill="#FFFFFF" d="M1685.993,198.029h-18.877c-62.83,0-113.763,50.935-113.763,113.763,0,.139.006.279.007.418h-.007v101.806c0,6.372,5.166,11.539,11.539,11.539h34.029c6.373,0,11.539-5.166,11.539-11.539v-102.225c0-31.241,25.415-56.656,56.656-56.656h18.877c6.373,0,11.539-5.166,11.539-11.539v-34.029c0-6.372-5.166-11.539-11.539-11.539h0Z"></path>
    <path class="cls-1" fill="#FFFFFF" d="M263.685,175.129c43.966-6.258,83.403,17.147,101.249,53.09,1.939,3.906,6.039,6.267,10.4,6.267h36.81c7.889,0,13.626-7.803,10.965-15.23-21.658-60.469-79.973-103.487-148.18-102.218-79.551,1.48-146.092,64.977-151.028,144.388-5.575,89.67,65.501,164.131,153.965,164.131,66.94,0,123.896-42.645,145.243-102.243,2.66-7.428-3.076-15.232-10.965-15.232h-36.834c-4.348,0-8.434,2.354-10.367,6.249-15.899,32.037-48.951,54.119-87.077,54.119-57.238,0-103.075-49.749-96.544-108.28,4.835-43.328,39.201-78.899,82.364-85.041h0Z"></path>
    <path class="cls-1" fill="#FFFFFF" d="M1514.41,199.427l-32.402,16.871c-17.828-11.602-39.093-18.367-61.949-18.367-62.831,0-113.764,50.934-113.764,113.763s50.934,113.762,113.764,113.762c23.368,0,45.083-7.055,63.15-19.137l30.775,17.481c8.853,5.028,19.838-1.364,19.838-11.545v-201.053c0-9.967-10.572-16.381-19.411-11.778h0ZM1420.058,368.351c-31.241,0-56.657-25.416-56.657-56.655,0-31.239,25.416-56.656,56.657-56.656s56.656,25.415,56.656,56.656-25.415,56.655-56.656,56.655Z"></path>
    <path class="cls-1" fill="#FFFFFF" d="M1176.425,198.006c-23.368-.012-45.085,7.032-63.16,19.105l-30.766-17.497c-8.85-5.033-19.839,1.355-19.843,11.535l-.101,201.053c0,.131.021.254.025.384v71.104c0,6.372,5.166,11.539,11.539,11.539h34.029c6.373,0,11.539-5.166,11.539-11.539v-73.314c16.675,9.612,35.994,15.146,56.624,15.157,62.831.031,113.79-50.876,113.821-113.707.031-62.83-50.877-113.789-113.708-113.819h0ZM1176.34,368.424c-31.241-.016-56.643-25.443-56.628-56.684.016-31.239,25.443-56.642,56.684-56.627,31.241.016,56.644,25.443,56.629,56.683-.016,31.242-25.444,56.643-56.685,56.628Z"></path>
    <path class="cls-1" fill="#FFFFFF" d="M1912.01,199.427l-32.402,16.871c-17.828-11.602-39.093-18.367-61.949-18.367-62.831,0-113.764,50.934-113.764,113.763s50.934,113.762,113.764,113.762c23.368,0,45.083-7.055,63.15-19.137l30.775,17.481c8.853,5.028,19.838-1.364,19.838-11.545v-201.053c0-9.967-10.572-16.381-19.412-11.778h0ZM1817.659,368.351c-31.241,0-56.657-25.416-56.657-56.655s25.416-56.656,56.657-56.656,56.656,25.415,56.656,56.656-25.415,56.655-56.656,56.655Z"></path>
    <path class="cls-1" fill="#FFFFFF" d="M939.86,197.781c-30.379-.518-57.871,12.508-77.295,33.326-18.711-20.08-45.195-32.825-74.624-33.326-58.468-.997-106.321,48.103-106.321,106.579v109.671c0,6.364,5.159,11.524,11.524,11.524h34.061c6.364,0,11.524-5.159,11.524-11.524v-111.753c0-26.931,22.574-48.688,49.793-47.345,25.464,1.257,45.016,23.227,45.016,48.721v110.376c0,.796.081,1.573.235,2.322.231,1.126.624,2.191,1.157,3.17.71,1.307,1.664,2.461,2.803,3.4.569.47,1.184.885,1.837,1.24,1.633.887,3.505,1.391,5.493,1.391h34.061c6.364,0,11.524-5.159,11.524-11.524v-111.753c0-26.931,22.574-48.688,49.793-47.345,25.464,1.257,45.016,23.227,45.016,48.721v110.376c0,6.364,5.159,11.524,11.524,11.524h34.061c6.364,0,11.524-5.159,11.524-11.524v-111.753c0-57.024-45.908-103.53-102.707-104.498l-.004.002h0Z"></path>
  </g>
</svg>