<?xml version="1.0" encoding="UTF-8"?>
<svg id="Auto_CL" xmlns="http://www.w3.org/2000/svg" version="1.1" viewBox="0 0 200 100">
  <!-- Generator: Adobe Illustrator 30.3.0, SVG Export Plug-In . SVG Version: 2.1.3 Build 182)  -->
  <path d="M34.383,46.445c-.008-.217-.024-.434-.024-.651-.001-3.832-.002-7.663.001-11.495,0-.213-.045-.433.043-.637.117-.103.253-.065.377-.066,6.595-.002,13.191-.002,19.786-.001.152,0,.304.009.457.014,1.6,1.467,2.687,3.219,2.934,5.411.192,1.705-.074,3.317-1.104,4.751-.904,1.258-2.196,1.928-3.607,2.415-1.733.597-3.541.801-5.355.892-2.431.122-4.864.03-7.291-.134-.648-.044-1.298-.072-1.946-.126-1.424-.119-2.847-.247-4.27-.372Z" fill="#004aa1"/>
  <path d="M34.383,46.445c1.423.125,2.846.253,4.27.372.648.054,1.298.082,1.946.126,2.427.164,4.86.256,7.291.134,1.813-.091,3.621-.295,5.355-.892,1.412-.487,2.704-1.157,3.607-2.415,1.03-1.433,1.296-3.045,1.104-4.751-.247-2.192-1.335-3.944-2.934-5.411.2-.131.421-.055.631-.057,1.172-.009,2.344-.006,3.516-.004.215,0,.436-.037.636.082.363.664.742,1.32,1.02,2.028.8,2.044,1.12,4.155.669,6.314-.557,2.668-2.054,4.75-4.271,6.311-1.691,1.191-3.58,1.861-5.659,1.999.191.176.429.228.646.309,4.238,1.57,8.233,3.62,12.029,6.065.929.598,1.846,1.214,2.769,1.822.035,1.485.035,2.97,0,4.455-.127-.081-.262-.152-.38-.245-3.782-2.965-7.886-5.394-12.272-7.347-3.993-1.778-8.121-3.148-12.395-4.084-2.497-.547-5.008-.967-7.556-1.166-.096-1.215-.055-2.43-.022-3.645Z" fill="#f7b101"/>
  <path d="M67.008,58.477c-.923-.608-1.84-1.224-2.769-1.822-3.796-2.445-7.791-4.495-12.029-6.065-.217-.08-.455-.132-.646-.309,2.079-.138,3.967-.808,5.659-1.999,2.216-1.56,3.713-3.642,4.271-6.311.451-2.159.131-4.27-.669-6.314-.277-.708-.656-1.364-1.02-2.028.759-.077,1.52-.029,2.279-.034,1.413-.009,2.827-.005,4.24,0,.213,0,.431-.037.64.039.113.184.062.385.062.575.003,7.937.003,15.875.002,23.812,0,.152-.013.303-.02.455Z" fill="#004aa1"/>
  <path d="M75.438,33.616c.198-.108.419-.051.631-.051,3.81-.004,7.621-.006,11.431-.003,2.662.002,4.56,1.494,5.09,4.109.27,1.331.173,2.681-.369,3.953-.408.955-1.119,1.641-2.063,2.08-.172.08-.348.151-.594.257,1.165,2.038,2.309,4.041,3.487,6.102h-3.78c-1.103-1.894-2.234-3.838-3.375-5.798h-6.363v5.801h-3.304c-.119-.2-.051-.444-.052-.674-.005-4.704-.007-9.407.001-14.111.001-.569,0-1.096-.666-1.323-.137-.046-.155-.198-.075-.343ZM79.581,41.038c.135.017.198.032.261.032,2.372.001,4.744,0,7.116.004.331,0,.655-.052.966-.137.623-.17,1.072-.568,1.294-1.183.536-1.491-.33-3.03-2.07-3-2.371.042-4.744.01-7.116.013-.145,0-.305-.051-.451.086v4.184Z" fill="#014ba2"/>
  <path d="M61.056,66.299h-26.656v-9.831c9.632,1.198,18.576,4.165,26.656,9.831Z" fill="#004aa2"/>
  <path d="M150.145,50.068c0-.276,0-.514,0-.751,0-4.706-.006-9.411.008-14.117.002-.566-.047-1.041-.668-1.252-.114-.039-.131-.161-.078-.316h15.733v3.061h-11.635v3.423h8.019v3.168h-8.019v3.66h12.151v3.124h-15.51Z" fill="#004aa2"/>
  <path d="M111.612,46.956v3.123h-15.38c-.124-.217-.059-.461-.059-.691-.005-4.705-.008-9.41.001-14.115.001-.572-.01-1.098-.675-1.322-.108-.036-.122-.169-.064-.321h15.577c.134.442.156,2.317.019,3.076h-11.546v3.408c.887.005,1.771.012,2.656.014.893.002,1.786,0,2.679,0h2.701v3.157h-8.028v3.67h12.12Z" fill="#004aa2"/>
  <path d="M117.988,46.576c-.529,1.176-1.052,2.337-1.58,3.511h-3.372c.676-1.526,1.339-3.028,2.007-4.527,1.461-3.28,2.925-6.559,4.386-9.84.088-.197.192-.394.236-.603.09-.423.085-.834-.382-1.065-.173-.086-.289-.194-.195-.449h5.464c2.416,5.442,4.851,10.928,7.309,16.465h-3.38c-.505-1.13-1.024-2.292-1.56-3.492h-8.933ZM122.428,36.613c-1.033,2.32-1.999,4.486-2.982,6.694h5.969c-.99-2.218-1.954-4.379-2.986-6.694Z" fill="#014ba2"/>
  <path d="M34.405,50.09c2.548.199,5.059.62,7.556,1.166,4.274.936,8.402,2.306,12.395,4.084,4.386,1.953,8.49,4.382,12.272,7.347.118.093.253.164.38.245v3.295c-9.598-7.599-20.432-12.145-32.655-13.383.035-.937-.055-1.846.053-2.755Z" fill="#014ba2"/>
  <path d="M133.072,33.632h4.055v13.31h10.626v3.125h-13.888c-.116-.204-.051-.448-.052-.678-.005-4.705-.008-9.411.002-14.116.001-.575-.016-1.095-.676-1.319-.111-.037-.122-.168-.066-.321Z" fill="#004aa2"/>
  <path d="M111.217,57.553c-.961.409-1.889.804-2.8,1.192-.105-.101-.109-.193-.067-.269.199-.359-.007-.576-.268-.765-.6-.436-1.301-.614-2.017-.643-.925-.037-1.807.19-2.588.718-1.995,1.35-2.145,4.441.071,5.885,1.888,1.23,4.541.755,5.859-.832.165-.199.327-.398.387-.752h-4.265c-.057-.673-.024-1.314-.02-1.949.48-.132,6.04-.161,6.793-.036.106,2.184-.574,3.998-2.452,5.258-2.166,1.452-5.663,1.515-7.796-.101-1.419-1.076-2.176-2.482-2.235-4.28-.045-1.375.256-2.629,1.13-3.707,1.045-1.289,2.405-2.01,4.055-2.207,1.387-.166,2.73-.035,4.004.553.901.416,1.624,1.056,2.207,1.934Z" fill="#024da2"/>
  <path d="M136.964,62.214c.73,1.273,1.462,2.547,2.229,3.884h-2.466c-.72-1.23-1.472-2.514-2.212-3.779h-4.198v3.777h-2.089c-.095-.209-.05-.449-.05-.679-.004-2.875-.002-5.751-.002-8.626q0-.846-.516-1.381c.161-.109.336-.071.496-.071,2.548-.003,5.096-.008,7.645.001,1.616.005,2.924,1.221,3.122,2.831.087.702.052,1.38-.139,2.058-.227.803-.717,1.371-1.467,1.727-.113.054-.265.049-.353.258ZM130.386,60.189c1.764,0,3.457.02,5.15-.009.861-.015,1.434-.852,1.23-1.701-.153-.636-.668-1.051-1.382-1.057-1.587-.012-3.175-.003-4.762-.003-.09,0-.171.02-.235.099v2.67Z" fill="#024da2"/>
  <path d="M75.39,64.354c.416-.601.797-1.151,1.193-1.723.814.539,1.616,1.007,2.507,1.291,1.266.403,2.553.489,3.844.162.532-.135,1.016-.389,1.219-.971.172-.492.051-.876-.417-1.077-.543-.233-1.131-.272-1.718-.293-1.193-.043-2.383-.121-3.548-.399-.591-.141-1.152-.359-1.655-.723-1.328-.961-1.27-3.371.086-4.458.848-.68,1.848-.978,2.885-1.059,1.516-.119,3.036-.073,4.495.474.325.122.645.25.952.408.327.169.642.36.983.649-.482.67-.965,1.342-1.545,2.147-.078-.749-.539-.923-1.003-1.116-1.476-.613-2.996-.624-4.534-.338-.229.042-.454.144-.645.298-.539.435-.48,1.081.158,1.348.5.209,1.042.273,1.59.291,1.214.04,2.427.114,3.614.394.568.134,1.121.317,1.609.661.666.469,1.025,1.107,1.046,1.919.012.454.046.911-.065,1.362-.293,1.186-1.102,1.899-2.188,2.309-1.149.434-2.351.517-3.579.448-1.296-.074-2.521-.355-3.68-.939-.564-.284-1.088-.62-1.604-1.064Z" fill="#024da2"/>
  <path d="M154.456,64.359c.413-.601.791-1.152,1.189-1.733.598.379,1.157.743,1.771,1.01,1.475.642,2.995.815,4.567.456.342-.078.654-.236.91-.482.295-.284.47-.607.369-1.041-.109-.466-.484-.611-.866-.676-.489-.084-.984-.141-1.485-.162-1.276-.055-2.556-.113-3.788-.511-.103-.033-.202-.075-.304-.111-.96-.345-1.666-.937-1.835-1.995-.196-1.222.106-2.272,1.13-3.057.806-.617,1.753-.878,2.722-.954,1.538-.121,3.077-.065,4.556.487.742.277,1.333.592,1.87,1.077-.474.655-.951,1.315-1.515,2.094-.106-.782-.627-.964-1.128-1.154-1.397-.528-2.833-.567-4.287-.307-.279.05-.546.146-.771.325-.54.43-.48,1.08.154,1.347.521.219,1.085.274,1.654.293,1.17.039,2.338.118,3.484.384.549.127,1.08.297,1.562.6.734.462,1.122,1.132,1.156,1.992.019.474.047.951-.082,1.423-.314,1.15-1.104,1.845-2.17,2.245-1.151.432-2.351.515-3.577.45-1.319-.07-2.564-.369-3.739-.966-.541-.275-1.045-.609-1.548-1.035Z" fill="#024da2"/>
  <path d="M146.79,66.456c-1.536-.019-2.948-.403-4.156-1.405-1.122-.93-1.759-2.106-1.915-3.564-.156-1.453.056-2.811.928-4.011,1.024-1.409,2.424-2.185,4.147-2.407,1.479-.191,2.898-.02,4.228.678,2.077,1.091,3.089,3.229,2.915,5.579-.2,2.701-2.514,4.704-4.85,5.016-.432.058-.859.12-1.296.114ZM150.682,60.692c-.005-1.717-1.032-3.06-2.683-3.469-.677-.167-1.361-.177-2.061-.067-1.483.233-2.621,1.396-2.895,2.642-.329,1.493.146,3.01,1.288,3.838.872.633,1.866.785,2.905.709,2.106-.153,3.452-1.59,3.446-3.654Z" fill="#024da2"/>
  <path d="M91.093,57.349v2.257h5.291c.083.704.04,1.346.032,2.061h-5.312v2.4h7.897c.081.699.052,1.338.024,2.009h-10.002c-.158-.218-.085-.466-.085-.695-.006-2.917-.007-5.834-.002-8.751,0-.463.042-.93-.599-1.124.534-.206,8.689-.273,10.324-.123v1.966h-7.569Z" fill="#004aa1"/>
  <path d="M113.841,55.364h2.529c.125.185.069.385.07.573.005,1.96.002,3.921.003,5.881,0,1.231.45,1.904,1.623,2.295,1.231.411,2.47.405,3.678-.12.916-.398,1.341-1.112,1.337-2.105-.006-1.938-.002-3.877-.002-5.816,0-.216,0-.432,0-.69h2.049c.145.14.067.348.068.532.006,2.222-.009,4.443.009,6.665.009,1.137-.48,2.001-1.343,2.687-.934.741-2.041,1.054-3.193,1.157-1.417.127-2.82.014-4.134-.618-1.019-.49-1.802-1.2-2.115-2.326-.14-.504-.16-1.028-.161-1.549-.003-1.808,0-3.616-.003-5.423,0-.405.1-.855-.583-.986.056-.052.113-.103.169-.155Z" fill="#014ba2"/>
  <metadata>
    <sfw xmlns="http://ns.adobe.com/SaveForWeb/1.0/">
      <slices/>
      <sliceSourceBounds x="-1166.61" y="-1335.63" width="3345.68" height="1186.38" bottomLeftOrigin="true"/>
    </sfw>
  </metadata>
</svg>