<?xml version="1.0" encoding="UTF-8"?>
<svg id="white" xmlns="http://www.w3.org/2000/svg" viewBox="0 0 1920 461.013">
  <defs></defs>
  <path class="cls-1" fill="#FFFFFF" d="M470.932,119.908c-64.289,0-116.405,52.117-116.405,116.404s52.116,116.404,116.405,116.404,116.403-52.116,116.403-116.404-52.116-116.404-116.403-116.404h0ZM470.932,294.283c-31.966,0-57.972-26.006-57.972-57.971s26.006-57.971,57.972-57.971,57.971,26.006,57.971,57.971-26.005,57.971-57.971,57.971Z"></path>
  <path class="cls-1" fill="#FFFFFF" d="M1632.306,119.908h-19.315c-64.288,0-116.404,52.117-116.404,116.404,0,.142.006.285.007.428h-.007v104.169c0,6.52,5.286,11.807,11.807,11.807h34.819c6.521,0,11.807-5.286,11.807-11.807v-104.598c0-31.966,26.005-57.971,57.971-57.971h19.315c6.521,0,11.807-5.286,11.807-11.807v-34.819c0-6.52-5.286-11.807-11.807-11.807h0Z"></path>
  <path class="cls-1" fill="#FFFFFF" d="M176.984,96.476c44.987-6.403,85.339,17.545,103.599,54.322,1.984,3.997,6.179,6.412,10.641,6.412h37.664c8.072,0,13.942-7.984,11.22-15.583-22.161-61.873-81.829-105.889-151.62-104.591-81.397,1.514-149.483,66.485-154.534,147.739-5.704,91.751,67.021,167.941,157.539,167.941,68.494,0,126.772-43.635,148.614-104.616,2.722-7.6-3.147-15.586-11.22-15.586h-37.689c-4.449,0-8.63,2.409-10.608,6.394-16.268,32.781-50.087,55.375-89.098,55.375-58.567,0-105.468-50.904-98.785-110.793,4.947-44.334,40.111-80.73,84.276-87.015h0Z"></path>
  <path class="cls-1" fill="#FFFFFF" d="M1456.741,121.338l-33.154,17.263c-18.242-11.871-40-18.793-63.387-18.793-64.289,0-116.405,52.116-116.405,116.404s52.116,116.403,116.405,116.403c23.91,0,46.129-7.219,64.616-19.581l31.489,17.887c9.058,5.145,20.298-1.396,20.298-11.813v-205.72c0-10.198-10.817-16.761-19.862-12.051h0ZM1360.199,294.183c-31.966,0-57.972-26.006-57.972-57.97s26.006-57.971,57.972-57.971,57.971,26.005,57.971,57.971-26.005,57.97-57.971,57.97Z"></path>
  <path class="cls-1" fill="#FFFFFF" d="M1110.911,119.884c-23.91-.012-46.132,7.195-64.626,19.548l-31.48-17.903c-9.055-5.15-20.299,1.386-20.304,11.803l-.103,205.72c0,.134.022.26.026.393v72.754c0,6.52,5.286,11.807,11.807,11.807h34.819c6.521,0,11.807-5.286,11.807-11.807v-75.016c17.062,9.835,36.83,15.498,57.938,15.509,64.289.032,116.431-52.057,116.463-116.346.032-64.288-52.058-116.43-116.347-116.461h0ZM1110.824,294.258c-31.966-.016-57.958-26.034-57.942-58,.016-31.964,26.034-57.957,58-57.941,31.966.016,57.959,26.034,57.943,57.999-.016,31.967-26.035,57.958-58.001,57.942Z"></path>
  <path class="cls-1" fill="#FFFFFF" d="M1863.57,121.338l-33.154,17.263c-18.242-11.871-40-18.793-63.387-18.793-64.289,0-116.405,52.116-116.405,116.404s52.116,116.403,116.405,116.403c23.91,0,46.129-7.219,64.616-19.581l31.489,17.887c9.058,5.145,20.299-1.396,20.299-11.813v-205.72c0-10.198-10.817-16.761-19.863-12.051h0ZM1767.029,294.183c-31.966,0-57.972-26.006-57.972-57.97s26.006-57.971,57.972-57.971,57.971,26.005,57.971,57.971-26.005,57.97-57.971,57.97Z"></path>
  <path class="cls-1" fill="#FFFFFF" d="M868.854,119.654c-31.084-.53-59.214,12.798-79.089,34.1-19.145-20.546-46.244-33.587-76.356-34.1-59.825-1.02-108.789,49.22-108.789,109.053v112.217c0,6.512,5.279,11.791,11.792,11.791h34.852c6.512,0,11.792-5.279,11.792-11.791v-114.347c0-27.556,23.098-49.818,50.949-48.444,26.055,1.286,46.061,23.766,46.061,49.852v112.938c0,.814.083,1.609.24,2.376.236,1.152.639,2.242,1.184,3.244.726,1.337,1.703,2.518,2.868,3.479.582.481,1.212.906,1.88,1.269,1.671.908,3.586,1.423,5.621,1.423h34.852c6.512,0,11.792-5.279,11.792-11.791v-114.347c0-27.556,23.098-49.818,50.949-48.444,26.055,1.286,46.061,23.766,46.061,49.852v112.938c0,6.512,5.279,11.791,11.792,11.791h34.852c6.512,0,11.792-5.279,11.792-11.791v-114.347c0-58.348-46.974-105.933-105.091-106.923l-.004.002Z"></path>
</svg>