<?xml version="1.0" encoding="UTF-8"?>
<svg id="contenedores" xmlns="http://www.w3.org/2000/svg" viewBox="0 0 2007.101 531.308">
  <defs>
    
  </defs>
  <path class="cls-1" fill="#FFFFFF" d="M298.87,42.353h1409.361v279.126c0,92.495-75.029,167.476-167.475,167.476H466.345c-92.491,0-167.475-74.981-167.475-167.476V42.353Z"></path>
  <g>
    <path class="cls-2" fill="#103AD9" d="M724.325,221.972c-36.744,0-66.533,29.851-66.533,66.672s29.789,66.671,66.533,66.671,66.521-29.85,66.521-66.671-29.789-66.672-66.521-66.672ZM724.325,321.846c-18.267,0-33.138-14.895-33.138-33.203s14.871-33.204,33.138-33.204,33.126,14.895,33.126,33.204-14.861,33.203-33.126,33.203Z"></path>
    <path class="cls-2" fill="#103AD9" d="M1388.019,221.972h-11.053c-36.733,0-66.544,29.851-66.544,66.672v.246h0v59.664c0,3.735,3.127,6.763,6.811,6.763h19.874c3.684,0,6.811-3.028,6.811-6.763v-59.909c0-18.31,14.85-33.204,33.049-33.204h11.053c3.684,0,6.811-3.028,6.811-6.763v-19.943c0-3.735-3.127-6.763-6.811-6.763Z"></path>
    <path class="cls-2" fill="#103AD9" d="M556.313,208.56c25.714-3.668,48.769,10.049,59.209,31.114,1.127,2.289,3.528,3.672,6.074,3.672h21.526c4.611,0,7.972-4.573,6.408-8.925-12.661-35.439-46.759-60.65-86.641-59.906-46.525.868-85.435,38.081-88.315,84.62-3.26,52.55,38.296,96.19,90.023,96.19,39.145,0,72.45-24.993,84.932-59.921,1.563-4.353-1.798-8.926-6.408-8.926h-21.538c-2.545,0-4.935,1.379-6.062,3.662-9.301,18.775-28.627,31.717-50.924,31.717-33.462,0-60.269-29.156-56.45-63.459,2.825-25.393,22.922-46.238,48.166-49.838h0Z"></path>
    <path class="cls-2" fill="#103AD9" d="M1287.645,222.786l-18.87,9.888c-10.494-6.8-22.889-10.764-36.286-10.764-36.733,0-66.432,29.85-66.432,66.672s29.699,66.671,66.432,66.671c13.733,0,26.349-4.136,36.957-11.215l17.976,10.245c5.247,2.946,11.611-.799,11.611-6.766v-117.829c0-5.84-6.14-9.6-11.387-6.901ZM1232.489,321.784c-18.199,0-33.049-14.895-33.049-33.203s14.85-33.204,33.049-33.204c18.311,0,33.16,14.895,33.16,33.204s-14.849,33.203-33.16,33.203Z"></path>
    <path class="cls-2" fill="#103AD9" d="M1090.024,221.951c-13.621-.008-26.349,4.121-36.956,11.196l-17.976-10.255c-5.136-2.949-11.611.794-11.611,6.76v159.725c0,3.734,3.014,6.763,6.699,6.763h19.985c3.685,0,6.699-3.028,6.699-6.763v-42.966c9.714,5.633,21.102,8.876,33.16,8.883,36.733.018,66.544-29.816,66.544-66.639s-29.81-66.688-66.544-66.704ZM1090.024,321.825c-18.311-.01-33.16-14.912-33.16-33.22s14.849-33.196,33.16-33.187c18.311.01,33.16,14.912,33.16,33.22s-14.961,33.196-33.16,33.187Z"></path>
    <path class="cls-2" fill="#103AD9" d="M1520.212,222.786l-18.981,9.888c-10.383-6.8-22.887-10.764-36.175-10.764-36.844,0-66.543,29.85-66.543,66.672s29.699,66.671,66.543,66.671c13.622,0,26.351-4.136,36.845-11.215l17.976,10.245c5.247,2.946,11.612-.799,11.612-6.766v-117.829c0-5.84-6.141-9.6-11.277-6.901ZM1465.057,321.784c-18.309,0-33.16-14.895-33.16-33.203s14.85-33.204,33.16-33.204c18.199,0,33.049,14.895,33.049,33.204s-14.85,33.203-33.049,33.203Z"></path>
    <path class="cls-2" fill="#103AD9" d="M951.689,221.811c-17.719-.304-33.796,7.33-45.151,19.531-10.942-11.768-26.428-19.237-43.633-19.531-34.198-.585-62.178,28.191-62.178,62.461v64.274c0,3.73,3.015,6.754,6.744,6.754h19.918c3.718,0,6.733-3.023,6.733-6.754v-65.493c0-15.783,13.208-28.534,29.118-27.747,14.895.737,26.327,13.612,26.327,28.553v64.687c0,.466.044.921.134,1.361.134.659.368,1.284.681,1.858.413.766.971,1.441,1.63,1.992.335.276.703.519,1.083.727.949.52,2.044.815,3.204.815h19.919c3.729,0,6.743-3.023,6.743-6.753v-65.494c0-15.783,13.197-28.533,29.063-27.746,14.961.736,26.349,13.611,26.349,28.552v64.687c0,3.73,3.015,6.754,6.811,6.754h19.874c3.685,0,6.699-3.023,6.699-6.754v-65.493c0-33.42-26.796-60.674-60.068-61.241h0Z"></path>
  </g>
</svg>