<?xml version="1.0" encoding="UTF-8"?>
<svg id="Auto_CL" xmlns="http://www.w3.org/2000/svg" version="1.1" viewBox="0 0 200 100">
  <!-- Generator: Adobe Illustrator 30.3.0, SVG Export Plug-In . SVG Version: 2.1.3 Build 182)  -->
  <path d="M115.747,21.424c7.588,1.041,13.595,5.521,15.27,12.619.917,3.883.906,7.764-.342,11.578-1.859,5.678-5.88,9.152-11.432,11.014-3.159,1.06-6.419,1.52-9.739,1.542-4.473.03-8.947.01-13.42.007-.268,0-.553.058-.965-.27v-1.633c0-11.211,0-22.422-.002-33.634,0-.607-.028-1.213-.044-1.82,6.188,0,19.977.5,20.673.596ZM107.72,47.961c2.564.058,5.058.198,7.403-1.062,1.688-.907,2.839-2.224,3.465-4.013.559-1.598.532-3.249.368-4.901-.3-3.019-1.867-5.091-4.701-6.201-2.104-.824-4.283-.734-6.535-.671v16.848Z" fill="#006a1f"/>
  <path d="M90.101,20.829c.009,12.194.018,24.388.023,36.582,0,.211-.052.421-.09.702h-12.367v-12.439c.21-4.112.137-8.224.038-12.336.021-.822.054-1.645.061-2.467.028-3.347.047-6.694.069-10.042h12.265Z" fill="#006a1f"/>
  <path d="M65.303,45.684c-.019,3.489-.036,6.978-.057,10.467-.004.599-.02,1.199-.031,1.798-.121.077-.243.153-.364.23-3.832.001-7.663.003-11.495.004-.617-.519-.362-1.228-.363-1.854-.017-11.833-.016-23.667-.019-35.5h12.265c.021,4.179.042,8.358.063,12.536v12.319Z" fill="#006a1f"/>
  <path d="M147.118,20.829c.016,1.488.045,2.977.045,4.465.004,10.315.005,20.63-.005,30.944,0,.594.141,1.21-.175,1.838h-11.957c-.226-.289-.203-.57-.203-.843.009-12.135.019-24.269.029-36.404,4.088,0,8.177,0,12.265,0Z" fill="#006a1f"/>
  <path d="M126.897,79.171c-.978-.661-2.179-.921-3.029-1.834-1.812-1.949-2.349-4.206-1.474-6.665.85-2.388,2.554-3.842,5.202-4.162,3.618-.437,6.201,1.794,6.996,4.338,1.158,3.702-1.559,7.798-4.697,8.03-.122.009-.231.192-.346.293h-2.652ZM132.565,72.854c.14-2.338-1.451-4.5-3.987-4.524-2.657-.025-4.275,1.864-4.301,4.388-.023,2.259,1.546,4.385,4.287,4.443,2.049.043,4.286-2.032,4.001-4.306Z" fill="#949597"/>
  <path d="M83.14,79.171c-.61-.326-1.229-.636-1.828-.98-2.604-1.498-3.268-4.36-2.725-6.877.505-2.346,2.219-4.425,5.216-4.788,2.054-.249,3.879.115,5.539,1.418-.127.704-.606,1.134-1.149,1.64-1.17-.81-2.453-1.444-3.918-1.225-1.11.166-2.049.744-2.748,1.67-1.1,1.458-1.006,4.193.214,5.688,1.396,1.711,3.479,1.92,5.939.593.201-.353.103-.747.118-1.125.015-.377.003-.754.003-1.271h-2.903c-.188-.706-.184-1.273-.017-1.902h5.049c.281,1.709.019,3.347.153,4.914-1.035,1.396-2.654,1.545-3.961,2.246h-2.983Z" fill="#949597"/>
  <path d="M141.151,79.171c-1.061-.711-2.43-.919-3.335-2.049.325-.509.745-.92,1.241-1.318.858.359,1.55,1.069,2.487,1.226,1.02.17,2.069.444,2.977-.36.908-.805.788-1.864-.31-2.39-.437-.21-.94-.281-1.411-.421-.837-.25-1.691-.457-2.505-.768-1.307-.499-2.048-1.512-2.074-2.892-.026-1.349.589-2.42,1.823-3.092,2.037-1.11,4.891-.713,6.726.971-.064.577-.591.883-.843,1.441-.967-.23-1.726-.934-2.706-1.099-.437-.074-.85-.221-1.282-.057-.678.258-1.366.531-1.441,1.397-.076.879.504,1.284,1.221,1.538.565.201,1.134.426,1.721.52,1.769.285,3.124,1.141,4.01,2.711v1.989c-.814,1.248-1.931,2.117-3.315,2.652h-2.983Z" fill="#949597"/>
  <path d="M56.289,79.171c-.47-.487-1.177-.495-1.715-.847-.539-.352-1.083-.697-1.693-1.089.401-.534.721-.959,1.038-1.382.653-.067,1.054.356,1.493.648.971.648,2.049.749,3.159.66.779-.063,1.555-.734,1.672-1.37.134-.727-.261-1.26-1.297-1.618-.979-.339-1.968-.657-2.971-.913-1.564-.4-2.506-1.327-2.628-3.149-.095-1.414,1.043-2.971,2.663-3.359,2.14-.512,4.229-.349,5.999,1.361-.36.503-.672.939-1.044,1.461-.828-.555-1.719-.927-2.667-1.174-.384-.1-.747-.165-1.13-.076-.883.206-1.511.82-1.537,1.494-.035.892.575,1.268,1.279,1.5.723.239,1.496.334,2.209.596,1.065.392,2.239.667,2.865,1.764,1.222,2.143.17,3.961-1.426,4.898-.42.247-1.028.045-1.284.594h-2.983Z" fill="#949597"/>
  <path d="M97.394,79.171c-.59-.647-1.492-.835-2.093-1.507-.73-.815-1.229-1.688-1.236-2.784-.017-2.695-.006-5.391-.006-8.093.608-.354,1.205-.187,1.776-.165.379.393.222.857.226,1.277.018,2.039-.04,4.081.029,6.118.046,1.334.571,2.476,1.954,2.957,1.228.427,2.389.297,3.359-.649.761-.742.939-1.704.941-2.716.003-2.259.001-4.518.001-6.806.64-.386,1.269-.196,2.005-.179,0,2.84.112,5.587-.036,8.319-.114,2.109-1.448,3.384-3.586,3.932-.134.034-.235.195-.352.297h-2.983Z" fill="#949597"/>
  <path d="M52.974,20.829c.003,11.833.002,23.667.019,35.5,0,.627-.254,1.336.363,1.854-.238.035-.476.07-.714.105,0-12.157-.004-24.313.02-36.47,0-.313-.401-.861.311-.989Z" fill="#949597"/>
  <path d="M65.302,33.365c4.135-.009,8.269-.019,12.404-.028.099,4.112.172,8.225-.038,12.336-4.121.003-8.243.007-12.364.01v-12.319Z" fill="#f80201"/>
  <path d="M116.812,78.884c-1.438-1.292-2.022-3.057-3.313-4.27h-2.492v4.146c-.803.162-1.445.14-2.203.039v-12.172c2.162,0,4.38-.236,6.523.064,2.317.324,3.246,1.48,3.55,3.351.244,1.502-.357,3.106-2.406,4.095-.139.067-.272.149-.47.259.997,1.41,1.973,2.791,3.018,4.271-.782.362-1.484.146-2.208.217ZM111.071,72.584c1.222,0,2.363.027,3.503-.007,1.257-.038,2.01-.743,2.063-1.855.057-1.205-.662-2.056-1.969-2.143-1.185-.079-2.379-.017-3.597-.017v4.022Z" fill="#949597"/>
  <path d="M68.308,73.695v3.085c2.308.279,4.609-.031,6.781.167.562.567.356,1.128.337,1.872-1.51.082-3.034.028-4.553.038-1.481.01-2.963.002-4.55.002v-12.178h8.758c.249.519.13,1.1.061,1.847h-6.796v3.2c2.021.257,3.995.012,5.888.15.315.234.285.52.283.79-.002.268.044.551-.221.872-1.93.16-3.956-.099-5.989.156Z" fill="#949597"/>
  <path d="M64.851,58.178c.121-.077.243-.153.364-.23-.007.257-.122.344-.364.23Z" fill="#949597"/>
  <metadata>
    <sfw xmlns="http://ns.adobe.com/SaveForWeb/1.0/">
      <slices/>
      <sliceSourceBounds x="-1166.61" y="-1335.63" width="3345.68" height="1186.38" bottomLeftOrigin="true"/>
    </sfw>
  </metadata>
</svg>