<?xml version="1.0" encoding="UTF-8"?>
<svg id="Capa_1" xmlns="http://www.w3.org/2000/svg" version="1.1" viewBox="0 0 24 24">
  <!-- Generator: Adobe Illustrator 30.3.0, SVG Export Plug-In . SVG Version: 2.1.3 Build 182)  -->
  <path d="M7,18v-6c0-2.761,2.239-5,5-5s5,2.239,5,5v6" fill="none" stroke="#103ad9" stroke-linecap="round" stroke-linejoin="round" stroke-width="2"/>
  <path d="M5,21c0,.552.448,1,1,1h12c.552,0,1-.448,1-1v-1c0-1.105-.895-2-2-2H7c-1.105,0-2,.895-2,2v1Z" fill="none" stroke="#103ad9" stroke-linecap="round" stroke-linejoin="round" stroke-width="2"/>
  <path d="M21,12h1" fill="none" stroke="#103ad9" stroke-linecap="round" stroke-linejoin="round" stroke-width="2"/>
  <path d="M18.5,4.5l-.5.5" fill="none" stroke="#103ad9" stroke-linecap="round" stroke-linejoin="round" stroke-width="2"/>
  <path d="M2,12h1" fill="none" stroke="#103ad9" stroke-linecap="round" stroke-linejoin="round" stroke-width="2"/>
  <path d="M12,2v1" fill="none" stroke="#103ad9" stroke-linecap="round" stroke-linejoin="round" stroke-width="2"/>
  <path d="M4.929,4.929l.707.707" fill="none" stroke="#103ad9" stroke-linecap="round" stroke-linejoin="round" stroke-width="2"/>
  <path d="M12,12v6" fill="none" stroke="#103ad9" stroke-linecap="round" stroke-linejoin="round" stroke-width="2"/>
  <metadata>
    <sfw xmlns="http://ns.adobe.com/SaveForWeb/1.0/">
      <slices/>
      <sliceSourceBounds x="1" y="1" width="22" height="22" bottomLeftOrigin="true"/>
    </sfw>
  </metadata>
</svg>