<?xml version="1.0" encoding="UTF-8"?>
<svg id="Capa_1" xmlns="http://www.w3.org/2000/svg" version="1.1" viewBox="0 0 24 24">
  <!-- Generator: Adobe Illustrator 30.3.0, SVG Export Plug-In . SVG Version: 2.1.3 Build 182)  -->
  <path d="M16.05,10.966c-1.619,1.118-4.745,1.369-6.982.559-.43-.155-.807-.344-1.118-.559" fill="none" stroke="#103ad8" stroke-linecap="round" stroke-linejoin="round" stroke-width="2"/>
  <path d="M16.923,14.049l4.48,2.04c.506.222.736.812.514,1.318-.101.229-.284.413-.513.513l-8.574,3.9c-.527.24-1.133.24-1.66,0l-8.574-3.91c-.505-.223-.734-.813-.512-1.318.101-.228.283-.411.512-.512l4.484-2.04" fill="none" stroke="#103ad8" stroke-linecap="round" stroke-linejoin="round" stroke-width="2"/>
  <path d="M16.949,14.14c.39,1.367-1.511,2.633-4.245,2.828-2.734.195-5.266-.755-5.655-2.122-.067-.234-.067-.471,0-.705l3.014-10.64c.275-1.07,1.365-1.714,2.435-1.439.706.182,1.257.733,1.439,1.439l3.012,10.64Z" fill="none" stroke="#103ad8" stroke-linecap="round" stroke-linejoin="round" stroke-width="2"/>
  <path d="M9.194,6.57c1.694.574,3.916.574,5.61,0" fill="none" stroke="#103ad8" stroke-linecap="round" stroke-linejoin="round" stroke-width="2"/>
  <metadata>
    <sfw xmlns="http://ns.adobe.com/SaveForWeb/1.0/">
      <slices/>
      <sliceSourceBounds x="1" y="1" width="22" height="22" bottomLeftOrigin="true"/>
    </sfw>
  </metadata>
</svg>