<?xml version="1.0" encoding="UTF-8"?>
<svg id="Capa_1" xmlns="http://www.w3.org/2000/svg" version="1.1" viewBox="0 0 24 24">
  <!-- Generator: Adobe Illustrator 30.3.0, SVG Export Plug-In . SVG Version: 2.1.3 Build 182)  -->
  <path d="M19,17h2c.6,0,1-.4,1-1v-3c0-.9-.7-1.7-1.5-1.9-1.8-.5-4.5-1.1-4.5-1.1,0,0-1.3-1.4-2.2-2.3-.5-.4-1.1-.7-1.8-.7h-7c-.6,0-1.1.4-1.4.9l-1.4,2.9c-.132.386-.2.792-.2,1.2v4c0,.6.4,1,1,1h2" fill="none" stroke="#103ad8" stroke-linecap="round" stroke-linejoin="round" stroke-width="2"/>
  <circle cx="7" cy="17" r="2" fill="none" stroke="#103ad8" stroke-linecap="round" stroke-linejoin="round" stroke-width="2"/>
  <path d="M9,17h6" fill="none" stroke="#103ad8" stroke-linecap="round" stroke-linejoin="round" stroke-width="2"/>
  <circle cx="17" cy="17" r="2" fill="none" stroke="#103ad8" stroke-linecap="round" stroke-linejoin="round" stroke-width="2"/>
  <metadata>
    <sfw xmlns="http://ns.adobe.com/SaveForWeb/1.0/">
      <slices/>
      <sliceSourceBounds x="1" y="4" width="22" height="14" bottomLeftOrigin="true"/>
    </sfw>
  </metadata>
</svg>