<?xml version="1.0" encoding="UTF-8"?>
<svg id="Capa_1" xmlns="http://www.w3.org/2000/svg" version="1.1" viewBox="0 0 24 24">
  <!-- Generator: Adobe Illustrator 30.3.0, SVG Export Plug-In . SVG Version: 2.1.3 Build 182)  -->
  <path d="M3,11h3c1.105,0,2,.895,2,2v3c0,1.105-.895,2-2,2h-1c-1.105,0-2-.895-2-2v-5ZM3,11C3,6.029,7.029,2,12,2s9,4.029,9,9M21,11v5c0,1.105-.895,2-2,2h-1c-1.105,0-2-.895-2-2v-3c0-1.105.895-2,2-2h3Z" fill="none" stroke="#103ad9" stroke-linecap="round" stroke-linejoin="round" stroke-width="2"/>
  <path d="M21,16v2c0,2.209-1.791,4-4,4h-5" fill="none" stroke="#103ad9" stroke-linecap="round" stroke-linejoin="round" stroke-width="2"/>
  <metadata>
    <sfw xmlns="http://ns.adobe.com/SaveForWeb/1.0/">
      <slices/>
      <sliceSourceBounds x="2" y="1" width="20" height="22" bottomLeftOrigin="true"/>
    </sfw>
  </metadata>
</svg>