<?xml version="1.0" encoding="UTF-8"?>
<svg id="Capa_1" xmlns="http://www.w3.org/2000/svg" version="1.1" viewBox="0 0 24 24">
  <!-- Generator: Adobe Illustrator 30.3.0, SVG Export Plug-In . SVG Version: 2.1.3 Build 182)  -->
  <path d="M20,13c0,5-3.5,7.5-7.66,8.95-.218.074-.454.07-.67-.01-4.17-1.44-7.67-3.94-7.67-8.94v-7c0-.552.448-1,1-1,2,0,4.5-1.2,6.24-2.72.438-.374,1.082-.374,1.52,0,1.75,1.53,4.24,2.72,6.24,2.72.552,0,1,.448,1,1v7Z" fill="none" stroke="#103ad8" stroke-linecap="round" stroke-linejoin="round" stroke-width="2"/>
  <path d="M9,12h6" fill="none" stroke="#103ad8" stroke-linecap="round" stroke-linejoin="round" stroke-width="2"/>
  <path d="M12,9v6" fill="none" stroke="#103ad8" stroke-linecap="round" stroke-linejoin="round" stroke-width="2"/>
  <metadata>
    <sfw xmlns="http://ns.adobe.com/SaveForWeb/1.0/">
      <slices/>
      <sliceSourceBounds x="3" y="1" width="18" height="22" bottomLeftOrigin="true"/>
    </sfw>
  </metadata>
</svg>