<?xml version="1.0" encoding="UTF-8"?>
<svg id="Capa_1" xmlns="http://www.w3.org/2000/svg" version="1.1" viewBox="0 0 24 24">
  <!-- Generator: Adobe Illustrator 30.3.0, SVG Export Plug-In . SVG Version: 2.1.3 Build 182)  -->
  <path d="M17.8,19.2l-1.8-8.2,3.5-3.5c1.5-1.5,2-3.5,1.5-4.5-1-.5-3,0-4.5,1.5l-3.5,3.5-8.2-1.8c-.5-.1-.9.1-1.1.5l-.3.5c-.2.5-.1,1,.3,1.3l5.3,3.5-2,3h-3l-1,1,3,2,2,3,1-1v-3l3-2,3.5,5.3c.3.4.8.5,1.3.3l.5-.2c.4-.3.6-.7.5-1.2Z" fill="none" stroke="#103ad8" stroke-linecap="round" stroke-linejoin="round" stroke-width="2"/>
  <metadata>
    <sfw xmlns="http://ns.adobe.com/SaveForWeb/1.0/">
      <slices/>
      <sliceSourceBounds x="2" y="2" width="20.19" height="20.19" bottomLeftOrigin="true"/>
    </sfw>
  </metadata>
</svg>