<?xml version="1.0" encoding="UTF-8"?>
<svg id="White" xmlns="http://www.w3.org/2000/svg" version="1.1" viewBox="0 0 400 400">
  <!-- Generator: Adobe Illustrator 30.3.0, SVG Export Plug-In . SVG Version: 2.1.3 Build 182)  -->
  <g id="Compa-Feliz">
    <circle id="background" cx="200" cy="200" r="190" fill="#fff"/>
    <g id="face">
      <path id="mouth" d="M199.898,237.694c-10.082.461-18.313,8.848-18.601,18.937-.149,5.204,1.756,9.949,4.943,13.529h-.026l10.544,12.88c2.097,2.562,6.015,2.562,8.112,0l10.541-12.879h-.024c3.07-3.449,4.952-7.981,4.952-12.962,0-11.087-9.242-20.016-20.442-19.504Z" fill="#103ad8"/>
      <g id="eyes">
        <g id="eye-right">
          <path id="eye-right-white" d="M322.085,129.153l-18.308,9.533c-10.074-6.555-22.089-10.378-35.003-10.378-35.501,0-64.28,28.779-64.28,64.28s28.779,64.28,64.28,64.28c13.203,0,25.473-3.986,35.682-10.813l17.389,9.878c5.002,2.841,11.209-.771,11.209-6.524v-113.602c0-5.631-5.973-9.256-10.968-6.655Z" fill="#103ad8"/>
          <path id="eye-right-pupil" d="M268.773,224.6c-17.652,0-32.013-14.361-32.013-32.012s14.361-32.013,32.013-32.013,32.012,14.36,32.012,32.013-14.36,32.012-32.012,32.012Z" fill="#fff"/>
        </g>
        <g id="eye-left">
          <path id="eye-left-white" d="M131.112,128.35c-13.203-.007-25.475,3.973-35.687,10.795l-17.384-9.886c-5-2.844-11.21.765-11.212,6.518l-.057,113.602c0,.074.012.144.014.217v40.155c0,3.601,2.919,6.52,6.52,6.52h19.228c3.601,0,6.52-2.919,6.52-6.52v-41.404c9.422,5.431,20.338,8.558,31.994,8.564,35.501.018,64.295-28.747,64.313-64.248.018-35.501-28.747-64.294-64.248-64.312Z" fill="#103ad8"/>
          <path id="eye-left-pupil" d="M131.064,224.642c-17.652-.009-32.005-14.376-31.996-32.029.009-17.651,14.376-32.005,32.028-31.996,17.652.009,32.006,14.377,31.997,32.028-.009,17.653-14.377,32.005-32.029,31.997Z" fill="#fff"/>
        </g>
      </g>
    </g>
  </g>
  <metadata>
    <sfw xmlns="http://ns.adobe.com/SaveForWeb/1.0/">
      <slices/>
      <sliceSourceBounds x="720.2" y="-139.42" width="2060" height="803.29" bottomLeftOrigin="true"/>
    </sfw>
  </metadata>
</svg>